<svg width="410" height="413" viewBox="0 0 410 413" fill="none" xmlns="http://www.w3.org/2000/svg">
<path d="M380.5 0H346.6C335.554 0 326.6 8.95431 326.6 20V53.9C326.6 64.9457 335.554 73.9 346.6 73.9H380.5C391.546 73.9 400.5 64.9457 400.5 53.9V20C400.5 8.95431 391.546 0 380.5 0Z" fill="#24CCA7"/>
<path d="M364.7 11.8999C366.1 11.8999 367.2 12.9999 367.2 14.3999V15.6999C370.6 16.0999 373.6 17.1999 376.3 18.8999C377.2 19.3999 378.1 20.2999 378.1 21.6999C378.1 23.4999 376.6 24.8999 374.8 24.8999C374.2 24.8999 373.6 24.6999 373 24.3999C371 23.1999 369 22.2999 367 21.7999V32.9999C375.9 35.1999 379.7 38.7999 379.7 44.9999C379.7 51.3999 374.7 55.6999 367.3 56.3999V59.8999C367.3 61.2999 366.2 62.3999 364.8 62.3999C363.4 62.3999 362.2 61.2999 362.2 59.8999V56.2999C357.8 55.7999 353.8 54.2999 350.2 51.6999C349.2 51.0999 348.6 50.0999 348.6 48.8999C348.6 47.0999 350 45.6999 351.8 45.6999C352.5 45.6999 353.2 45.8999 353.7 46.2999C356.4 48.2999 359.1 49.5999 362.3 50.1999V38.7999C353.8 36.5999 349.8 33.3999 349.8 26.7999C349.8 20.4999 354.8 16.1999 362.1 15.5999V14.3999C362.2 12.9999 363.3 11.8999 364.7 11.8999ZM362.4 31.7999V21.3999C358.7 21.7999 356.8 23.6999 356.8 26.2999C356.8 28.7999 357.9 30.2999 362.4 31.7999ZM367 39.8999V50.4999C370.7 50.0999 372.8 48.1999 372.8 45.3999C372.8 42.8999 371.5 41.2999 367 39.8999Z" fill="white"/>
<path d="M70 251.5C70.5 239 70.3 226.5 69.5 214C67.8 188.3 63.6 162.7 57.8 137.6C54.5 123.5 50.5 109.6 46.3 95.6999C46.2 95.2999 45.5 95.4 45.6 95.8C58.6 144.7 69.2 195.2 68.5 246C68.3 260.2 66.6 274.2 65.3 288.3C65.3 288.7 65.9 288.8 66 288.4C68.7 276.6 69.5 263.9 70 251.5Z" fill="#FFD8D0"/>
<path d="M45.6 95.8999C45.6 95.8999 25.9 145.9 30.3 157.6C34.7 169.3 43.8 171.8 43.8 171.8C43.8 171.8 31.8 189 40.2 205.1C48.6 221.2 67.3 220.5 68.6 238.7C68.5 238.8 69.6 162.4 45.6 95.8999Z" fill="#FFD8D0"/>
<path d="M66.4 207.3C66.4 207.2 66.4 207.1 66.4 207C63.6 173 57.6 139.2 47.3 106.5C47.3 106.4 47.1 106.4 47.1 106.5C51 121.1 54.5 135.8 57.4 150.6C54.8 148 51.5 146.5 48 145.4C47.9 145.4 47.9 145.5 48 145.5C51.6 147.1 55.1 148.9 57.7 152C58.3 154.9 58.8 157.8 59.4 160.7C55 155.8 48.9 153.3 42.8 151C42.7 151 42.7 151.1 42.8 151.1C49.2 153.7 55.5 157 59.8 162.5C61.3 170.8 62.6 179.1 63.8 187.5C60.6 184.1 56.6 181.9 52.1 180.8C52 180.8 51.9 181 52 181C56.7 182.3 60.7 185 63.9 188.6C63.9 188.6 63.9 188.6 64 188.7C64.4 191.6 64.8 194.6 65.1 197.5C62.6 195.4 59.9 193.8 56.9 192.5C56.8 192.5 56.8 192.6 56.9 192.6C60 193.9 62.7 195.8 65.1 198.1H65.2C65.5 200.9 65.9 203.7 66.1 206.5C61.6 201.1 56 197.1 49.4 194.6C49.3 194.6 49.2 194.7 49.3 194.8C55.7 197.6 61.4 202 65.7 207.5C65.8 207.6 66 207.7 66.1 207.6C66.5 211.9 66.9 216.2 67.2 220.5C67.2 220.6 67.3 220.6 67.3 220.5C67.1 216.1 66.8 211.7 66.4 207.3Z" fill="#263238"/>
<path d="M50.6 140.4C47.2 138.1 42.8 137.1 38.8 136.7C38.7 136.7 38.7 136.8 38.8 136.9C43 137.5 46.6 139.1 50.5 140.7C50.6 140.8 50.7 140.5 50.6 140.4Z" fill="#263238"/>
<path d="M53 193.3C50.3 191.7 47.2 190.8 44.1 190.3C44 190.3 44 190.4 44.1 190.5C47.2 191.1 50 192.2 52.9 193.6C53 193.6 53.1 193.4 53 193.3Z" fill="#263238"/>
<path d="M121.8 158.4C113.6 164.2 105.7 170.8 99 178.3C91.9 186.3 86.7 195.3 83 205.4C75.6 226 71.5 248.3 71.1 270.2C70.9 282.5 72 294.6 74.6 306.6C74.7 307 75.3 306.9 75.3 306.5C72.1 285.4 72.2 263.9 75.7 242.8C79.1 222.1 84.4 199.7 97.5 182.9C104.7 173.8 113.6 166.6 122.4 159.1C122.9 158.7 122.3 158.1 121.8 158.4Z" fill="#FFD8D0"/>
<path d="M74 255.3C74 255.3 80.8 243.9 90.6 234.1C100.4 224.3 108.7 217.3 110 210.8C111.3 204.3 100.1 199.5 100.1 199.5C100.1 199.5 113.7 201.9 117.5 196.2C121.2 190.5 123 157.4 123 157.4C123 157.4 98.2 175.1 86.7 199.9C75.2 224.7 74 255.3 74 255.3Z" fill="#FFD8D0"/>
<path d="M114.5 165.9C104.1 176.1 93.6 187.1 87.4 200.5C85.3 205.1 83.5 209.9 81.9 214.8C81.6 215.8 81.3 216.8 81 217.7C81 217.7 81 217.8 80.9 217.9C77.9 227.9 75.7 238.3 73.9 248.5C73.9 248.6 74 248.6 74 248.5C75.1 243.3 76.2 238.1 77.6 232.9H77.7C79.8 232 81.9 231.5 84.2 231.2C84.3 231.2 84.3 230.9 84.2 230.9C82 231 79.9 231.4 77.8 232.1C79 227.4 80.3 222.7 81.8 218.1C86.6 216.9 91.6 216.3 96.5 216.2C96.6 216.2 96.6 216.1 96.5 216.1C91.5 215.9 86.9 216.3 82 217.3C82.3 216.5 82.5 215.7 82.8 214.9C86 214.2 89.3 213.5 92.6 213.2C92.7 213.2 92.7 213.1 92.6 213.1C89.4 213.2 86.2 213.5 83 214.3C84.3 210.3 85.8 206.4 87.4 202.5C88.7 199.3 90.3 196.3 92.1 193.4C94.7 192.8 97.3 192.2 100 192C100.1 192 100.1 191.9 100 191.9C97.5 191.7 95 191.9 92.6 192.6C93.9 190.5 95.3 188.4 96.7 186.4C102.3 185.2 107.9 184 113.6 185.1C113.7 185.1 113.7 185 113.6 184.9C108.2 183.5 102.8 184.3 97.4 185.4C98 184.6 98.6 183.8 99.2 183.1C102.6 182 106 181.5 109.6 181.5C109.7 181.5 109.7 181.4 109.6 181.4C106.3 181.1 103.1 181.4 99.9 182.3C104.5 176.6 109.6 171.2 114.6 165.9C114.9 165.8 114.7 165.6 114.5 165.9Z" fill="#263238"/>
<path d="M114.2 188.4C112.6 188.2 110.9 188 109.3 188.2C109.1 188.2 109.1 188.5 109.3 188.6C110.9 188.6 112.6 188.5 114.2 188.6C114.3 188.6 114.3 188.4 114.2 188.4Z" fill="#263238"/>
<path d="M96.4 220.6C93.8 220.6 91.2 221.3 88.8 222.1C88.7 222.1 88.8 222.2 88.8 222.2C91.3 221.6 93.9 221.4 96.4 220.9C96.6 220.9 96.6 220.6 96.4 220.6Z" fill="#263238"/>
<path d="M91 209.5C89.9 209.4 88.8 209.6 87.8 209.8C87.7 209.8 87.7 210 87.8 210C88.9 210 90 210 91.1 209.8C91.2 209.8 91.2 209.5 91 209.5Z" fill="#263238"/>
<path d="M1.39999 193.6C9.39999 196.4 17.3 199.9 24.4 204.4C32 209.2 38.3 215.3 43.6 222.6C54.4 237.5 62.8 254.7 68.2 272.3C71.2 282.2 73.1 292.3 73.8 302.6C73.8 303 73.3 303 73.2 302.7C70.9 284.9 65.8 267.5 58.2 251.2C50.7 235.3 41.2 218.3 26.7 207.7C18.8 202 9.89999 198.2 1.09999 194.2C0.599991 194.1 0.89999 193.4 1.39999 193.6Z" fill="#FFD8D0"/>
<path d="M62.4 261C62.4 261 54.3 253.4 44.1 247.7C33.9 242 25.5 238.3 23 233.3C20.5 228.3 28.4 221.9 28.4 221.9C28.4 221.9 17.9 227 13.6 223.3C9.29999 219.5 0.199997 193.2 0.199997 193.2C0.199997 193.2 24.3 201.8 39.4 219.2C54.4 236.4 62.4 261 62.4 261Z" fill="#FFD8D0"/>
<path d="M61.2 255.5C49.1 232.8 33 212.3 10.9 198.8C16.7 202.5 22.1 206.8 27.1 211.4C22.6 211.3 18.1 212 14.1 214.1C14 214.1 14.1 214.3 14.2 214.2C18.6 212.7 22.9 211.7 27.6 211.9C27.7 211.9 27.7 211.9 27.8 211.8C28.6 212.5 29.4 213.3 30.1 214.1C27.8 214.2 25.4 214.5 23.2 215C23.1 215 23.2 215.1 23.2 215.1C25.7 214.6 28 214.5 30.5 214.5C34.5 218.6 38.3 222.9 41.9 227.4C40.3 227.2 38.6 227.3 37 227.8C36.9 227.8 36.9 228 37 228C38.8 227.8 40.4 227.8 42.2 227.9C42.9 228.7 43.5 229.6 44.2 230.4C39.2 230.1 34.4 230.6 29.5 231.8C29.4 231.8 29.4 231.9 29.5 231.9C34.5 230.9 39.5 230.6 44.6 230.9C45.2 231.7 45.8 232.6 46.4 233.4C43.4 233.3 40.6 233.7 37.7 234.4C37.6 234.4 37.6 234.6 37.7 234.6C40.7 233.9 43.7 233.8 46.7 233.9C49.3 237.5 51.8 241.1 54.2 244.8C52.9 244.5 51.6 244.7 50.4 245C50.3 245 50.4 245.1 50.4 245.1C51.8 244.9 53.1 245.1 54.5 245.3C56.7 248.6 58.7 252 60.7 255.4C60.9 256 61.3 255.8 61.2 255.5Z" fill="#263238"/>
<path d="M42.4 236.7C40 236.5 37.6 236.9 35.4 237.6C35.3 237.6 35.4 237.7 35.4 237.7C37.7 237.3 40 237.1 42.4 237C42.5 237 42.5 236.7 42.4 236.7Z" fill="#263238"/>
<path d="M21.3 209.1C20.2 209 19.1 209.1 18.1 209.3C18 209.3 18 209.5 18.1 209.5C19.2 209.4 20.2 209.4 21.3 209.4C21.5 209.4 21.5 209.1 21.3 209.1Z" fill="#263238"/>
<path d="M93.6 336.3H39.1L46.8 279.4L48.8 264.8H83.8L85.8 279.4L93.6 336.3Z" fill="#455A64"/>
<path d="M85.8 279.4H46.8L48.8 264.8H83.8L85.8 279.4Z" fill="#263238"/>
<path d="M88.8 259.7H43.8V272.1H88.8V259.7Z" fill="#455A64"/>
<path d="M91 50.8H64.5V62H91V50.8Z" fill="#EBEBEB"/>
<path d="M76.2 64.9001H49.7V76.1001H76.2V64.9001Z" fill="#EBEBEB"/>
<path d="M211.7 412.6C321.052 412.6 409.7 399.84 409.7 384.1C409.7 368.36 321.052 355.6 211.7 355.6C102.348 355.6 13.7 368.36 13.7 384.1C13.7 399.84 102.348 412.6 211.7 412.6Z" fill="#4A56E2"/>
<path d="M302.2 22.7V344.7C302.2 354.2 294.6 361.9 285.3 361.9H118.8C109.5 361.9 101.9 354.2 101.9 344.7V22.7C101.9 13.2 109.5 5.5 118.8 5.5H285.4C294.6 5.6 302.2 13.3 302.2 22.7Z" fill="#263238"/>
<path d="M291.7 38.8999V334.2C291.7 343.2 284.9 350.5 276.6 350.5H127.6C119.2 350.5 112.5 343.2 112.5 334.2V38.8999C112.5 20.4999 119.3 16.3999 127.6 16.3999H157.4C159.1 16.3999 160.5 18.3999 160.5 20.7999V21.8999C160.5 27.5999 163.6 27.6999 167.5 27.6999H236.5C240.4 27.6999 243.5 27.6999 243.5 21.8999V20.7999C243.5 18.3999 244.9 16.3999 246.6 16.3999H276.5C284.9 16.4999 291.7 22.0999 291.7 38.8999Z" fill="white"/>
<path d="M211.5 20.5001H192.7C192.1 20.5001 191.5 20.0001 191.5 19.3001C191.5 18.7001 192 18.1001 192.7 18.1001H211.5C212.1 18.1001 212.7 18.6001 212.7 19.3001C212.6 20.0001 212.1 20.5001 211.5 20.5001Z" fill="white"/>
<path d="M273.3 147.8L273.5 227.7C273.5 232.2 269.9 235.8 265.4 235.8L138.7 236.1C134.2 236.1 130.6 232.5 130.6 228L130.4 148.1C130.4 143.9 133.7 140.6 137.9 140.6L265.7 140.3C269.9 140.3 273.3 143.7 273.3 147.8Z" fill="#4A56E2"/>
<path d="M252.827 217.563C253.403 213.517 250.59 209.77 246.544 209.194C242.498 208.618 238.751 211.431 238.175 215.477C237.599 219.524 240.412 223.27 244.458 223.846C248.504 224.422 252.251 221.609 252.827 217.563Z" fill="#37474F"/>
<path d="M262.1 216.5C262.1 220.6 258.8 223.9 254.7 224C250.6 224 247.3 220.7 247.2 216.6C247.2 212.5 250.5 209.2 254.6 209.1C258.7 209.1 262.1 212.4 262.1 216.5Z" fill="#FFC727"/>
<path d="M165.1 172.9H146.7C144.4 172.9 142.5 171 142.5 168.7V158.6C142.5 156.3 144.4 154.4 146.7 154.4H165.1C167.4 154.4 169.3 156.3 169.3 158.6V168.7C169.3 171 167.4 172.8 165.1 172.9Z" fill="#FFC727"/>
<path d="M256.8 164.2H244.7C241.9 164.2 239.6 161.9 239.6 159.1C239.6 156.3 241.9 154 244.7 154H256.8C259.6 154 261.9 156.3 261.9 159.1C261.9 162 259.7 164.2 256.8 164.2Z" fill="white"/>
<path d="M141.6 189.8L140.5 190.4H140.4C140.3 190.4 140.2 190.3 140.2 190.3C140.1 190.2 140.2 190 140.3 189.9L141.8 189C141.9 188.9 142.1 189 142.2 189.1C142.2 189.2 142.2 189.2 142.2 189.3V196.4C142.2 196.5 142.1 196.7 141.9 196.7C141.8 196.7 141.6 196.6 141.6 196.4V189.8Z" fill="#F8F8F8"/>
<path d="M144 196.3L147.6 193C148 192.6 148.3 192.1 148.3 191.5C148.3 191 148.1 190.5 147.8 190.2C147.4 189.8 146.9 189.5 146.3 189.5C145.8 189.5 145.3 189.7 144.9 190L144.5 190.3C144.4 190.4 144.2 190.4 144.1 190.3C144 190.2 144 190 144.1 189.9L144.5 189.5C145 189.1 145.6 188.8 146.2 188.8C146.9 188.8 147.6 189.1 148.1 189.6C148.6 190.1 148.8 190.7 148.8 191.3C148.8 192 148.5 192.7 148 193.2L144.9 196H148.6C148.7 196 148.9 196.1 148.9 196.3C148.9 196.4 148.8 196.6 148.6 196.6H144.3C144.2 196.6 144.1 196.6 144.1 196.5C143.9 196.6 143.9 196.4 144 196.3Z" fill="#F8F8F8"/>
<path d="M155.3 189.5L153.3 191.6C153.8 191.7 154.3 191.9 154.6 192.3C155.1 192.8 155.4 193.5 155.4 194.2C155.4 194.9 155.1 195.6 154.6 196.1C154.1 196.6 153.4 196.9 152.7 196.9C152 196.9 151.4 196.6 150.8 196.1C150.7 196 150.7 195.8 150.8 195.7C150.9 195.6 151.1 195.6 151.2 195.7C151.6 196.1 152.1 196.3 152.7 196.3C153.2 196.3 153.8 196.1 154.2 195.7C154.6 195.3 154.8 194.8 154.8 194.2C154.8 193.7 154.6 193.1 154.2 192.7C153.8 192.3 153.3 192.1 152.7 192.1C152.6 192.1 152.5 192.1 152.5 192C152.4 191.9 152.4 191.7 152.5 191.6L154.4 189.6H151.4C151.2 189.6 151.1 189.5 151.1 189.3C151.1 189.1 151.2 189 151.4 189H155C155.2 189 155.3 189.1 155.3 189.3C155.4 189.3 155.3 189.4 155.3 189.5C155.3 189.4 155.3 189.5 155.3 189.5Z" fill="#F8F8F8"/>
<path d="M161.8 195.2H157.6C157.5 195.2 157.5 195.2 157.4 195.1C157.3 195 157.3 194.8 157.4 194.7L161.9 189.1C162 189 162.2 189 162.3 189.1L162.4 189.2V194.5H162.9C163.1 194.5 163.2 194.6 163.2 194.8C163.2 194.9 163.1 195.1 162.9 195.1H162.4V196.4C162.4 196.5 162.3 196.7 162.1 196.7C162 196.7 161.8 196.6 161.8 196.4V195.2ZM161.8 194.6V190L158.1 194.6H161.8Z" fill="#F8F8F8"/>
<path d="M171.6 196C171.5 195.9 171.5 195.7 171.6 195.6C171.7 195.5 171.9 195.5 172 195.6C172.4 196 172.9 196.2 173.5 196.2C174 196.2 174.6 196 175 195.6C175.4 195.2 175.6 194.7 175.6 194.1C175.6 193.6 175.4 193 175 192.6C174.6 192.2 174.1 192 173.5 192C173 192 172.4 192.2 172 192.6C171.9 192.7 171.7 192.7 171.6 192.6L171.5 192.5V192.4C171.5 192.4 171.5 192.4 171.5 192.3L171.9 189.2C171.9 189.1 171.9 189 172 189C172 189 172.1 188.9 172.2 188.9H175.8C176 188.9 176.1 189 176.1 189.2C176.1 189.4 176 189.5 175.8 189.5H172.4L172.1 191.8C172.5 191.6 173 191.4 173.4 191.4C174.1 191.4 174.7 191.6 175.3 192.2C175.8 192.7 176.1 193.4 176.1 194.1C176.1 194.8 175.9 195.5 175.3 196C174.8 196.5 174.1 196.8 173.4 196.8C172.8 196.7 172.1 196.5 171.6 196Z" fill="#F8F8F8"/>
<path d="M179 190.6C179.5 189.7 180.4 189 181.7 188.9C181.8 188.9 182 189 182 189.2C182 189.4 181.9 189.5 181.7 189.5C180.6 189.5 179.9 190.1 179.4 190.9C179.1 191.4 179 191.9 178.8 192.5C179.3 192 180 191.6 180.7 191.6C182.1 191.6 183.3 192.7 183.3 194.2C183.3 195.6 182.2 196.8 180.7 196.8C179.3 196.8 178.2 195.7 178.1 194.3C178.1 194.1 178.1 194 178.1 193.8C178.2 192.7 178.4 191.6 179 190.6ZM178.8 194.2C178.8 194.3 178.8 194.3 178.8 194.3V194.4C178.9 195.4 179.8 196.2 180.8 196.2C181.9 196.2 182.8 195.3 182.8 194.2C182.8 193.1 181.9 192.2 180.7 192.2C179.7 192.1 178.8 193 178.8 194.2Z" fill="#F8F8F8"/>
<path d="M186.2 196.3L189.1 189.5H185.3C185.2 189.5 185 189.4 185 189.2C185 189.1 185.1 188.9 185.3 188.9H189.4C189.5 188.9 189.5 188.9 189.6 188.9C189.7 188.9 189.7 189 189.7 189.1V189.2C189.7 189.3 189.7 189.3 189.7 189.3L186.7 196.5C186.7 196.6 186.6 196.7 186.5 196.7H186.4C186.2 196.6 186.2 196.4 186.2 196.3Z" fill="#F8F8F8"/>
<path d="M193.9 188.9C194.8 188.9 195.5 189.6 195.5 190.5C195.5 191 195.2 191.5 194.8 191.8C195.7 192.2 196.4 193.1 196.4 194.1C196.4 195.5 195.3 196.6 193.9 196.6C192.5 196.6 191.4 195.5 191.4 194.1C191.4 193.1 192 192.1 193 191.8C192.6 191.5 192.4 191 192.4 190.5C192.3 189.6 193 188.9 193.9 188.9ZM193.9 196.1C195 196.1 195.9 195.2 195.9 194.1C195.9 193 195 192.1 193.9 192.1C192.8 192.1 191.9 193 191.9 194.1C191.9 195.3 192.8 196.1 193.9 196.1ZM193.9 191.6C194.5 191.6 195 191.1 195 190.5C195 189.9 194.5 189.4 193.9 189.4C193.3 189.4 192.8 189.9 192.8 190.5C192.8 191.1 193.3 191.6 193.9 191.6Z" fill="#F8F8F8"/>
<path d="M207.7 188.9C209 188.9 210.1 189.9 210.3 191.2C210.3 191.2 210.3 191.2 210.3 191.3C210.3 191.5 210.3 191.7 210.3 192C210.3 193 210.1 194.2 209.6 195.1C209.1 196 208.2 196.7 206.9 196.8C206.7 196.8 206.6 196.7 206.6 196.5C206.6 196.3 206.7 196.2 206.9 196.2C208 196.2 208.7 195.6 209.2 194.8C209.5 194.3 209.7 193.8 209.8 193.2C209.3 193.7 208.6 194.1 207.9 194.1C206.5 194.1 205.3 193 205.3 191.5C205.2 190 206.3 188.9 207.7 188.9ZM209.8 191.4C209.8 190.3 208.9 189.4 207.8 189.4C206.7 189.4 205.8 190.3 205.8 191.4C205.8 192.5 206.7 193.4 207.8 193.4C208.9 193.4 209.8 192.5 209.8 191.4Z" fill="#F8F8F8"/>
<path d="M212.3 192.7C212.3 191.7 212.6 190.7 213 190C213.5 189.3 214.2 188.8 214.9 188.8C215.7 188.8 216.4 189.3 216.8 190C217.3 190.7 217.6 191.7 217.6 192.7C217.6 193.7 217.3 194.7 216.9 195.4C216.4 196.1 215.7 196.6 215 196.6C214.2 196.6 213.5 196.1 213.1 195.4C212.6 194.7 212.3 193.8 212.3 192.7ZM212.8 192.7C212.8 193.7 213.1 194.5 213.5 195.1C213.9 195.7 214.4 196 215 196C215.6 196 216.1 195.7 216.5 195.1C216.9 194.5 217.2 193.6 217.2 192.7C217.2 191.7 216.9 190.9 216.5 190.3C216.1 189.7 215.6 189.4 215 189.4C214.4 189.4 213.9 189.7 213.5 190.3C213.1 190.9 212.8 191.8 212.8 192.7Z" fill="#F8F8F8"/>
<path d="M221.3 189.6L220.2 190.2H220.1C220 190.2 219.9 190.1 219.9 190.1C219.8 190 219.9 189.8 220 189.7L221.5 188.8C221.6 188.7 221.8 188.8 221.9 188.9C221.9 189 221.9 189 221.9 189.1V196.2C221.9 196.3 221.8 196.5 221.6 196.5C221.5 196.5 221.3 196.4 221.3 196.2V189.6Z" fill="#F8F8F8"/>
<path d="M223.7 196.1L227.3 192.8C227.7 192.4 228 191.9 228 191.3C228 190.8 227.8 190.3 227.5 190C227.1 189.6 226.6 189.3 226 189.3C225.5 189.3 225 189.5 224.6 189.8L224.2 190.1C224.1 190.2 223.9 190.2 223.8 190.1C223.7 190 223.7 189.8 223.8 189.7L224.2 189.3C224.7 188.9 225.3 188.6 225.9 188.6C226.6 188.6 227.3 188.9 227.8 189.4C228.3 189.9 228.5 190.5 228.5 191.1C228.5 191.8 228.2 192.5 227.7 193L224.6 195.8H228.3C228.4 195.8 228.6 195.9 228.6 196.1C228.6 196.2 228.5 196.4 228.3 196.4H224C223.9 196.4 223.8 196.4 223.8 196.3C223.6 196.4 223.6 196.2 223.7 196.1Z" fill="#F8F8F8"/>
<path d="M241.6 189.3L239.6 191.4C240.1 191.5 240.6 191.7 240.9 192.1C241.4 192.6 241.7 193.3 241.7 194C241.7 194.7 241.4 195.4 240.9 195.9C240.4 196.4 239.7 196.7 239 196.7C238.3 196.7 237.7 196.4 237.1 195.9C237 195.8 237 195.6 237.1 195.5C237.2 195.4 237.4 195.4 237.5 195.5C237.9 195.9 238.4 196.1 239 196.1C239.5 196.1 240.1 195.9 240.5 195.5C240.9 195.1 241.1 194.6 241.1 194C241.1 193.5 240.9 192.9 240.5 192.5C240.1 192.1 239.6 191.9 239 191.9C238.9 191.9 238.8 191.9 238.8 191.8C238.7 191.7 238.7 191.5 238.8 191.4L240.7 189.4H237.7C237.5 189.4 237.4 189.3 237.4 189.1C237.4 188.9 237.5 188.8 237.7 188.8H241.3C241.5 188.8 241.6 188.9 241.6 189.1C241.7 189.1 241.7 189.1 241.6 189.3C241.7 189.2 241.7 189.2 241.6 189.3Z" fill="#F8F8F8"/>
<path d="M248.2 194.9H244C243.9 194.9 243.9 194.9 243.8 194.8C243.7 194.7 243.7 194.5 243.8 194.4L248.3 188.8C248.4 188.7 248.6 188.7 248.7 188.8L248.8 188.9V194.2H249.3C249.5 194.2 249.6 194.3 249.6 194.5C249.6 194.6 249.5 194.8 249.3 194.8H248.8V196.1C248.8 196.2 248.7 196.4 248.5 196.4C248.4 196.4 248.2 196.3 248.2 196.1V194.9ZM248.2 194.4V189.8L244.5 194.4H248.2Z" fill="#F8F8F8"/>
<path d="M251.3 195.8C251.2 195.7 251.2 195.5 251.3 195.4C251.4 195.3 251.6 195.3 251.7 195.4C252.1 195.8 252.6 196 253.2 196C253.7 196 254.3 195.8 254.7 195.4C255.1 195 255.3 194.5 255.3 193.9C255.3 193.4 255.1 192.8 254.7 192.4C254.3 192 253.8 191.8 253.2 191.8C252.7 191.8 252.1 192 251.7 192.4C251.6 192.5 251.4 192.5 251.3 192.4L251.2 192.3V192.2C251.2 192.2 251.2 192.2 251.2 192.1L251.6 189C251.6 188.9 251.6 188.8 251.7 188.8C251.7 188.8 251.8 188.7 251.9 188.7H255.5C255.7 188.7 255.8 188.8 255.8 189C255.8 189.2 255.7 189.3 255.5 189.3H252.1L251.8 191.6C252.2 191.4 252.7 191.2 253.1 191.2C253.8 191.2 254.4 191.4 255 192C255.5 192.5 255.8 193.2 255.8 193.9C255.8 194.6 255.6 195.3 255 195.8C254.5 196.3 253.8 196.6 253.1 196.6C252.5 196.5 251.8 196.3 251.3 195.8Z" fill="#F8F8F8"/>
<path d="M258.7 190.4C259.2 189.5 260.1 188.8 261.4 188.7C261.5 188.7 261.7 188.8 261.7 189C261.7 189.2 261.6 189.3 261.4 189.3C260.3 189.3 259.6 189.9 259.1 190.7C258.8 191.2 258.7 191.7 258.5 192.3C259 191.8 259.7 191.4 260.4 191.4C261.8 191.4 263 192.5 263 194C263 195.4 261.9 196.6 260.4 196.6C259 196.6 257.9 195.5 257.8 194.1C257.8 193.9 257.8 193.8 257.8 193.6C257.9 192.5 258.1 191.3 258.7 190.4ZM258.5 194C258.5 194.1 258.5 194.1 258.5 194.1V194.2C258.6 195.2 259.5 196 260.5 196C261.6 196 262.5 195.1 262.5 194C262.5 192.9 261.6 192 260.4 192C259.4 191.9 258.5 192.8 258.5 194Z" fill="#F8F8F8"/>
<path d="M210.496 210.012L142.596 210.189L142.605 213.489L210.505 213.312L210.496 210.012Z" fill="#263238"/>
<path d="M190.596 217.439L142.596 217.563L142.605 220.863L190.605 220.739L190.596 217.439Z" fill="#263238"/>
<path d="M234.897 154.157L201.097 154.244L201.105 157.544L234.905 157.457L234.897 154.157Z" fill="#263238"/>
<path d="M131.5 124.4C131.5 124.3 131.6 124.1 131.8 124.1H133.8C134.9 124.1 135.9 125 135.9 126.2C135.9 127.3 135 128.3 133.8 128.3H132V131.2C132 131.3 131.9 131.5 131.7 131.5C131.6 131.5 131.4 131.4 131.4 131.2V124.4H131.5ZM133.8 127.9C134.7 127.9 135.4 127.2 135.4 126.3C135.4 125.4 134.7 124.7 133.8 124.7H132V127.9H133.8Z" fill="#263238"/>
<path d="M141.8 126.6V131.2C141.8 131.3 141.7 131.5 141.5 131.5C141.4 131.5 141.2 131.4 141.2 131.2V130.4C140.8 131 140.1 131.4 139.3 131.4C138 131.4 136.9 130.2 136.9 128.8C136.9 127.4 138 126.2 139.3 126.2C140.1 126.2 140.8 126.6 141.2 127.2V126.4C141.2 126.3 141.3 126.1 141.5 126.1C141.7 126.4 141.8 126.5 141.8 126.6ZM141.3 128.9C141.3 127.8 140.4 126.8 139.4 126.8C138.4 126.8 137.5 127.7 137.5 128.9C137.5 130 138.4 131 139.4 131C140.4 131 141.3 130.1 141.3 128.9Z" fill="#263238"/>
<path d="M143.9 126.6C143.9 126.5 144 126.4 144.1 126.4C144.2 126.4 144.4 126.5 144.4 126.6V129.4C144.4 130.3 145.1 131 146 131C146.9 131 147.6 130.3 147.6 129.4V126.6V126.5L147.7 126.4C147.7 126.4 147.8 126.4 147.8 126.5L147.9 126.6V126.7V129.5V129.6V131.2C147.9 132.5 146.8 133.6 145.5 133.6C145.1 133.6 144.8 133.5 144.4 133.4C144.3 133.3 144.2 133.2 144.3 133.1C144.4 133 144.5 132.9 144.6 133C144.9 133.1 145.1 133.2 145.4 133.2C146.5 133.2 147.3 132.4 147.3 131.3V131C146.9 131.4 146.4 131.7 145.7 131.7C144.6 131.7 143.6 130.8 143.6 129.6V126.6H143.9Z" fill="#263238"/>
<path d="M157.7 128.5C157.7 127.6 157 126.9 156.1 126.9C155.2 126.9 154.5 127.6 154.5 128.5V131.3C154.5 131.4 154.4 131.4 154.4 131.4H154.3C154.3 131.4 154.3 131.4 154.2 131.4V128.6C154.2 127.7 153.5 127 152.6 127C151.7 127 151 127.7 151 128.6V131.4C151 131.5 151 131.6 150.9 131.6C150.9 131.6 150.9 131.6 150.8 131.6C150.7 131.6 150.6 131.5 150.6 131.4V131.3V128.5V128.4V126.6C150.6 126.5 150.7 126.4 150.8 126.4C150.9 126.4 151.1 126.5 151.1 126.6V127.1C151.5 126.7 152 126.4 152.7 126.4C153.5 126.4 154.2 126.8 154.5 127.5C154.9 126.9 155.6 126.4 156.3 126.4C157.4 126.4 158.4 127.3 158.4 128.5V131.3C158.4 131.4 158.3 131.5 158.1 131.5C158 131.5 157.9 131.4 157.9 131.3V128.5H157.7Z" fill="#263238"/>
<path d="M160 129C160 127.6 161.1 126.4 162.5 126.4C163.8 126.4 164.9 127.4 165 128.8C165 128.9 164.9 129 164.7 129H160.5C160.6 130.1 161.4 131 162.5 131C163.2 131 163.8 130.6 164.1 130.1C164.2 130 164.3 130 164.4 130C164.5 130.1 164.6 130.2 164.5 130.4C164.1 131.1 163.3 131.6 162.4 131.6C161.1 131.5 160 130.4 160 129ZM160.5 128.5H164.4C164.2 127.5 163.4 126.8 162.5 126.8C161.5 126.9 160.7 127.6 160.5 128.5Z" fill="#263238"/>
<path d="M170.4 128.5C170.4 127.6 169.7 126.9 168.8 126.9C167.9 126.9 167.2 127.6 167.2 128.5V131.3C167.2 131.3 167.2 131.4 167.1 131.4C167.1 131.5 167 131.5 166.9 131.5H166.8C166.7 131.5 166.7 131.4 166.6 131.4V131.3V128.5V128.4V126.7C166.6 126.6 166.7 126.4 166.9 126.4C167 126.4 167.1 126.5 167.1 126.7V127.2C167.5 126.8 168 126.5 168.7 126.5C169.8 126.5 170.8 127.4 170.8 128.6V131.4C170.8 131.5 170.7 131.7 170.5 131.7C170.4 131.7 170.2 131.6 170.2 131.4V128.5H170.4Z" fill="#263238"/>
<path d="M174.9 126.6C174.9 126.7 174.8 126.9 174.6 126.9H174V130.6C174 130.9 174.3 131 174.4 131C174.5 131 174.7 131.1 174.7 131.3C174.7 131.4 174.6 131.6 174.4 131.6C173.9 131.6 173.5 131.2 173.5 130.7V127H172.9C172.6 127 172.6 126.9 172.6 126.7C172.6 126.6 172.6 126.4 172.9 126.4H173.5V124.5C173.5 124.4 173.6 124.2 173.8 124.2C173.9 124.2 174.1 124.3 174.1 124.5V126.4H174.8C174.8 126.4 174.9 126.5 174.9 126.6Z" fill="#263238"/>
<path d="M187.7 128.5C187.7 127.6 187 126.9 186.1 126.9C185.2 126.9 184.5 127.6 184.5 128.5V131.3C184.5 131.4 184.4 131.4 184.4 131.4H184.3C184.3 131.4 184.3 131.4 184.2 131.4V128.6C184.2 127.7 183.5 127 182.6 127C181.7 127 181 127.7 181 128.6V131.4C181 131.5 181 131.6 180.9 131.6C180.9 131.6 180.9 131.6 180.8 131.6C180.7 131.6 180.6 131.5 180.6 131.4V131.3V128.5V128.4V126.6C180.6 126.5 180.7 126.4 180.8 126.4C180.9 126.4 181.1 126.5 181.1 126.6V127.1C181.5 126.7 182 126.4 182.7 126.4C183.5 126.4 184.2 126.8 184.5 127.5C184.9 126.9 185.6 126.4 186.3 126.4C187.4 126.4 188.4 127.3 188.4 128.5V131.3C188.4 131.4 188.3 131.5 188.1 131.5C188 131.5 187.9 131.4 187.9 131.3V128.5H187.7Z" fill="#263238"/>
<path d="M190 129C190 127.6 191.1 126.4 192.5 126.4C193.8 126.4 194.9 127.4 195 128.8C195 128.9 194.9 129 194.7 129H190.5C190.6 130.1 191.4 131 192.5 131C193.2 131 193.8 130.6 194.1 130.1C194.2 130 194.3 130 194.4 130C194.5 130.1 194.6 130.2 194.5 130.4C194.1 131.1 193.3 131.6 192.4 131.6C191.1 131.5 190 130.4 190 129ZM190.5 128.5H194.4C194.2 127.5 193.4 126.8 192.5 126.8C191.5 126.9 190.7 127.6 190.5 128.5Z" fill="#263238"/>
<path d="M198.1 126.6C198.1 126.7 198 126.9 197.8 126.9H197.1V130.6C197.1 130.9 197.4 131 197.5 131C197.6 131 197.8 131.1 197.8 131.3C197.8 131.4 197.7 131.6 197.5 131.6C197 131.6 196.6 131.2 196.6 130.7V127H196C195.7 127 195.7 126.9 195.7 126.7C195.7 126.6 195.7 126.4 196 126.4H196.6V124.5C196.6 124.4 196.7 124.2 196.9 124.2C197 124.2 197.2 124.3 197.2 124.5V126.4H197.9C198 126.4 198.1 126.5 198.1 126.6Z" fill="#263238"/>
<path d="M204 128.4C204 127.5 203.3 126.9 202.4 126.9C201.5 126.9 200.8 127.5 200.8 128.4V131.2C200.8 131.3 200.7 131.3 200.6 131.3C200.5 131.3 200.5 131.3 200.4 131.2V131.1V131V128.2V128.1V124.2C200.4 124.1 200.5 123.9 200.7 123.9C200.8 123.9 201 124 201 124.2V126.9C201.4 126.4 202 126.1 202.6 126.1C203.8 126.1 204.7 126.9 204.7 128.1V130.9C204.7 131 204.6 131.2 204.4 131.2C204.3 131.2 204.2 131.1 204.2 130.9V128.4H204Z" fill="#263238"/>
<path d="M208.9 126.4C210.2 126.4 211.3 127.6 211.3 129C211.3 130.4 210.2 131.6 208.9 131.6C207.6 131.6 206.5 130.4 206.5 129C206.4 127.6 207.5 126.4 208.9 126.4ZM208.9 131C209.9 131 210.8 130.1 210.8 128.9C210.8 127.8 209.9 126.8 208.9 126.8C207.9 126.8 207 127.7 207 128.9C206.9 130.1 207.8 131 208.9 131Z" fill="#263238"/>
<path d="M217.3 130.5C216.9 131.1 216.1 131.5 215.3 131.5C213.9 131.5 212.8 130.4 212.8 129C212.8 127.6 213.9 126.4 215.3 126.4C216.1 126.4 216.8 126.8 217.3 127.4V124.5C217.3 124.4 217.4 124.2 217.6 124.2C217.7 124.2 217.8 124.3 217.8 124.5V128.9V129V131.3C217.8 131.4 217.7 131.6 217.6 131.6C217.5 131.6 217.3 131.5 217.3 131.3V130.5ZM217.3 129V128.8C217.3 127.7 216.4 126.8 215.3 126.8C214.2 126.8 213.3 127.7 213.3 128.9C213.3 130 214.2 130.9 215.3 130.9C216.4 131 217.3 130.1 217.3 129Z" fill="#263238"/>
<path d="M133.4 75.4999H131.2C131.1 75.4999 130.9 75.3999 130.9 75.1999C130.9 75.0999 131 74.8999 131.2 74.8999H136.1C136.2 74.8999 136.4 74.9999 136.4 75.1999C136.4 75.2999 136.3 75.4999 136.1 75.4999H133.9V81.9999C133.9 82.0999 133.8 82.2999 133.6 82.2999C133.5 82.2999 133.3 82.1999 133.3 81.9999V75.4999H133.4Z" fill="#263238"/>
<path d="M138.9 77.2C140.2 77.2 141.3 78.4 141.3 79.8C141.3 81.2 140.2 82.4 138.9 82.4C137.6 82.4 136.5 81.2 136.5 79.8C136.5 78.4 137.6 77.2 138.9 77.2ZM138.9 81.8C139.9 81.8 140.8 80.9 140.8 79.7C140.8 78.6 139.9 77.6 138.9 77.6C137.9 77.6 137 78.5 137 79.7C137 80.9 137.9 81.8 138.9 81.8Z" fill="#263238"/>
<path d="M144.9 77.4999C144.9 77.5999 144.8 77.7999 144.6 77.7999H144V81.4999C144 81.7999 144.3 81.8999 144.4 81.8999C144.5 81.8999 144.7 81.9999 144.7 82.1999C144.7 82.2999 144.6 82.4999 144.4 82.4999C143.9 82.4999 143.5 82.0999 143.5 81.5999V77.8999H142.9C142.6 77.8999 142.6 77.7999 142.6 77.5999C142.6 77.4999 142.6 77.2999 142.9 77.2999H143.5V75.3999C143.5 75.2999 143.6 75.0999 143.8 75.0999C143.9 75.0999 144.1 75.1999 144.1 75.3999V77.2999H144.8C144.7 77.1999 144.9 77.3999 144.9 77.4999Z" fill="#263238"/>
<path d="M151.2 77.5V82.1C151.2 82.2 151.1 82.4 150.9 82.4C150.8 82.4 150.6 82.3 150.6 82.1V81.3C150.2 81.9 149.5 82.3 148.7 82.3C147.4 82.3 146.3 81.1 146.3 79.7C146.3 78.3 147.4 77.1 148.7 77.1C149.5 77.1 150.2 77.5 150.6 78.1V77.3C150.6 77.2 150.7 77 150.9 77C151.1 77.2 151.2 77.3 151.2 77.5ZM150.7 79.8C150.7 78.7 149.8 77.7 148.8 77.7C147.8 77.7 146.9 78.6 146.9 79.8C146.9 80.9 147.8 81.9 148.8 81.9C149.9 81.8 150.7 80.9 150.7 79.8Z" fill="#263238"/>
<path d="M153.6 75.3C153.6 75.2 153.7 75 153.9 75C154 75 154.2 75.1 154.2 75.3V82.1C154.2 82.2 154.1 82.4 153.9 82.4C153.8 82.4 153.6 82.3 153.6 82.1V75.3Z" fill="#263238"/>
<path d="M159.3 79.9V79.8V79.7V77.5C159.3 77.4 159.4 77.2 159.6 77.2C159.7 77.2 159.9 77.3 159.9 77.5V78.2C160.3 77.6 161 77.2 161.8 77.2C163.2 77.2 164.3 78.3 164.3 79.7C164.3 81.1 163.2 82.2 161.8 82.2C161 82.2 160.3 81.8 159.9 81.2V84.1C159.9 84.2 159.8 84.4 159.6 84.4C159.5 84.4 159.3 84.3 159.3 84.1V79.9ZM159.8 79.8C159.8 80.9 160.7 81.8 161.7 81.8C162.8 81.8 163.7 80.9 163.7 79.8C163.7 78.7 162.8 77.8 161.7 77.8C160.7 77.7 159.9 78.6 159.8 79.8Z" fill="#263238"/>
<path d="M166.2 77.5C166.2 77.4 166.3 77.2 166.5 77.2C166.6 77.2 166.7 77.3 166.7 77.5V78.6C166.7 78.6 166.7 78.5 166.8 78.5C167.2 77.9 167.9 77.2 168.8 77.2C168.9 77.2 169.1 77.3 169.1 77.5C169.1 77.6 169 77.8 168.8 77.8C168.1 77.8 167.7 78.2 167.3 78.6C167 79.1 166.8 79.6 166.7 79.8V79.9V82.1C166.7 82.2 166.6 82.4 166.5 82.4C166.4 82.4 166.2 82.3 166.2 82.1V77.5Z" fill="#263238"/>
<path d="M170.8 75.8C170.8 75.7 170.9 75.5 171.1 75.5C171.2 75.5 171.4 75.6 171.4 75.8V76C171.4 76.1 171.3 76.3 171.1 76.3C171 76.3 170.8 76.2 170.8 76V75.8ZM170.8 77.5C170.8 77.4 170.9 77.2 171.1 77.2C171.2 77.2 171.4 77.3 171.4 77.5V82.1C171.4 82.2 171.3 82.4 171.1 82.4C171 82.4 170.8 82.3 170.8 82.1V77.5Z" fill="#263238"/>
<path d="M173.3 79.7998C173.3 78.3998 174.5 77.2998 175.9 77.2998C176.5 77.2998 177.1 77.4998 177.5 77.8998C177.6 77.9998 177.6 78.0998 177.5 78.1998C177.4 78.2998 177.3 78.2998 177.2 78.1998C176.8 77.8998 176.4 77.6998 175.9 77.6998C174.7 77.6998 173.8 78.5998 173.8 79.7998C173.8 80.8998 174.7 81.8998 175.9 81.8998C176.4 81.8998 176.9 81.6998 177.2 81.4998C177.3 81.3998 177.5 81.3998 177.5 81.4998C177.6 81.5998 177.6 81.7998 177.4 81.8998C177 82.1998 176.4 82.3998 175.8 82.3998C174.5 82.2998 173.3 81.1998 173.3 79.7998Z" fill="#263238"/>
<path d="M179.2 79.8C179.2 78.4 180.3 77.2 181.7 77.2C183 77.2 184.1 78.2 184.2 79.6C184.2 79.7 184.1 79.8 183.9 79.8H179.7C179.8 80.9 180.6 81.8 181.7 81.8C182.4 81.8 183 81.4 183.3 80.9C183.4 80.8 183.5 80.8 183.6 80.8C183.7 80.9 183.8 81 183.7 81.2C183.3 81.9 182.5 82.4 181.6 82.4C180.3 82.3 179.2 81.2 179.2 79.8ZM179.7 79.4H183.6C183.4 78.4 182.6 77.7 181.7 77.7C180.7 77.7 179.9 78.4 179.7 79.4Z" fill="#263238"/>
<path d="M137.5 89.1001C138 89.1001 138.4 89.5001 138.4 90.0001V90.5001C139.6 90.6001 140.7 91.0001 141.6 91.6001C141.9 91.8001 142.2 92.1001 142.2 92.6001C142.2 93.2001 141.7 93.7001 141 93.7001C140.8 93.7001 140.6 93.6001 140.4 93.5001C139.7 93.1001 139 92.7001 138.2 92.6001V96.6001C141.4 97.4001 142.7 98.7001 142.7 100.9C142.7 103.2 140.9 104.7 138.2 105V106.3C138.2 106.8 137.8 107.2 137.3 107.2C136.8 107.2 136.4 106.8 136.4 106.3V105C134.8 104.8 133.4 104.3 132.1 103.4C131.7 103.2 131.5 102.8 131.5 102.4C131.5 101.8 132 101.3 132.6 101.3C132.9 101.3 133.1 101.4 133.3 101.5C134.3 102.2 135.2 102.7 136.4 102.9V98.8001C133.3 98.0001 131.9 96.9001 131.9 94.5001C131.9 92.3001 133.7 90.7001 136.3 90.5001V90.0001C136.6 89.5001 137 89.1001 137.5 89.1001ZM136.6 96.2001V92.5001C135.3 92.6001 134.6 93.3001 134.6 94.3001C134.6 95.2001 135 95.7001 136.6 96.2001ZM138.3 99.1001V102.9C139.6 102.8 140.4 102.1 140.4 101.1C140.4 100.2 139.9 99.6001 138.3 99.1001Z" fill="#24CCA7"/>
<path d="M154.8 100.1C154.8 102.8 152.6 105.1 149.8 105.1C147 105.1 144.8 102.9 144.8 100.1C144.8 98.4001 145.7 96.8001 147 95.9001C146.6 95.3001 146.3 94.6001 146.3 93.8001C146.3 91.9001 147.8 90.4001 149.8 90.4001C151.7 90.4001 153.2 91.9001 153.2 93.8001C153.2 94.6001 152.9 95.3001 152.5 95.9001C153.9 96.8001 154.8 98.3001 154.8 100.1ZM152.5 100.1C152.5 98.6001 151.3 97.4001 149.8 97.4001C148.3 97.4001 147.1 98.6001 147.1 100.1C147.1 101.6 148.3 102.8 149.8 102.8C151.3 102.8 152.5 101.5 152.5 100.1ZM148.6 93.8001C148.6 94.4001 149.1 95.0001 149.8 95.0001C150.4 95.0001 150.9 94.5001 150.9 93.8001C150.9 93.2001 150.4 92.7001 149.8 92.7001C149.1 92.7001 148.6 93.2001 148.6 93.8001Z" fill="#24CCA7"/>
<path d="M158.1 95.5001C158.1 92.7001 160.4 90.4001 163.2 90.4001C165.8 90.4001 168 92.4001 168.2 94.9001C168.2 95.3001 168.2 95.7001 168.2 96.1001C168.2 97.5001 168 99.0001 167.5 100.4C167 101.8 166.1 103.1 164.8 104C163.9 104.6 162.9 104.9 161.7 105C161.1 105 160.5 104.5 160.5 103.9C160.5 103.3 161 102.8 161.6 102.7C162.4 102.7 163 102.4 163.6 102.1C164.1 101.7 164.6 101.3 164.9 100.6C165 100.4 165.1 100.2 165.2 100.1C164.6 100.4 163.9 100.5 163.2 100.5C160.3 100.5 158.1 98.3001 158.1 95.5001ZM160.4 95.5001C160.4 97.0001 161.6 98.3001 163.2 98.3001C164.7 98.3001 165.9 97.0001 165.9 95.5001C165.9 94.0001 164.7 92.8001 163.2 92.8001C161.6 92.7001 160.4 93.9001 160.4 95.5001Z" fill="#24CCA7"/>
<path d="M171.5 106.9C172.5 106.6 173 105.9 172.9 105C172.3 104.8 171.7 104.3 171.7 103.6V103.4C171.7 102.6 172.3 102 173.1 102C174 102 174.6 102.7 174.6 103.8V104C174.6 105.4 174.2 106.4 173.6 107.1C173 107.6 172.2 108 171.6 108C171.2 108 171 107.7 171 107.4C171 107.2 171.2 107 171.5 106.9Z" fill="#24CCA7"/>
<path d="M176.1 95.5001C176.1 92.7001 178.4 90.4001 181.2 90.4001C183.8 90.4001 186 92.4001 186.2 94.9001C186.2 95.3001 186.2 95.7001 186.2 96.1001C186.2 97.5001 186 99.0001 185.5 100.4C185 101.8 184.1 103.1 182.8 104C181.9 104.6 180.9 104.9 179.7 105C179.1 105 178.5 104.5 178.5 103.9C178.5 103.3 179 102.8 179.6 102.7C180.4 102.7 181 102.4 181.6 102.1C182.1 101.7 182.6 101.3 182.9 100.6C183 100.4 183.1 100.2 183.2 100.1C182.6 100.4 181.9 100.5 181.2 100.5C178.4 100.5 176.1 98.3001 176.1 95.5001ZM178.4 95.5001C178.4 97.0001 179.6 98.3001 181.2 98.3001C182.7 98.3001 183.9 97.0001 183.9 95.5001C183.9 94.0001 182.7 92.8001 181.2 92.8001C179.6 92.7001 178.4 93.9001 178.4 95.5001Z" fill="#24CCA7"/>
<path d="M189.5 95.5001C189.5 92.7001 191.8 90.4001 194.6 90.4001C197.2 90.4001 199.4 92.4001 199.6 94.9001C199.6 95.3001 199.6 95.7001 199.6 96.1001C199.6 97.5001 199.4 99.0001 198.9 100.4C198.4 101.8 197.5 103.1 196.2 104C195.3 104.6 194.3 104.9 193.1 105C192.5 105 191.9 104.5 191.9 103.9C191.9 103.3 192.4 102.8 193 102.7C193.8 102.7 194.4 102.4 195 102.1C195.5 101.7 196 101.3 196.3 100.6C196.4 100.4 196.5 100.2 196.6 100.1C196 100.4 195.3 100.5 194.6 100.5C191.8 100.5 189.5 98.3001 189.5 95.5001ZM191.8 95.5001C191.8 97.0001 193 98.3001 194.6 98.3001C196.1 98.3001 197.3 97.0001 197.3 95.5001C197.3 94.0001 196.1 92.8001 194.6 92.8001C193 92.7001 191.8 93.9001 191.8 95.5001Z" fill="#24CCA7"/>
<path d="M166.9 47.4001C166.9 47.3001 167 47.1001 167.2 47.1001H169.2C170.3 47.1001 171.3 48.0001 171.3 49.2001C171.3 50.3001 170.4 51.3001 169.2 51.3001H167.4V54.2001C167.4 54.3001 167.3 54.5001 167.1 54.5001C167 54.5001 166.8 54.4001 166.8 54.2001V47.4001H166.9ZM169.2 50.9001C170.1 50.9001 170.8 50.2001 170.8 49.3001C170.8 48.4001 170.1 47.7001 169.2 47.7001H167.4V50.9001H169.2Z" fill="#263238"/>
<path d="M177.1 49.6001V54.2001C177.1 54.3001 177 54.5001 176.8 54.5001C176.7 54.5001 176.5 54.4001 176.5 54.2001V53.4001C176.1 54.0001 175.4 54.4001 174.6 54.4001C173.3 54.4001 172.2 53.2001 172.2 51.8001C172.2 50.4001 173.3 49.2001 174.6 49.2001C175.4 49.2001 176.1 49.6001 176.5 50.2001V49.4001C176.5 49.3001 176.6 49.1001 176.8 49.1001C177 49.4001 177.1 49.5001 177.1 49.6001ZM176.6 51.9001C176.6 50.8001 175.7 49.8001 174.7 49.8001C173.7 49.8001 172.8 50.7001 172.8 51.9001C172.8 53.0001 173.7 54.0001 174.7 54.0001C175.8 54.0001 176.6 53.1001 176.6 51.9001Z" fill="#263238"/>
<path d="M179.2 49.6001C179.2 49.5001 179.3 49.4001 179.4 49.4001C179.5 49.4001 179.7 49.5001 179.7 49.6001V52.4001C179.7 53.3001 180.4 54.0001 181.3 54.0001C182.2 54.0001 182.9 53.3001 182.9 52.4001V49.6001V49.5001L183 49.4001C183 49.4001 183.1 49.4001 183.1 49.5001L183.2 49.6001V49.7001V52.5001V52.6001V54.2001C183.2 55.5001 182.1 56.6001 180.8 56.6001C180.4 56.6001 180.1 56.5001 179.7 56.4001C179.6 56.3001 179.5 56.2001 179.6 56.1001C179.7 56.0001 179.8 55.9001 179.9 56.0001C180.2 56.1001 180.4 56.2001 180.7 56.2001C181.8 56.2001 182.6 55.4001 182.6 54.3001V54.0001C182.2 54.4001 181.7 54.7001 181 54.7001C179.9 54.7001 178.9 53.8001 178.9 52.6001V49.6001H179.2Z" fill="#263238"/>
<path d="M193.1 51.5001C193.1 50.6001 192.4 49.9001 191.5 49.9001C190.6 49.9001 189.9 50.6001 189.9 51.5001V54.3001C189.9 54.4001 189.8 54.4001 189.8 54.4001H189.7C189.7 54.4001 189.7 54.4001 189.6 54.4001V51.6001C189.6 50.7001 188.9 50.0001 188 50.0001C187.1 50.0001 186.4 50.7001 186.4 51.6001V54.4001C186.4 54.5001 186.4 54.6001 186.3 54.6001C186.3 54.6001 186.3 54.6001 186.2 54.6001C186.1 54.6001 186 54.5001 186 54.4001V54.3001V51.5001V51.4001V49.6001C186 49.5001 186.1 49.4001 186.2 49.4001C186.3 49.4001 186.5 49.5001 186.5 49.6001V50.1001C186.9 49.7001 187.4 49.4001 188.1 49.4001C188.9 49.4001 189.6 49.8001 189.9 50.5001C190.3 49.9001 191 49.4001 191.7 49.4001C192.8 49.4001 193.8 50.3001 193.8 51.5001V54.3001C193.8 54.4001 193.7 54.5001 193.5 54.5001C193.4 54.5001 193.3 54.4001 193.3 54.3001V51.5001H193.1Z" fill="#263238"/>
<path d="M195.3 51.9001C195.3 50.5001 196.4 49.3 197.8 49.3C199.1 49.3 200.2 50.3001 200.3 51.7001C200.3 51.8001 200.2 51.9001 200 51.9001H195.8C195.9 53.0001 196.7 53.9001 197.8 53.9001C198.5 53.9001 199.1 53.5 199.4 53C199.5 52.9 199.6 52.9001 199.7 52.9001C199.8 53.0001 199.9 53.1 199.8 53.3C199.4 54 198.6 54.5 197.7 54.5C196.4 54.5 195.3 53.3001 195.3 51.9001ZM195.9 51.5H199.8C199.6 50.5 198.8 49.8 197.9 49.8C196.9 49.9 196.1 50.6 195.9 51.5Z" fill="#263238"/>
<path d="M205.7 51.5001C205.7 50.6001 205 49.9001 204.1 49.9001C203.2 49.9001 202.5 50.6001 202.5 51.5001V54.3001C202.5 54.3001 202.5 54.4001 202.4 54.4001C202.4 54.5001 202.3 54.5001 202.2 54.5001H202.1C202 54.5001 202 54.4001 201.9 54.4001V54.3001V51.5001V51.4001V49.7001C201.9 49.6001 202 49.4001 202.2 49.4001C202.3 49.4001 202.4 49.5001 202.4 49.7001V50.2001C202.8 49.8001 203.3 49.5001 204 49.5001C205.1 49.5001 206.1 50.4001 206.1 51.6001V54.4001C206.1 54.5001 206 54.7001 205.8 54.7001C205.7 54.7001 205.6 54.6001 205.6 54.4001V51.5001H205.7Z" fill="#263238"/>
<path d="M210.3 49.6002C210.3 49.7002 210.2 49.9002 210 49.9002H209.3V53.6002C209.3 53.9002 209.6 54.0002 209.7 54.0002C209.8 54.0002 210 54.1002 210 54.3002C210 54.4002 209.9 54.6002 209.7 54.6002C209.2 54.6002 208.8 54.2002 208.8 53.7002V50.0002H208.2C208 50.0002 208 49.9002 208 49.7002C208 49.6002 208 49.4002 208.2 49.4002H208.8V47.5002C208.8 47.4002 208.9 47.2002 209 47.2002C209.1 47.2002 209.3 47.3002 209.3 47.5002V49.4002H210C210.1 49.4002 210.3 49.5002 210.3 49.6002Z" fill="#263238"/>
<path d="M216.2 54.5001C216 54.5001 215.9 54.4001 215.9 54.2001V47.4001C215.9 47.3001 216 47.1001 216.2 47.1001H217.5C219.5 47.1001 221.2 48.7001 221.2 50.8001C221.2 52.8001 219.6 54.4001 217.5 54.4001H216.2V54.5001ZM217.5 54.0001C219.2 54.0001 220.6 52.6001 220.6 50.9001C220.6 49.2001 219.2 47.8001 217.5 47.7001H216.4V54.0001H217.5Z" fill="#263238"/>
<path d="M226.6 49.6001V54.2001C226.6 54.3001 226.5 54.5001 226.4 54.5001C226.3 54.5001 226.1 54.4001 226.1 54.2001V53.4001C225.7 54.0001 225 54.4001 224.2 54.4001C222.9 54.4001 221.8 53.2001 221.8 51.8001C221.8 50.4001 222.9 49.2001 224.2 49.2001C225 49.2001 225.7 49.6001 226.1 50.2001V49.4001C226.1 49.3001 226.2 49.1001 226.4 49.1001C226.5 49.4001 226.6 49.5001 226.6 49.6001ZM226.1 51.9001C226.1 50.8001 225.2 49.8001 224.2 49.8001C223.2 49.8001 222.3 50.7001 222.3 51.9001C222.3 53.0001 223.2 54.0001 224.2 54.0001C225.3 54.0001 226.1 53.1001 226.1 51.9001Z" fill="#263238"/>
<path d="M230.6 49.6002C230.6 49.7002 230.5 49.9002 230.3 49.9002H229.6V53.6002C229.6 53.9002 229.9 54.0002 230 54.0002C230.1 54.0002 230.3 54.1002 230.3 54.3002C230.3 54.4002 230.2 54.6002 230 54.6002C229.5 54.6002 229.1 54.2002 229.1 53.7002V50.0002H228.5C228.3 50.0002 228.3 49.9002 228.3 49.7002C228.3 49.6002 228.3 49.4002 228.5 49.4002H229.1V47.5002C229.1 47.4002 229.2 47.2002 229.3 47.2002C229.4 47.2002 229.6 47.3002 229.6 47.5002V49.4002H230.3C230.5 49.4002 230.6 49.5002 230.6 49.6002Z" fill="#263238"/>
<path d="M237 49.6001V54.2001C237 54.3001 236.9 54.5001 236.7 54.5001C236.6 54.5001 236.5 54.4001 236.5 54.2001V53.4001C236.1 54.0001 235.4 54.4001 234.6 54.4001C233.3 54.4001 232.2 53.2001 232.2 51.8001C232.2 50.4001 233.3 49.2001 234.6 49.2001C235.4 49.2001 236.1 49.6001 236.5 50.2001V49.4001C236.5 49.3001 236.6 49.1001 236.7 49.1001C236.9 49.4001 237 49.5001 237 49.6001ZM236.5 51.9001C236.5 50.8001 235.6 49.8001 234.6 49.8001C233.6 49.8001 232.7 50.7001 232.7 51.9001C232.7 53.0001 233.6 54.0001 234.6 54.0001C235.6 54.0001 236.5 53.1001 236.5 51.9001Z" fill="#263238"/>
<path d="M136.1 53.7999L132.6 50.5999L136.1 47.3999L136.8 48.0999L134.2 50.5999L136.8 53.0999L136.1 53.7999Z" fill="#4A56E2"/>
<path d="M135.5 56.2C132.4 56.2 129.9 53.7 129.9 50.6C129.9 47.5 132.4 45 135.5 45C138.6 45 141.1 47.5 141.1 50.6C141.1 53.7 138.6 56.2 135.5 56.2ZM135.5 46C133 46 130.9 48 130.9 50.6C130.9 53.1 132.9 55.2 135.5 55.2C138 55.2 140.1 53.2 140.1 50.6C140.1 48.1 138 46 135.5 46Z" fill="#4A56E2"/>
<path d="M268.6 246.5C274.841 246.5 279.9 241.441 279.9 235.2C279.9 228.959 274.841 223.9 268.6 223.9C262.359 223.9 257.3 228.959 257.3 235.2C257.3 241.441 262.359 246.5 268.6 246.5Z" fill="#FFC727"/>
<path d="M265.3 242.4L261.1 235.9L262.9 234.7L265.5 238.9L273.8 228.5L275.4 229.8L265.3 242.4Z" fill="white"/>
<path d="M205.3 247C205.3 248.8 203.8 250.3 202 250.3C200.2 250.3 198.7 248.8 198.7 247C198.7 245.2 200.2 243.7 202 243.7C203.8 243.7 205.3 245.2 205.3 247Z" fill="#4A56E2"/>
<path d="M186.7 247C186.7 248.3 185.6 249.4 184.3 249.4C183 249.4 181.9 248.3 181.9 247C181.9 245.7 183 244.6 184.3 244.6C185.6 244.6 186.7 245.7 186.7 247Z" fill="#EBEBEB"/>
<path d="M222.2 247C222.2 248.3 221.1 249.4 219.8 249.4C218.5 249.4 217.4 248.3 217.4 247C217.4 245.7 218.5 244.6 219.8 244.6C221.1 244.6 222.2 245.7 222.2 247Z" fill="#EBEBEB"/>
<path d="M131.2 270.2C131.3 270.1 131.4 270.1 131.5 270.2C132 270.6 133 271.2 133.9 271.1C134.5 271.1 135.1 270.9 135.5 270.6C135.9 270.3 136.1 269.9 136.1 269.5C136.1 269.1 135.9 268.8 135.5 268.5C135.1 268.2 134.5 268 133.8 267.9C133.1 267.8 132.5 267.6 132.1 267.3C131.7 267 131.3 266.6 131.3 266C131.3 265.4 131.6 265 132.1 264.6C132.6 264.3 133.2 264.1 133.9 264.1C134.9 264.1 135.6 264.6 136.2 264.9C136.3 265 136.3 265.1 136.3 265.2C136.2 265.3 136.1 265.3 136 265.3C135.4 264.9 134.8 264.5 134 264.5C133.4 264.5 132.9 264.7 132.5 264.9C132.1 265.2 131.9 265.5 131.9 265.9C131.9 266.3 132.1 266.5 132.4 266.8C132.8 267.1 133.3 267.2 134 267.4C134.7 267.5 135.4 267.7 135.9 268.1C136.4 268.4 136.7 268.9 136.7 269.5C136.7 270.1 136.4 270.6 135.9 271C135.4 271.4 134.8 271.6 134 271.6C132.9 271.6 131.9 271 131.3 270.5C131.1 270.5 131.1 270.3 131.2 270.2Z" fill="#263238"/>
<path d="M142.7 266.8V271.4C142.7 271.5 142.6 271.7 142.4 271.7C142.3 271.7 142.1 271.6 142.1 271.4V270.6C141.7 271.2 141 271.6 140.2 271.6C138.9 271.6 137.8 270.4 137.8 269C137.8 267.6 138.9 266.4 140.2 266.4C141 266.4 141.7 266.8 142.1 267.4V266.6C142.1 266.5 142.2 266.3 142.4 266.3C142.5 266.5 142.7 266.6 142.7 266.8ZM142.2 269.1C142.2 268 141.3 267 140.3 267C139.3 267 138.4 267.9 138.4 269.1C138.4 270.2 139.3 271.2 140.3 271.2C141.3 271.1 142.2 270.2 142.2 269.1Z" fill="#263238"/>
<path d="M146.3 271.6L146.2 271.5L144.3 266.9C144.2 266.8 144.3 266.6 144.4 266.6C144.5 266.5 144.7 266.6 144.7 266.7L146.4 270.7L148.1 266.7C148.1 266.6 148.3 266.5 148.4 266.6C148.5 266.7 148.6 266.8 148.5 266.9L146.6 271.4C146.6 271.4 146.6 271.5 146.5 271.5C146.5 271.6 146.4 271.6 146.3 271.6C146.4 271.6 146.4 271.6 146.3 271.6Z" fill="#263238"/>
<path d="M150 269.1C150 267.7 151.1 266.5 152.5 266.5C153.8 266.5 154.9 267.5 155 268.9C155 269 154.9 269.1 154.7 269.1H150.5C150.6 270.2 151.4 271.1 152.5 271.1C153.2 271.1 153.8 270.7 154.1 270.2C154.2 270.1 154.3 270.1 154.4 270.1C154.5 270.2 154.6 270.3 154.5 270.5C154.1 271.2 153.3 271.7 152.4 271.7C151.1 271.6 150 270.5 150 269.1ZM150.6 268.7H154.5C154.3 267.7 153.5 267 152.6 267C151.5 267 150.7 267.7 150.6 268.7Z" fill="#263238"/>
<path d="M159.5 269C159.5 267.6 160.7 266.5 162.1 266.5C162.7 266.5 163.3 266.7 163.7 267.1C163.8 267.2 163.8 267.3 163.7 267.4C163.6 267.5 163.5 267.5 163.4 267.4C163 267.1 162.6 266.9 162.1 266.9C160.9 266.9 160 267.8 160 269C160 270.1 160.9 271.1 162.1 271.1C162.6 271.1 163.1 270.9 163.4 270.7C163.5 270.6 163.7 270.6 163.7 270.7C163.8 270.8 163.8 271 163.6 271.1C163.2 271.4 162.6 271.6 162 271.6C160.7 271.6 159.5 270.5 159.5 269Z" fill="#263238"/>
<path d="M170.1 266.8V271.4C170.1 271.5 170 271.7 169.8 271.7C169.7 271.7 169.5 271.6 169.5 271.4V270.6C169.1 271.2 168.4 271.6 167.6 271.6C166.3 271.6 165.2 270.4 165.2 269C165.2 267.6 166.3 266.4 167.6 266.4C168.4 266.4 169.1 266.8 169.5 267.4V266.6C169.5 266.5 169.6 266.3 169.8 266.3C170 266.5 170.1 266.6 170.1 266.8ZM169.6 269.1C169.6 268 168.7 267 167.7 267C166.7 267 165.8 267.9 165.8 269.1C165.8 270.2 166.7 271.2 167.7 271.2C168.8 271.1 169.6 270.2 169.6 269.1Z" fill="#263238"/>
<path d="M172.3 266.8C172.3 266.7 172.4 266.5 172.6 266.5C172.7 266.5 172.8 266.6 172.8 266.8V267.9C172.8 267.9 172.8 267.8 172.9 267.8C173.3 267.2 174 266.5 174.9 266.5C175 266.5 175.2 266.6 175.2 266.8C175.2 266.9 175.1 267 174.9 267C174.2 267 173.8 267.4 173.4 267.8C173.1 268.3 172.9 268.8 172.8 269V269.1V271.3C172.8 271.4 172.7 271.6 172.6 271.6C172.5 271.6 172.3 271.5 172.3 271.3V266.8Z" fill="#263238"/>
<path d="M180.7 270.6C180.3 271.2 179.5 271.6 178.7 271.6C177.3 271.6 176.2 270.5 176.2 269.1C176.2 267.7 177.3 266.5 178.7 266.5C179.5 266.5 180.2 266.9 180.7 267.5V264.6C180.7 264.5 180.8 264.4 181 264.4C181.1 264.4 181.3 264.5 181.3 264.6V269V269.1V271.4C181.3 271.5 181.2 271.7 181 271.7C180.9 271.7 180.7 271.6 180.7 271.4V270.6ZM180.7 269.2V269C180.7 267.9 179.8 267 178.7 267C177.6 267 176.7 267.9 176.7 269.1C176.7 270.2 177.6 271.1 178.7 271.1C179.8 271.1 180.7 270.2 180.7 269.2Z" fill="#263238"/>
<path d="M190.3 268.6C190.3 267.7 189.6 267 188.7 267C187.8 267 187.1 267.7 187.1 268.6V271.4C187.1 271.4 187.1 271.5 187 271.5C187 271.6 186.9 271.6 186.8 271.6H186.7C186.6 271.6 186.6 271.5 186.5 271.5V271.4V268.6V268.5V266.8C186.5 266.7 186.6 266.5 186.8 266.5C186.9 266.5 187 266.6 187 266.8V267.3C187.4 266.9 187.9 266.6 188.6 266.6C189.7 266.6 190.7 267.5 190.7 268.7V271.5C190.7 271.6 190.6 271.8 190.4 271.8C190.3 271.8 190.1 271.7 190.1 271.5V268.6H190.3Z" fill="#263238"/>
<path d="M193 266.7C193 266.6 193.1 266.5 193.3 266.5C193.4 266.5 193.6 266.6 193.6 266.7V269.5C193.6 270.4 194.3 271.1 195.2 271.1C196.1 271.1 196.8 270.4 196.8 269.5V266.7C196.8 266.6 196.9 266.5 197.1 266.5C197.2 266.5 197.4 266.6 197.4 266.7V269.5C197.4 270.6 196.5 271.6 195.3 271.6C194.2 271.6 193.2 270.7 193.2 269.5V266.7H193Z" fill="#263238"/>
<path d="M206.8 268.6C206.8 267.7 206.1 267 205.2 267C204.3 267 203.6 267.7 203.6 268.6V271.4C203.6 271.5 203.5 271.5 203.5 271.5H203.4C203.4 271.5 203.4 271.5 203.3 271.5V268.7C203.3 267.8 202.6 267.1 201.7 267.1C200.8 267.1 200.1 267.8 200.1 268.7V271.5C200.1 271.6 200.1 271.7 200 271.7C200 271.7 200 271.7 199.9 271.7C199.8 271.7 199.7 271.6 199.7 271.5V271.4V268.6V268.5V266.7C199.7 266.6 199.8 266.5 199.9 266.5C200 266.5 200.2 266.6 200.2 266.7V267.2C200.6 266.8 201.1 266.5 201.8 266.5C202.6 266.5 203.3 266.9 203.6 267.6C204 267 204.7 266.5 205.4 266.5C206.5 266.5 207.5 267.4 207.5 268.6V271.4C207.5 271.5 207.4 271.6 207.2 271.6C207.1 271.6 207 271.5 207 271.4V268.6H206.8Z" fill="#263238"/>
<path d="M209.4 269.2V269.1V269V264.6C209.4 264.5 209.5 264.4 209.6 264.4C209.7 264.4 209.9 264.5 209.9 264.6V267.5C210.3 266.9 211.1 266.5 211.9 266.5C213.3 266.5 214.4 267.6 214.4 269.1C214.4 270.5 213.3 271.6 211.9 271.6C211.1 271.6 210.4 271.2 209.9 270.6V271.3C209.9 271.4 209.8 271.6 209.6 271.6C209.5 271.6 209.4 271.5 209.4 271.3V269.2ZM209.9 269.1C209.9 270.2 210.8 271.1 211.9 271.1C213 271.1 213.9 270.2 213.9 269.1C213.9 268 213 267 211.9 267C210.8 267 210 267.9 209.9 269.1Z" fill="#263238"/>
<path d="M215.9 269.1C215.9 267.7 217 266.5 218.4 266.5C219.7 266.5 220.8 267.5 220.9 268.9C220.9 269 220.8 269.1 220.6 269.1H216.4C216.5 270.2 217.3 271.1 218.4 271.1C219.1 271.1 219.7 270.7 220 270.2C220.1 270.1 220.2 270.1 220.3 270.1C220.4 270.2 220.5 270.3 220.4 270.5C220 271.2 219.2 271.7 218.3 271.7C217 271.6 215.9 270.5 215.9 269.1ZM216.5 268.7H220.4C220.2 267.7 219.4 267 218.5 267C217.5 267 216.7 267.7 216.5 268.7Z" fill="#263238"/>
<path d="M222.4 266.8C222.4 266.7 222.5 266.5 222.7 266.5C222.8 266.5 222.9 266.6 222.9 266.8V267.9C222.9 267.9 222.9 267.8 223 267.8C223.4 267.2 224.1 266.5 225 266.5C225.1 266.5 225.2 266.6 225.2 266.8C225.2 266.9 225.1 267 225 267C224.3 267 223.9 267.4 223.5 267.8C223.2 268.3 223 268.8 222.9 269V269.1V271.3C222.9 271.4 222.8 271.6 222.7 271.6C222.6 271.6 222.4 271.5 222.4 271.3V266.8Z" fill="#263238"/>
<path opacity="0.5" d="M266.4 273.5H252.4C249.6 273.5 247.2 271.2 247.2 268.3V267.8C247.2 265 249.5 262.6 252.4 262.6H266.4C269.2 262.6 271.6 264.9 271.6 267.8V268.3C271.5 271.2 269.2 273.5 266.4 273.5Z" fill="#4A56E2"/>
<path d="M270.6 268.1C270.6 270.6 268.6 272.7 266 272.7C263.5 272.7 261.4 270.7 261.4 268.1C261.4 265.6 263.4 263.5 266 263.5C268.6 263.5 270.6 265.6 270.6 268.1Z" fill="#4A56E2"/>
<path d="M254.6 298.7H149.4C146.086 298.7 143.4 301.386 143.4 304.7V315.2C143.4 318.514 146.086 321.2 149.4 321.2H254.6C257.914 321.2 260.6 318.514 260.6 315.2V304.7C260.6 301.386 257.914 298.7 254.6 298.7Z" fill="#24CCA7"/>
<path d="M153.5 305.7C153.5 305.6 153.6 305.4 153.8 305.4H155.8C156.9 305.4 157.9 306.3 157.9 307.5C157.9 308.7 157 309.6 155.8 309.6H154V312.5C154 312.6 153.9 312.7 153.7 312.7C153.6 312.7 153.4 312.6 153.4 312.5V305.7H153.5ZM155.8 309.1C156.7 309.1 157.4 308.4 157.4 307.5C157.4 306.6 156.7 305.9 155.8 305.9H154V309.1H155.8Z" fill="white"/>
<path d="M159.5 307.9C159.5 307.8 159.6 307.7 159.8 307.7C159.9 307.7 160 307.8 160 307.9V309C160 309 160 308.9 160.1 308.9C160.5 308.3 161.2 307.6 162.1 307.6C162.2 307.6 162.4 307.7 162.4 307.8C162.4 307.9 162.3 308.1 162.1 308.1C161.4 308.1 161 308.5 160.6 308.9C160.3 309.4 160.1 309.9 160 310.1V310.2V312.4C160 312.5 159.9 312.6 159.8 312.6C159.7 312.6 159.5 312.5 159.5 312.4V307.9Z" fill="white"/>
<path d="M166 307.6C167.3 307.6 168.4 308.8 168.4 310.2C168.4 311.6 167.3 312.8 166 312.8C164.7 312.8 163.6 311.6 163.6 310.2C163.5 308.8 164.6 307.6 166 307.6ZM166 312.2C167 312.2 167.9 311.3 167.9 310.1C167.9 309 167 308 166 308C165 308 164.1 308.9 164.1 310.1C164.1 311.3 164.9 312.2 166 312.2Z" fill="white"/>
<path d="M170 310.2C170 308.8 171.2 307.7 172.6 307.7C173.2 307.7 173.8 307.9 174.2 308.3C174.3 308.4 174.3 308.5 174.2 308.6C174.1 308.7 174 308.7 173.9 308.6C173.5 308.3 173.1 308.1 172.6 308.1C171.4 308.1 170.5 309 170.5 310.2C170.5 311.3 171.4 312.3 172.6 312.3C173.1 312.3 173.6 312.1 173.9 311.9C174 311.8 174.2 311.8 174.2 311.9C174.3 312 174.3 312.2 174.1 312.3C173.7 312.6 173.1 312.8 172.5 312.8C171.1 312.7 170 311.6 170 310.2Z" fill="white"/>
<path d="M175.8 310.2C175.8 308.8 176.9 307.6 178.3 307.6C179.6 307.6 180.7 308.6 180.8 310C180.8 310.1 180.7 310.2 180.5 310.2H176.3C176.4 311.3 177.2 312.2 178.3 312.2C179 312.2 179.6 311.8 179.9 311.3C180 311.2 180.1 311.2 180.2 311.2C180.3 311.3 180.4 311.4 180.3 311.6C179.9 312.3 179.1 312.8 178.2 312.8C176.9 312.7 175.8 311.6 175.8 310.2ZM176.3 309.8H180.2C180 308.8 179.2 308.1 178.3 308.1C177.3 308.1 176.5 308.8 176.3 309.8Z" fill="white"/>
<path d="M182.1 310.2C182.1 308.8 183.2 307.6 184.6 307.6C185.9 307.6 187 308.6 187.1 310C187.1 310.1 187 310.2 186.8 310.2H182.6C182.7 311.3 183.5 312.2 184.6 312.2C185.3 312.2 185.9 311.8 186.2 311.3C186.3 311.2 186.4 311.2 186.5 311.2C186.6 311.3 186.7 311.4 186.6 311.6C186.2 312.3 185.4 312.8 184.5 312.8C183.2 312.7 182.1 311.6 182.1 310.2ZM182.7 309.8H186.6C186.4 308.8 185.6 308.1 184.7 308.1C183.6 308.1 182.8 308.8 182.7 309.8Z" fill="white"/>
<path d="M192.9 311.7C192.5 312.3 191.7 312.7 190.9 312.7C189.5 312.7 188.4 311.6 188.4 310.2C188.4 308.8 189.5 307.6 190.9 307.6C191.7 307.6 192.4 308 192.9 308.6V305.7C192.9 305.6 193 305.4 193.2 305.4C193.3 305.4 193.5 305.5 193.5 305.7V310.1V310.2V312.5C193.5 312.6 193.4 312.7 193.2 312.7C193.1 312.7 192.9 312.6 192.9 312.5V311.7ZM192.9 310.3V310.1C192.9 309 192 308.1 190.9 308.1C189.8 308.1 188.9 309 188.9 310.2C188.9 311.3 189.8 312.2 190.9 312.2C192 312.2 192.9 311.3 192.9 310.3Z" fill="white"/>
<path d="M200.7 307.9C200.7 308 200.6 308.2 200.4 308.2H199.7V311.9C199.7 312.2 200 312.3 200.1 312.3C200.2 312.3 200.4 312.4 200.4 312.6C200.4 312.7 200.3 312.8 200.1 312.8C199.6 312.8 199.2 312.4 199.2 311.9V308.2H198.6C198.3 308.2 198.3 308.1 198.3 307.9C198.3 307.8 198.3 307.6 198.6 307.6H199.2V305.7C199.2 305.6 199.3 305.4 199.5 305.4C199.6 305.4 199.8 305.5 199.8 305.7V307.6H200.5C200.5 307.6 200.7 307.7 200.7 307.9Z" fill="white"/>
<path d="M205.1 307.6C206.4 307.6 207.5 308.8 207.5 310.2C207.5 311.6 206.4 312.8 205.1 312.8C203.8 312.8 202.7 311.6 202.7 310.2C202.7 308.8 203.7 307.6 205.1 307.6ZM205.1 312.2C206.1 312.2 207 311.3 207 310.1C207 309 206.1 308 205.1 308C204.1 308 203.2 308.9 203.2 310.1C203.2 311.3 204 312.2 205.1 312.2Z" fill="white"/>
<path d="M212.2 310.2C212.2 308.8 213.4 307.7 214.8 307.7C215.4 307.7 216 307.9 216.4 308.3C216.5 308.4 216.5 308.5 216.4 308.6C216.3 308.7 216.2 308.7 216.1 308.6C215.7 308.3 215.3 308.1 214.8 308.1C213.6 308.1 212.7 309 212.7 310.2C212.7 311.3 213.6 312.3 214.8 312.3C215.3 312.3 215.8 312.1 216.1 311.9C216.2 311.8 216.4 311.8 216.4 311.9C216.5 312 216.5 312.2 216.3 312.3C215.9 312.6 215.3 312.8 214.7 312.8C213.4 312.7 212.2 311.6 212.2 310.2Z" fill="white"/>
<path d="M220.5 307.6C221.8 307.6 222.9 308.8 222.9 310.2C222.9 311.6 221.8 312.8 220.5 312.8C219.2 312.8 218.1 311.6 218.1 310.2C218.1 308.8 219.2 307.6 220.5 307.6ZM220.5 312.2C221.5 312.2 222.4 311.3 222.4 310.1C222.4 309 221.5 308 220.5 308C219.5 308 218.6 308.9 218.6 310.1C218.6 311.3 219.5 312.2 220.5 312.2Z" fill="white"/>
<path d="M228.5 309.7C228.5 308.8 227.8 308.1 226.9 308.1C226 308.1 225.3 308.8 225.3 309.7V312.5C225.3 312.5 225.3 312.6 225.2 312.6C225.2 312.7 225.1 312.7 225 312.7H224.9C224.8 312.7 224.8 312.6 224.7 312.6V312.5V309.7V309.6V307.9C224.7 307.8 224.8 307.7 224.9 307.7C225 307.7 225.1 307.8 225.1 307.9V308.4C225.5 308 226 307.7 226.7 307.7C227.8 307.7 228.8 308.6 228.8 309.8V312.6C228.8 312.7 228.7 312.8 228.5 312.8C228.4 312.8 228.3 312.7 228.3 312.6V309.7H228.5Z" fill="white"/>
<path d="M233.5 305.7C233.5 305.8 233.4 306 233.3 306C232.9 306 232.8 306.1 232.7 306.2C232.6 306.3 232.5 306.6 232.5 307V307.5H233.2C233.3 307.5 233.5 307.6 233.5 307.7C233.5 307.8 233.4 308 233.2 308H232.5V312.4C232.5 312.5 232.4 312.6 232.2 312.6C232.1 312.6 231.9 312.5 231.9 312.4V308H231.2C231.1 308 230.9 307.9 230.9 307.7C230.9 307.6 231 307.5 231.2 307.5H231.9V307C231.9 306.5 232 306.1 232.2 305.8C232.4 305.5 232.8 305.4 233.2 305.4C233.4 305.4 233.5 305.5 233.5 305.7Z" fill="white"/>
<path d="M235.1 306.2C235.1 306.1 235.2 305.9 235.4 305.9C235.5 305.9 235.7 306 235.7 306.2V306.4C235.7 306.5 235.6 306.7 235.4 306.7C235.3 306.7 235.1 306.6 235.1 306.4V306.2ZM235.1 307.9C235.1 307.8 235.2 307.6 235.4 307.6C235.5 307.6 235.7 307.7 235.7 307.9V312.5C235.7 312.6 235.6 312.7 235.4 312.7C235.3 312.7 235.1 312.6 235.1 312.5V307.9Z" fill="white"/>
<path d="M238 307.9C238 307.8 238.1 307.7 238.3 307.7C238.4 307.7 238.5 307.8 238.5 307.9V309C238.5 309 238.5 308.9 238.6 308.9C239 308.3 239.7 307.6 240.6 307.6C240.7 307.6 240.8 307.7 240.8 307.8C240.8 307.9 240.7 308.1 240.6 308.1C239.9 308.1 239.5 308.5 239.1 308.9C238.8 309.4 238.6 309.9 238.5 310.1V310.2V312.4C238.5 312.5 238.4 312.6 238.3 312.6C238.2 312.6 238 312.5 238 312.4V307.9Z" fill="white"/>
<path d="M249.9 309.7C249.9 308.8 249.2 308.1 248.3 308.1C247.4 308.1 246.7 308.8 246.7 309.7V312.5C246.7 312.6 246.6 312.6 246.6 312.6H246.5C246.5 312.6 246.5 312.6 246.4 312.6V309.8C246.4 308.9 245.7 308.2 244.8 308.2C243.9 308.2 243.2 308.9 243.2 309.8V312.6C243.2 312.7 243.2 312.8 243.1 312.8C243.1 312.8 243.1 312.8 243 312.8C242.9 312.8 242.8 312.7 242.8 312.6V312.5V309.7V309.6V307.8C242.8 307.7 242.9 307.6 243 307.6C243.1 307.6 243.3 307.7 243.3 307.8V308.3C243.7 307.9 244.2 307.6 244.9 307.6C245.7 307.6 246.4 308 246.7 308.7C247.1 308.1 247.8 307.6 248.5 307.6C249.6 307.6 250.6 308.5 250.6 309.7V312.5C250.6 312.6 250.5 312.7 250.3 312.7C250.2 312.7 250.1 312.6 250.1 312.5V309.7H249.9Z" fill="white"/>
<path d="M264.6 381.1C267 381.5 331.7 372.2 333.9 370.3C334.8 369.6 334 360.1 332.6 348.6C332.6 348.5 332.6 348.4 332.6 348.2C332.3 345.8 324.1 306.7 324.1 306.7L280.8 312.8L290.8 353.7L290.9 354.4C290.9 354.4 267.7 369 265.5 371.4C263.3 373.9 262.2 380.7 264.6 381.1Z" fill="#F7A9A0"/>
<path d="M333.9 370.3C331.7 372.2 267 381.6 264.6 381.1C262.2 380.7 263.3 373.9 265.5 371.5C267.7 369.1 290.9 354.5 290.9 354.5L290.8 353.8L289.7 349.1L331.6 342.8C331.9 344.5 332.6 347.9 332.6 348.3C332.6 348.4 332.6 348.5 332.6 348.7C334 360.1 334.8 369.6 333.9 370.3Z" fill="#FFC727"/>
<path d="M264.6 381.1C265.8 381.3 283.4 379 300.6 376.4C304.1 375.9 307.5 375.3 310.8 374.8C323 372.9 333.1 371 334 370.3C334.9 369.6 334.1 360.3 332.8 349.1C332.8 348.9 332.8 348.8 332.7 348.6C332.7 348.5 332.7 348.4 332.7 348.2L290.9 353.7L291 354.4C291 354.4 267.8 369 265.6 371.4C263.3 373.9 262.2 380.7 264.6 381.1Z" fill="#A6A6A6"/>
<path d="M265 378.5C275.9 376.7 319.9 370.3 330.8 369.3C330.9 369.3 330.9 369.4 330.8 369.4C320.1 371.5 276 377.5 265.1 378.7C264.8 378.7 264.7 378.6 265 378.5Z" fill="#263238"/>
<path d="M286.2 354.6C290.4 353.2 295.7 353.1 299.4 355.7C299.5 355.8 299.4 356 299.3 356C294.9 355.3 290.8 355 286.3 355.2C285.9 355.2 285.9 354.7 286.2 354.6Z" fill="#263238"/>
<path d="M283.3 356.9C287.5 355.5 292.8 355.4 296.5 358C296.6 358.1 296.5 358.3 296.4 358.3C292 357.6 287.9 357.3 283.4 357.5C283.1 357.5 283 357 283.3 356.9Z" fill="#263238"/>
<path d="M280.5 359.3C284.7 357.9 290 357.8 293.7 360.4C293.8 360.5 293.7 360.7 293.6 360.7C289.2 360 285.1 359.7 280.6 359.9C280.3 359.8 280.2 359.4 280.5 359.3Z" fill="#263238"/>
<path d="M284.6 346.6L333.3 339.9C333.3 339.9 321.2 256.9 321.6 255C322.1 252.5 350.6 136.1 350.6 136.1H310.7C310.7 136.1 277.9 244.1 276.6 254.5C274.4 271.3 284.6 346.6 284.6 346.6Z" fill="#37474F"/>
<path d="M286.8 336.7C295.1 335 325.4 331.4 328.7 331.5C328.8 331.5 328.8 331.6 328.7 331.6C325.5 332.5 299.5 336.1 286.8 336.9C286.7 336.9 286.7 336.7 286.8 336.7Z" fill="#263238"/>
<path d="M341.4 145C340.4 147.9 339.6 150.8 338.7 153.6C337.8 156.5 337 159.4 336.2 162.3C334.5 168 332.9 173.8 331.3 179.5C328 191.1 324.9 202.7 321.8 214.4C320.3 220.2 318.8 225.9 317.3 231.7C315.8 237.5 314.2 243.3 312.9 249.1C312.3 251.9 311.9 254.6 312 257.5C312.2 260.4 312.7 263.2 313.2 266.1C314.2 272 315.1 278 316.1 283.9C318 295.9 320.1 307.9 322.1 319.9C322.4 321.4 322.6 322.8 322.9 324.3C322.9 324.4 323.1 324.4 323.1 324.3C321.5 312.4 319.5 300.5 317.6 288.6C316.7 282.7 315.7 276.9 314.8 271C314.3 267.9 313.8 264.9 313.3 261.8C312.9 258.9 312.6 255.9 313 253C313.4 250.1 314.2 247.3 314.9 244.5C315.6 241.6 316.3 238.8 317.1 235.9C318.6 230.1 320.1 224.3 321.6 218.6C324.6 207 327.8 195.4 330.9 183.9C334.1 172.4 337.3 160.9 340.5 149.4C340.9 148 341.3 146.6 341.7 145.1C341.5 145 341.4 144.9 341.4 145Z" fill="#263238"/>
<path d="M306.3 392C308.6 392.7 374 391.5 376.4 389.9C377.3 389.3 377.7 379.8 377.9 368.2C377.9 368.1 377.9 368 377.9 367.8C377.9 365.4 376.6 325.6 376.6 325.6L333.9 326.3L335.8 368.2V368.9C335.8 368.9 311 380.6 308.5 382.6C305.9 384.7 304 391.3 306.3 392Z" fill="#F7A9A0"/>
<path d="M378 363.3C378 364.8 378 366.4 378 367.9V368.3C377.9 379.8 377.5 389.4 376.5 390C374.1 391.6 308.7 392.8 306.4 392.1C304.1 391.4 306 384.8 308.5 382.7C311 380.6 335.8 369 335.8 369V368.3L335.6 363.8C343.1 363.6 364.7 363.4 378 363.3Z" fill="#FFC727"/>
<path d="M306.3 392C308.6 392.7 374 391.5 376.4 389.9C377.3 389.3 377.7 379.8 377.9 368.2C377.9 368.1 377.9 368 377.9 367.8L335.7 368.1V368.8C335.7 368.8 310.9 380.5 308.4 382.5C305.9 384.7 304 391.3 306.3 392Z" fill="#A6A6A6"/>
<path d="M307 389.4C318 388.9 362.5 388.1 373.4 388.4C373.5 388.4 373.5 388.5 373.4 388.5C362.5 389.2 318 389.7 307 389.6C306.8 389.6 306.8 389.4 307 389.4Z" fill="#263238"/>
<path d="M331 368.4C335.3 367.5 340.6 368.1 344 371.1C344.1 371.2 344 371.4 343.8 371.4C339.5 370.1 335.5 369.3 331 369C330.8 368.9 330.7 368.4 331 368.4Z" fill="#263238"/>
<path d="M328 370.3C332.3 369.4 337.6 370 341 373C341.1 373.1 341 373.3 340.8 373.3C336.5 372 332.5 371.2 328 370.9C327.7 370.8 327.6 370.4 328 370.3Z" fill="#263238"/>
<path d="M324.9 372.2C329.2 371.3 334.5 371.9 337.9 374.9C338 375 337.9 375.2 337.7 375.2C333.4 373.9 329.4 373.1 324.9 372.8C324.6 372.8 324.5 372.3 324.9 372.2Z" fill="#263238"/>
<path d="M311.8 136.1C311.8 136.1 312.7 155.2 317.1 170.3C317.4 171.6 317.8 172.8 318.2 174C318.2 174 319.9 174 326.9 178.2L332.7 361.1L379.8 360.6C379.8 360.6 372.3 263.7 372.3 257.5C372.4 247.5 366.9 179.9 367.5 178.2C373.3 160.7 363.7 136.1 363.7 136.1H311.8Z" fill="#37474F"/>
<path d="M334.3 352.3C347.6 351.5 373.3 351.3 376.5 351.8C376.6 351.8 376.6 351.9 376.5 351.9C373.2 352.5 342 353.1 334.3 352.5C334.2 352.5 334.2 352.4 334.3 352.3Z" fill="#263238"/>
<path d="M331.4 275.9C330.8 254.9 330.1 234 329.3 213C328.8 201.2 328.3 189.4 327.6 177.5C327.6 177.1 326.9 177.1 327 177.5C327.5 198.6 328.3 219.6 329 240.7C329.7 261.7 330.4 282.6 331.1 303.6C331.5 315.4 331.9 327.2 332.4 339.1C332.4 339.3 332.7 339.3 332.7 339.1C332.5 318 332 297 331.4 275.9Z" fill="#263238"/>
<path d="M368.2 305.2C367.2 291.5 366.2 277.7 365.1 264C364.1 250.3 363.1 236.5 362 222.8C361.5 215.9 361 209.1 360.5 202.2C360.2 198.8 360 195.3 359.7 191.9C359.4 188.5 359 185.1 359.1 181.7C359.2 178 360.8 174.7 361.7 171.1C362.5 167.7 362.8 164.2 362.8 160.8C362.7 153.6 361.1 146.6 359.6 139.6C359.5 139.2 358.9 139.4 359 139.8C360.5 146.2 361.9 152.7 362.2 159.3C362.3 162.6 362.2 165.9 361.5 169.1C360.9 172.2 359.6 175.1 358.9 178.2C358.1 181.4 358.6 184.6 358.8 187.9C359.1 191.3 359.3 194.8 359.5 198.2C360 204.9 360.5 211.7 361 218.4C363 245.8 365 273.1 367.2 300.5C368.4 315.9 369.4 331.3 370.9 346.7C370.9 346.8 371.1 346.8 371.1 346.7C370.3 332.7 369.2 318.9 368.2 305.2Z" fill="#263238"/>
<path d="M358.6 156.8C357.8 156.5 356.9 156.4 356.1 156.2C355.2 156 354.4 155.7 353.6 155.3C352.1 154.6 350.5 153.7 349.2 152.7C347.8 151.6 347 150.2 346.4 148.6C346 147.8 345.7 146.9 345.4 146C345.2 145.6 345.1 145.2 344.9 144.7C344.8 144.5 344.4 143.6 344.3 143.4H344.4V143.3C344.3 143.2 344.3 143.2 344.2 143.2C344.2 143.2 344.1 143.2 344.1 143.3C343.9 143.6 344.1 143.9 344.2 144.2C344.3 144.8 344.5 145.3 344.6 145.9C344.9 146.9 345.1 147.9 345.4 148.8C346 150.6 346.8 152.3 348.2 153.5C349.6 154.7 351.3 155.7 353.1 156.3C354 156.6 354.9 156.9 355.9 157.1C356.8 157.2 357.7 157.4 358.6 157.3C358.7 157.1 358.7 156.9 358.6 156.8Z" fill="#263238"/>
<path d="M320.7 167.4C320.6 165.8 320.5 164.1 320.3 162.5C320 158.8 319.6 155 318.9 151.3C318.8 151 318.4 151.1 318.5 151.4C318.8 154.3 319.1 157.2 319.4 160.1C319.7 163 320 165.9 320.1 168.8C320.1 169.7 320.1 171.2 319 171.4C317.6 171.7 316.9 169.8 316.5 168.8C315.6 166.2 315.1 163.5 314.7 160.9C314.2 157.8 314 154.7 313.7 151.7C313.7 151.6 313.5 151.6 313.5 151.7C313.5 157.8 313.6 164.2 315.8 170C316.2 171.1 317 172.3 318.3 172.4C318.3 172.4 318.3 172.4 318.4 172.4V172.5C318.4 172.7 318.5 172.8 318.5 173C318.5 173.1 318.6 173.3 318.6 173.4C318.7 173.7 318.7 174 318.8 174.3C318.9 174.6 319.2 174.5 319.2 174.2C319.3 174.2 319.3 174.1 319.3 174C319.3 173.4 319.1 172.8 318.9 172.3C319.6 172.2 320.2 171.7 320.5 171C321 169.8 320.8 168.5 320.7 167.4Z" fill="#263238"/>
<path d="M316.3 172.8C321 174.7 325.5 177.2 329.8 179.8C330 179.9 329.8 180.2 329.7 180.1C325.2 177.9 320.5 175.8 316.1 173.3C315.7 173.1 315.9 172.7 316.3 172.8Z" fill="#263238"/>
<path d="M315.8 111.3C318.6 113.5 321.3 115.1 324 116.4C319.6 108.9 320.2 91.9999 320.8 94.3999C323.4 105.9 330.6 118.5 333.4 119.2C340.8 120.2 347.5 118.2 353.1 115C347.4 106.5 347.6 89.3999 348 90.3999C352.2 101.6 360.9 108.1 362.4 108.1C368 102.8 370.9 97.4999 370.1 96.8999C364.3 92.9999 359.4 82.8999 355 72.1999C350.6 61.6999 348.4 51.5999 342.2 42.1999C336.6 33.5999 325.3 31.9999 318.9 36.3999C302.2 47.9999 312.2 108.6 315.8 111.3Z" fill="#263238"/>
<path d="M333.2 37C337.8 38.1 341.7 42.3 344.1 46.3C347.3 51.5 349.5 57.4 352.1 63C357.4 73.9 364 83.9 372.3 92.7C372.5 92.9 372.2 93.2 372 93C363 86.2 356.8 76.5 351.8 66.5C349.2 61.4 347.2 56 344.7 50.9C343.4 48.1 341.8 45.3 339.8 42.9C337.8 40.6 335.5 39.2 332.9 37.9C332.5 37.5 332.7 36.8 333.2 37Z" fill="#263238"/>
<path d="M392.8 254.7L327.1 266.4L324.7 197.8L371.3 189.4L392.8 254.7Z" fill="#EBEBEB"/>
<path d="M371.3 189.4L375.9 257.7L392.8 254.7L371.3 189.4Z" fill="#4A56E2"/>
<path d="M337.7 200.5H335.3C335.3 200.4 335.3 193.8 335.3 187.1C335.4 179.8 341.5 175.2 347.3 174.9C351.7 174.7 357.1 177 358 184.2C358.9 192 359.1 195.7 359.1 195.8L356.7 195.9C356.7 195.9 356.5 192.1 355.6 184.4C355 178.8 351 177 347.5 177.2C342.7 177.5 337.8 181.2 337.7 187C337.7 193.8 337.7 200.4 337.7 200.5Z" fill="#263238"/>
<path d="M376.7 257C377.9 255.8 379.1 254.7 380.4 253.5C381.6 252.4 382.9 251.3 384.2 250.2L384.4 250.1L384.6 250.2C385.9 250.8 387.1 251.5 388.4 252.2C389.6 252.9 390.9 253.6 392.1 254.3C390.8 253.8 389.5 253.2 388.2 252.7C386.9 252.1 385.6 251.5 384.4 250.9H384.8C383.5 252 382.2 253.1 380.9 254.1C379.4 255 378.1 256 376.7 257Z" fill="white"/>
<path d="M384.4 250.5C383.3 246.3 382.4 242.1 381.4 237.8C380.4 233.6 379.5 229.3 378.6 225.1C377.7 220.8 376.8 216.6 376 212.3L374.7 205.9C374.3 203.8 373.9 201.6 373.5 199.5C374 201.6 374.5 203.7 375 205.8L376.5 212.1C377.5 216.3 378.4 220.6 379.3 224.8C380.2 229.1 381.1 233.3 381.9 237.6C382.8 242 383.7 246.2 384.4 250.5Z" fill="white"/>
<path d="M339.7 199.8C340.1 201.5 339 203.2 337.2 203.6C335.5 204 333.8 202.9 333.4 201.1C333 199.4 334.1 197.7 335.9 197.3C337.6 196.9 339.3 198 339.7 199.8Z" fill="#263238"/>
<path d="M360.8 195.2C361.2 196.9 360.1 198.6 358.3 199C356.6 199.4 354.9 198.3 354.5 196.5C354.1 194.8 355.2 193.1 357 192.7C358.7 192.4 360.5 193.5 360.8 195.2Z" fill="#263238"/>
<path d="M385.2 274.3H308.1L319.3 195.8H373.9L385.2 274.3Z" fill="#FFC727"/>
<path opacity="0.1" d="M373.9 195.8L365.4 274.3H385.2L373.9 195.8Z" fill="black"/>
<path d="M334.7 201.2L332.3 200.7C332.3 200.6 333.7 194 335.2 187.4C336.8 180.2 343.9 176.9 349.8 177.8C354.2 178.5 359.1 182 358.4 189.4C357.6 197.3 357 201 357 201.2L354.6 200.8C354.6 200.8 355.2 197 356 189.2C356.6 183.5 353 180.9 349.5 180.3C344.7 179.5 339 182.2 337.7 188C336.1 194.6 334.7 201.1 334.7 201.2Z" fill="#263238"/>
<path d="M366.4 273.7C368 272.6 369.6 271.5 371.3 270.5C372.9 269.5 374.6 268.5 376.3 267.5L376.5 267.4L376.7 267.6C378 268.6 379.3 269.6 380.6 270.6C381.9 271.6 383.1 272.6 384.4 273.7C383 272.9 381.6 272 380.3 271C378.9 270.1 377.6 269.1 376.3 268.2H376.7C375 269.2 373.3 270.1 371.6 271C369.9 272 368.2 272.9 366.4 273.7Z" fill="white"/>
<path d="M376.5 267.9C376.2 262.9 375.9 257.9 375.7 252.9C375.5 247.9 375.3 242.9 375.1 237.9C375 232.9 374.8 227.9 374.7 222.9L374.6 215.4C374.6 212.9 374.5 210.4 374.5 207.9C374.7 210.4 374.8 212.9 375 215.4L375.4 222.9C375.6 227.9 375.8 232.9 376 237.9C376.1 242.9 376.3 247.9 376.4 252.9C376.4 257.9 376.5 262.9 376.5 267.9Z" fill="white"/>
<path d="M333.5 204.3C335.323 204.3 336.8 202.822 336.8 201C336.8 199.177 335.323 197.7 333.5 197.7C331.677 197.7 330.2 199.177 330.2 201C330.2 202.822 331.677 204.3 333.5 204.3Z" fill="#263238"/>
<path d="M355.5 204.3C357.323 204.3 358.8 202.822 358.8 201C358.8 199.177 357.323 197.7 355.5 197.7C353.677 197.7 352.2 199.177 352.2 201C352.2 202.822 353.677 204.3 355.5 204.3Z" fill="#263238"/>
<path d="M273.6 53.0999L282.9 82C283.3 82.7999 282.9 83.5999 282 83.5999L266.9 84.5999C266.1 84.6999 265.1 83.9999 264.7 83.1999L255.4 54.2999C255 53.4999 255.4 52.7 256.3 52.7L271.4 51.7C272.2 51.7 273.2 52.2999 273.6 53.0999Z" fill="#A6A6A6"/>
<path d="M271.8 53.1998L281.1 82.0998C281.5 82.8998 281.1 83.6998 280.2 83.6998L265.1 84.6998C264.3 84.7998 263.3 84.0998 262.9 83.2998L253.6 54.3998C253.2 53.5998 253.6 52.7998 254.5 52.7998L269.6 51.7998C270.4 51.6998 271.4 52.3998 271.8 53.1998Z" fill="#DBDBDB"/>
<path d="M267.7 54.7999C267.8 55.4999 268.4 55.9999 269.1 55.9999C269.8 55.8999 270.3 55.2999 270.3 54.5999C270.2 53.8999 269.6 53.3999 268.9 53.3999C268.2 53.4999 267.7 54.0999 267.7 54.7999Z" fill="#455A64"/>
<path d="M325.3 94.4999C318.1 113.4 300.5 138.5 292.6 139.1C288.8 139.4 282.1 140.8 276.8 136.8C265.3 128.1 254.9 110.6 252.3 100.3C251.4 96.6999 268.8 87.2999 271.7 90.0999C278.4 96.6999 286.7 110 287.8 109.8C291.9 109.2 306.8 94.7999 317.3 84.5999C329.8 72.4999 328.1 86.8999 325.3 94.4999Z" fill="#F7A9A0"/>
<path d="M250.4 81.3C251.8 73.7 253.3 71.9 251 64.8C249.5 60.2 251.8 57.2 255.4 60.8C261.3 66.6 261.6 76.8 260.7 80.4L250.4 81.3Z" fill="#F7A9A0"/>
<path d="M253.4 103.5C253.4 103.5 249.3 93.2999 249.9 84.9999C250.3 79.2999 252.7 66.8999 268.1 59.2999C271.8 57.4999 278.2 57.4999 273.3 62.5999C269.8 66.1999 266.5 67.4999 264.9 69.8999C264.9 69.8999 273.1 70.8999 274.8 74.6999C275.5 76.3999 277.4 80.9999 278.4 84.7999C278.4 84.7999 277.6 85.1999 276.6 85.5999C276.6 85.5999 277.8 89.1999 275.5 94.5999L253.4 103.5Z" fill="#F7A9A0"/>
<path d="M251.2 79.5999C253.4 77.4999 258 73.0999 263 70.7999C268.6 68.2999 280.1 64.8999 281.9 69.0999C283.2 72.0999 279 73.7999 279 73.7999C279 73.7999 284 73.3999 284.6 76.3999C285.2 79.0999 281.8 80.1999 281.8 80.1999C281.8 80.1999 284.9 80.4999 284.9 83.1999C284.9 86.4999 278.4 85.3999 275.6 88.6999C275 89.5999 251.2 79.5999 251.2 79.5999Z" fill="#F7A9A0"/>
<path d="M264.7 77.2C267 75.5 273.3 73.2 278.9 73.7C279 73.7 279.1 73.8 279 73.8C272.7 74.5 267.1 76.3 264.7 77.2C264.7 77.3 264.7 77.2 264.7 77.2Z" fill="#263238"/>
<path d="M267.4 82.7998C269.6 81.5998 276.2 79.3998 281.8 80.1998C281.9 80.1998 282 80.2998 281.9 80.2998C275.3 80.6998 269.9 82.0998 267.4 82.7998Z" fill="#263238"/>
<path d="M277.7 96.4999L256.8 120.7C256.8 120.7 274.7 138.2 280.5 139.6C286.3 141 290.7 140.1 294.8 139C298.9 137.8 318.9 114.6 325.5 95.6999C332.1 76.6999 325 75.7999 313.8 87.2999C302.6 98.7999 288.7 110.1 288 109.3C287.3 108.4 277.7 96.4999 277.7 96.4999Z" fill="#FFC727"/>
<path opacity="0.1" d="M277.7 96.4999L256.8 120.7C256.8 120.7 274.7 138.2 280.5 139.6C286.3 141 290.7 140.1 294.8 139C298.9 137.8 318.9 114.6 325.5 95.6999C332.1 76.6999 325 75.7999 313.8 87.2999C302.6 98.7999 288.7 110.1 288 109.3C287.3 108.4 277.7 96.4999 277.7 96.4999Z" fill="black"/>
<path d="M281.5 103.2C280.6 104 273.7 111.8 272.1 113.6C270.6 115.3 264.6 122.6 263.1 124.4C263 124.5 263.1 124.6 263.2 124.5C264 123.6 264.9 122.8 265.7 121.9C266.5 121 271.2 115.7 272.7 114C274.2 112.2 281 104.2 281.6 103.3C281.7 103.2 281.6 103.1 281.5 103.2Z" fill="#263238"/>
<path d="M306.2 127.7L302.3 161.3C302.3 161.3 356.8 160.5 370.3 159.1C370.3 159.1 357.4 96.9 342.4 81.5C334.9 73.8 326.4 74.7 321.1 80.3C319.8 81.7 304 104 302.5 112.3C301.2 119.8 306.2 127.7 306.2 127.7Z" fill="#FFC727"/>
<path d="M304 122.3C303.4 120.4 303 118.4 303 116.4C303 112.3 304.2 108.3 306 104.7C307 102.6 308.2 100.6 309.2 98.5C309.2 98.4 309.1 98.4 309.1 98.5C308.1 99.9 307.3 101.4 306.5 102.8C306.5 102.7 306.5 102.7 306.6 102.6C306.8 101.8 307.1 101 307.4 100.2C307.4 100.1 307.3 100.1 307.3 100.1C307 100.9 306.7 101.6 306.4 102.4C306.2 102.9 306.1 103.4 306 103.9C305 105.7 304.2 107.6 303.5 109.6C302.2 113.5 302 117.7 303.2 121.7C303.5 122.7 304 123.7 304.4 124.7C304.9 125.8 305.6 126.8 306.2 127.8C306.2 127.9 306.4 127.8 306.3 127.7C305.3 126.1 304.6 124.2 304 122.3Z" fill="#263238"/>
<path d="M333.5 80.5998C333.1 81.5998 326.7 87.4998 322 86.3998C320.4 85.9998 322.1 77.4998 322.1 77.4998V76.7998L321.8 67.5998L333.5 62.8998L335.2 62.2998C335.2 62.2998 335.1 64.7998 335 67.9998C335 68.0998 335 68.2998 335 68.3998C335 68.5998 335 68.6998 335 68.8998C335 69.3998 335 69.8998 334.9 70.2998C334.9 70.6998 334.9 70.9998 334.8 71.3998C334.8 71.7998 334.7 72.1998 334.7 72.4998C334.4 76.3998 333.7 80.1998 333.5 80.5998Z" fill="#F7A9A0"/>
<path d="M334.9 67.8999C331 74.4999 324.8 76.2999 322.1 76.7999L321.8 67.5999L333.5 62.8999L335.2 62.2999C335.1 62.1999 335.1 64.7999 334.9 67.8999Z" fill="#263238"/>
<path d="M310.9 53.3C308.7 69.4 318.1 72.5 321.5 73C324.6 73.4001 335.4 74.5 339.3 58.7001C343.2 42.9001 336.4 36.8001 329.2 35.4001C322.1 34.1001 313.1 37.2 310.9 53.3Z" fill="#F7A9A0"/>
<path d="M315.2 50.0001C315.6 50.0001 315.9 50.0001 316.3 49.9001C316.7 49.9001 317.1 49.9001 317.4 49.6001C317.6 49.5001 317.6 49.1001 317.5 48.9001C317.2 48.4001 316.7 48.4001 316.1 48.4001C315.5 48.4001 315.1 48.6001 314.7 49.0001C314.4 49.3001 314.7 50.0001 315.2 50.0001Z" fill="#263238"/>
<path d="M325.8 51.6002C325.4 51.5002 325.1 51.4002 324.7 51.2002C324.3 51.0002 324 51.0002 323.7 50.6002C323.6 50.4002 323.6 50.1002 323.8 49.9002C324.2 49.5002 324.8 49.6002 325.2 49.8002C325.7 50.0002 326.1 50.2002 326.4 50.7002C326.8 51.1002 326.3 51.7002 325.8 51.6002Z" fill="#263238"/>
<path d="M323.1 55.3L323.2 55.4001C323 56.5001 322.9 57.8 323.9 58.3V58.4001C322.6 58.0001 322.7 56.3 323.1 55.3Z" fill="#263238"/>
<path d="M324.3 54.4001C326.1 54.6001 325.6 58.1001 324 58.0001C322.3 57.8001 322.8 54.2001 324.3 54.4001Z" fill="#263238"/>
<path d="M324.9 54.6C325.2 54.8 325.4 55.2 325.8 55.3C326.2 55.4 326.6 55.1 326.9 54.7H327C326.9 55.4 326.6 56 325.8 56.1C325.1 56.1 324.7 55.5 324.6 54.7C324.7 54.7 324.8 54.5 324.9 54.6Z" fill="#263238"/>
<path d="M316.8 54.3C316.8 54.3 316.7 54.3 316.8 54.3C316.6 55.5 316.3 56.7 315.3 57V57.1C316.5 57 316.9 55.4 316.8 54.3Z" fill="#263238"/>
<path d="M315.9 53.0002C314.1 52.7002 313.6 56.2002 315.2 56.5002C316.9 56.8002 317.4 53.3002 315.9 53.0002Z" fill="#263238"/>
<path d="M315.2 53.2002C314.9 53.3002 314.6 53.6002 314.2 53.6002C313.8 53.6002 313.6 53.1002 313.4 52.7002H313.3C313.2 53.4002 313.3 54.1002 313.9 54.3002C314.5 54.5002 315 54.0002 315.3 53.4002C315.4 53.3002 315.3 53.1002 315.2 53.2002Z" fill="#263238"/>
<path d="M321.7 64.1003C321.4 64.3003 321.1 64.7003 320.7 64.7003C320.3 64.7003 319.9 64.5003 319.5 64.3003C319.5 64.3003 319.4 64.3003 319.4 64.4003C319.7 64.8003 320.2 65.2003 320.8 65.1003C321.3 65.1003 321.6 64.6003 321.7 64.2003C321.8 64.1003 321.7 64.0003 321.7 64.1003Z" fill="#263238"/>
<path d="M317.6 59.5001C317.6 59.5001 317.2 61.1001 317 61.9001C317 62.0001 317.2 62.0001 317.4 62.1001C318.7 62.5001 320.2 62.2001 321.1 61.2001C321.2 61.1001 321.1 61.0001 321 61.1001C319.9 61.7001 318.7 61.8001 317.5 61.6001C317.5 61.4001 318.4 58.9001 318.2 58.8001C317.8 58.7001 316.9 58.9001 316.4 59.0001C317.2 55.6001 318.6 52.4001 319.4 49.0001C319.4 48.9001 319.3 48.8001 319.2 48.9001C317.5 52.2001 316.5 56.0001 315.5 59.5001C315.6 60.0001 317.3 59.6001 317.6 59.5001Z" fill="#263238"/>
<path d="M337.9 58.8C333.9 58.5 333.2 46.2 333.2 44.7C333.2 45.7 333.1 50.7 332.7 50.9C332.6 50.9 332.2 50.8 331.5 50.6C331.5 50 331.5 49.4 331.4 48.8C331.4 48.5 331.3 49.4 331.1 50.5C330.9 50.4 330.6 50.3 330.4 50.3C330.5 49.2 330.5 47.9 330.2 46.5C330.1 46 329.9 48.2 329.4 50C326.7 49.2 322.8 48 319.1 47.8C318.1 47.7 317.3 47.7 316.5 47.7C316.6 46.2 316.8 44.6 316.7 45C316.3 46 316.1 46.9 316 47.7C315.6 47.7 315.2 47.7 314.9 47.7C314.9 45.6 316 42.3 315.6 42.8C314.2 44.7 313.6 46.8 313.4 47.9C312 48.1 311.6 48.4 311.5 48C311.5 47.3 312.5 41.5 317.2 37.4C322.3 32.9 332.3 32.1 337.6 39.5C337.6 39.5 342.1 42.7 342.6 47.5C343 52.4 340.2 59 337.9 58.8Z" fill="#263238"/>
<path d="M336.6 59.6C336.6 59.6 340.4 54.7 342.6 56.1C344.8 57.5 341.8 64.7 339.1 65.5C336.4 66.4 335.5 63.8 335.5 63.8L336.6 59.6Z" fill="#F7A9A0"/>
<path d="M341.7 58.2C339.8 58.9 338.7 60.6 337.9 62.4C338.5 61.7 339.3 61.3999 340.2 62.0999C340.2 62.0999 340.2 62.2 340.1 62.2C339.3 62 338.8 62.1 338.2 62.7C337.8 63.1 337.5 63.6999 337.2 64.1999C337.1 64.3999 336.8 64.2999 336.9 64.0999C337 61.5999 339.1 58.3 341.7 58.2Z" fill="#263238"/>
<path d="M345.3 81.4999C364 96.7999 379.1 120.2 379.9 126.1C380.8 132.6 378.5 156.3 372.3 168.3C370.7 171.5 346.5 157 348.1 153.6C351.2 146.9 355.7 128.7 355.1 125.1C354.5 121.7 345 101.5 338.4 90.8999C332.5 81.0999 336.6 74.3999 345.3 81.4999Z" fill="#F7A9A0"/>
<path d="M329.6 182.4C331.2 184.9 334.2 184.1 334.2 184.1C334.2 184.1 334.2 186.5 335.7 188.1C337.5 190 341.2 188 341.2 188C341.2 188 341.7 190.4 343.5 192C345.4 193.6 349.4 192.2 349.4 192.2C349.4 192.2 351.1 194.2 353.6 194.4C358 194.8 362 189.4 364.6 186.1C367.2 182.7 371.4 170.7 372.4 168.5L350.9 151.7C350.9 151.7 335 163.5 332.5 167.9C330.5 171.5 327.8 179.6 329.6 182.4Z" fill="#F7A9A0"/>
<path d="M333.9 183.6C335.2 179.1 337.7 175.3 340 171.3C340.1 171.2 340.2 171.3 340.1 171.4C337.8 175.3 336.2 179.7 334.1 183.7C334 183.8 333.9 183.7 333.9 183.6Z" fill="#263238"/>
<path d="M341 187.6C341.3 186.6 342 185.7 342.5 184.8C343.1 183.9 343.7 182.9 344.4 182C345.7 180.2 347 178.3 348.4 176.6C348.5 176.5 348.6 176.6 348.5 176.7C347.2 178.5 346 180.4 344.8 182.3C344.2 183.2 343.6 184.2 343 185.2C342.5 186.1 342 187.1 341.2 187.8C341.1 187.9 340.9 187.8 341 187.6Z" fill="#263238"/>
<path d="M349.5 192C349.7 191.1 350.5 190.3 351 189.6C351.6 188.8 352.2 187.9 352.8 187.1C354 185.4 355.2 183.8 356.3 182C356.4 181.9 356.5 182 356.4 182.1C355.3 183.8 354.2 185.6 353 187.3C352.4 188.2 351.9 189 351.3 189.8C350.8 190.6 350.3 191.5 349.5 192Z" fill="#263238"/>
<path d="M336.3 88.8999C339.9 99.0999 354.5 123.3 354.4 125.6C354.3 127.9 347.2 152.2 347.2 152.2L376.1 169.7C376.1 169.7 382.5 136.6 380.1 125.1C378.3 116.3 357.9 90.5999 348 82.6999C338.1 74.8999 331.7 75.8999 336.3 88.8999Z" fill="#FFC727"/>
<path opacity="0.1" d="M336.3 88.8999C339.9 99.0999 354.5 123.3 354.4 125.6C354.3 127.9 347.2 152.2 347.2 152.2L376.1 169.7C376.1 169.7 382.5 136.6 380.1 125.1C378.3 116.3 357.9 90.5999 348 82.6999C338.1 74.8999 331.7 75.8999 336.3 88.8999Z" fill="black"/>
<path d="M354.5 124.2C354.2 122.5 353.2 120.9 352.4 119.4C350.6 116 348.8 112.6 346.8 109.3C345.7 107.5 341.4 100.4 340.2 98.0999C340.1 97.8999 339.8 98.0999 339.9 98.2999C340.6 99.6999 342.6 103.3 344.1 105.9C343.9 105.6 343.7 105.4 343.4 105.1C343 104.6 342.5 104.1 342.1 103.7C341.6 103.2 341 102.8 340.6 102.2C340.5 102.1 340.4 102.2 340.5 102.3C341.3 103.4 342.2 104.3 343.1 105.3C343.5 105.8 344 106.3 344.4 106.8C344.7 107.1 345 107.5 345.3 107.8C345.4 107.9 345.4 108 345.5 108.1C347.4 111.4 349.1 114.7 350.9 118C351.8 119.6 352.8 121.2 353.4 122.9C353.7 123.7 353.9 124.5 353.9 125.4C353.8 126.4 353.5 127.4 353.3 128.3C352.3 131.9 351.4 135.5 350.4 139.2C349.9 141.3 349.3 143.4 348.8 145.5C348.3 147.6 347.7 149.7 347.4 151.8C347.4 151.9 347.6 152.1 347.7 151.9C348.4 150.1 348.9 148.2 349.4 146.4C349.9 144.5 350.5 142.6 351 140.8C352 137 353 133.2 354 129.3C354.2 127.7 354.8 126 354.5 124.2Z" fill="#263238"/>
<path d="M375.8 162.2C368 156.7 359.8 151.6 351.4 146.9C351.3 146.9 351.2 147 351.3 147C359.1 152.5 367.2 157.7 375.6 162.3C375.8 162.5 375.9 162.3 375.8 162.2Z" fill="#263238"/>
<path d="M73.7 309.2H117.8C123.6 309.2 128.3 304.5 128.3 298.7V216.1C128.3 213.1 130.4 205.5 139.5 205.5H84.1C78.3 205.5 73.6 210.2 73.6 216V309.2H73.7Z" fill="#FFC727"/>
<path opacity="0.1" d="M73.7 309.2H117.8C123.6 309.2 128.3 304.5 128.3 298.7V216.1C128.3 213.1 130.4 205.5 139.5 205.5H84.1C78.3 205.5 73.6 210.2 73.6 216V309.2H73.7Z" fill="black"/>
<g opacity="0.1">
<path opacity="0.1" d="M121.3 216.1H81.7V217.9H121.3V216.1Z" fill="black"/>
<path opacity="0.1" d="M121.3 221.2H81.7V223H121.3V221.2Z" fill="black"/>
<path opacity="0.1" d="M121.3 226.3H81.7V228.1H121.3V226.3Z" fill="black"/>
<path opacity="0.1" d="M121.3 231.4H81.7V233.2H121.3V231.4Z" fill="black"/>
<path opacity="0.1" d="M121.3 236.5H81.7V238.3H121.3V236.5Z" fill="black"/>
<path opacity="0.1" d="M121.3 241.6H81.7V243.4H121.3V241.6Z" fill="black"/>
<path opacity="0.1" d="M121.3 246.7H81.7V248.5H121.3V246.7Z" fill="black"/>
<path opacity="0.1" d="M121.3 251.8H81.7V253.6H121.3V251.8Z" fill="black"/>
<path opacity="0.1" d="M121.3 257H81.7V258.8H121.3V257Z" fill="black"/>
<path opacity="0.1" d="M121.3 262.1H81.7V263.9H121.3V262.1Z" fill="black"/>
<path opacity="0.1" d="M121.3 267.2H81.7V269H121.3V267.2Z" fill="black"/>
<path opacity="0.1" d="M121.3 272.3H81.7V274.1H121.3V272.3Z" fill="black"/>
<path opacity="0.1" d="M121.3 277.4H81.7V279.2H121.3V277.4Z" fill="black"/>
<path opacity="0.1" d="M121.3 282.5H81.7V284.3H121.3V282.5Z" fill="black"/>
<path opacity="0.1" d="M121.3 287.6H81.7V289.4H121.3V287.6Z" fill="black"/>
<path opacity="0.1" d="M121.3 292.7H81.7V294.5H121.3V292.7Z" fill="black"/>
</g>
<path d="M31.1 274.3V374H64.5V374.1C64.5 379.9 69.1 384.6 74.9 384.7H75.3C75.7 384.7 76 384.7 76.4 384.6L78.4 384.2C78.9 384 79.4 383.8 79.8 383.6C80 383.5 80.3 383.4 80.5 383.2C80.6 383.1 80.7 383.1 80.8 383C81.1 382.8 81.4 382.6 81.7 382.4L81.8 382.3C82 382.1 82.2 382 82.4 381.8C82.5 381.7 82.6 381.6 82.7 381.5C83.9 380.3 84.8 378.8 85.3 377.2V377.1C85.4 376.8 85.4 376.6 85.5 376.3C85.6 376 85.6 375.6 85.7 375.3C85.7 375.1 85.7 375 85.7 374.8C85.7 374.7 85.7 374.7 85.7 374.6C85.7 374.4 85.7 374.2 85.7 374V274.2C85.7 271.2 87.8 263.6 96.9 263.6H41.6C35.8 263.8 31.1 268.5 31.1 274.3Z" fill="#FFC727"/>
<g opacity="0.1">
<path opacity="0.1" d="M78 270.4H38.4V272.2H78V270.4Z" fill="black"/>
<path opacity="0.1" d="M81.7 265.7H42.1V267.5H81.7V265.7Z" fill="black"/>
<path opacity="0.1" d="M78 275.5H38.4V277.3H78V275.5Z" fill="black"/>
<path opacity="0.1" d="M78 280.6H38.4V282.4H78V280.6Z" fill="black"/>
<path opacity="0.1" d="M78 285.8H38.4V287.6H78V285.8Z" fill="black"/>
<path opacity="0.1" d="M78 290.9H38.4V292.7H78V290.9Z" fill="black"/>
<path opacity="0.1" d="M78 296H38.4V297.8H78V296Z" fill="black"/>
<path opacity="0.1" d="M78 301.1H38.4V302.9H78V301.1Z" fill="black"/>
<path opacity="0.1" d="M78 306.2H38.4V308H78V306.2Z" fill="black"/>
<path opacity="0.1" d="M78 311.3H38.4V313.1H78V311.3Z" fill="black"/>
<path opacity="0.1" d="M78 316.4H38.4V318.2H78V316.4Z" fill="black"/>
<path opacity="0.1" d="M78 321.5H38.4V323.3H78V321.5Z" fill="black"/>
<path opacity="0.1" d="M78 326.7H38.4V328.5H78V326.7Z" fill="black"/>
<path opacity="0.1" d="M78 331.8H38.4V333.6H78V331.8Z" fill="black"/>
<path opacity="0.1" d="M78 336.9H38.4V338.7H78V336.9Z" fill="black"/>
<path opacity="0.1" d="M78 342H38.4V343.8H78V342Z" fill="black"/>
<path opacity="0.1" d="M78 347.1H38.4V348.9H78V347.1Z" fill="black"/>
<path opacity="0.1" d="M78 352.2H38.4V354H78V352.2Z" fill="black"/>
<path opacity="0.1" d="M78 357.3H38.4V359.1H78V357.3Z" fill="black"/>
<path opacity="0.1" d="M78 364.7H58.2V368.9H78V364.7Z" fill="black"/>
</g>
<path d="M117.5 309.2C117.6 309.2 117.7 309.2 117.8 309.2C118.2 309.2 118.6 309.2 119 309.1C118.6 309.1 118.3 309.2 117.9 309.2H117.5Z" fill="#FFC727"/>
<path d="M139 205.5C133.1 205.5 128.4 210.3 128.4 216.1V236.1H149.6V216.1C149.6 210.3 144.8 205.5 139 205.5Z" fill="#FFC727"/>
<path opacity="0.2" d="M139 205.5C133.1 205.5 128.4 210.3 128.4 216.1V236.1H149.6V216.1C149.6 210.3 144.8 205.5 139 205.5Z" fill="black"/>
<path d="M85.7 274.4V309.3H106.9H117.3C111.6 309.2 106.9 304.5 106.9 298.7V274.4C106.9 268.5 102.1 263.8 96.3 263.8C93.4 263.8 90.7 265 88.8 266.9C86.9 268.8 85.7 271.4 85.7 274.4Z" fill="#FFC727"/>
<path opacity="0.2" d="M85.7 274.4V309.3H106.9H117.3C111.6 309.2 106.9 304.5 106.9 298.7V274.4C106.9 268.5 102.1 263.8 96.3 263.8C93.4 263.8 90.7 265 88.8 266.9C86.9 268.8 85.7 271.4 85.7 274.4Z" fill="black"/>
<path d="M15.6 374V374.1C15.6 379.9 20.2 384.6 26 384.7H74.9C69.2 384.6 64.5 379.9 64.5 374.1V374H15.6Z" fill="#FFC727"/>
<path opacity="0.2" d="M15.6 374V374.1C15.6 379.9 20.2 384.6 26 384.7H74.9C69.2 384.6 64.5 379.9 64.5 374.1V374H15.6Z" fill="black"/>
</svg>
