<svg aria-hidden="true" style="position:absolute;width:0;height:0;overflow:hidden" xmlns="http://www.w3.org/2000/svg"><defs><symbol id="chart" viewBox="0 0 83 32"><path d="M6.648 11.418 0 18.321v8.903A4.776 4.776 0 0 0 4.776 32H75.94a7.163 7.163 0 0 0 7.164-7.164V5.974c-.303-.188-.744-.251-.931-.266-1.457-.115-2.293.978-3.457 1.991l-.015.012c-.344.3-1.205 1.05-2.778 1.05-1.596 0-2.704-.708-3.058-1.062l-5.319-5.576c-.709-.708-2.26-2.124-3.989-2.124s-3.103 1.416-3.723 2.124L35.235 25.887c-.399.442-1.622 1.328-3.324 1.328s-2.925-.885-3.324-1.328L14.359 10.753c-.487-.531-1.915-1.593-3.723-1.593s-3.413 1.504-3.989 2.257z"/></symbol><symbol id="ellipse-pink" viewBox="0 0 46 32"><path fill="#ffd8d0" style="fill:var(--color1, #ffd8d0)" d="M46.129 22.271c-7.358 10.303-20.68 11.612-31.934 7.663C1.285 24.733-2.89 10.176 2.01-1.986c4.546-11.283 18.067-6.878 29.615-7.181 21.37-.39 28.445 13.301 14.503 31.439z"/></symbol><symbol id="ellipse-violet" viewBox="0 0 48 32"><path fill="#c5baff" style="fill:var(--color2, #c5baff)" d="M41.001 34.876c-7.38 12.553-22.509 15.409-35.804 12.032-15.32-4.643-21.586-20.896-17.211-35.328C-7.956-1.809 7.983 1.86 21.183.336c24.443-2.624 33.942 12.341 19.818 34.54z"/></symbol><symbol id="preview-picture" viewBox="0 0 33 32"><path fill="#4a56e2" style="fill:var(--color3, #4a56e2)" d="m31.421.579.015 6.133a.621.621 0 0 1-.617.625l-9.73.023a.621.621 0 0 1-.625-.617L20.449.61c0-.32.259-.579.579-.579l9.813-.03c.32 0 .579.259.579.579z"/><path fill="#a6a6a6" style="fill:var(--color4, #a6a6a6)" d="M29.851 5.851a.57.57 0 1 1-.571-.571c.32 0 .571.251.571.571z"/><path fill="#ffc727" style="fill:var(--color5, #ffc727)" d="M30.56 5.851a.57.57 0 1 1-1.14.002.57.57 0 0 1 1.14-.002zm-7.444-3.352h-1.417a.322.322 0 0 1-.32-.32v-.785c0-.175.145-.32.32-.32h1.417c.175 0 .32.145.32.32v.785c0 .175-.145.32-.32.32z"/><path fill="#fff" style="fill:var(--color6, #fff)" d="M30.156 1.836h-.93c-.213 0-.389-.175-.389-.389s.175-.389.389-.389h.93c.213 0 .389.175.389.389s-.175.389-.389.389z"/><path fill="#f8f8f8" style="fill:var(--color7, #f8f8f8)" d="m21.31 3.802-.084.053h-.008c-.008 0-.015-.008-.015-.008-.008-.008 0-.023.008-.03l.114-.069c.008-.008.023 0 .03.008v.564c0 .008-.008.023-.023.023-.008 0-.023-.008-.023-.023v-.518zm.183.495.282-.251a.163.163 0 0 0 .053-.114.144.144 0 0 0-.038-.099.163.163 0 0 0-.114-.053.183.183 0 0 0-.107.038l-.03.023c-.008.008-.023.008-.03 0s-.008-.023 0-.03l.03-.03a.219.219 0 0 1 .13-.053c.053 0 .107.023.145.061s.053.084.053.13a.21.21 0 0 1-.061.145l-.236.213h.282c.008 0 .023.008.023.023 0 .008-.008.023-.023.023h-.335c-.008 0-.015 0-.015-.008-.015.008-.015-.008-.008-.015zm.869-.526-.152.16a.164.164 0 0 1 .099.053.208.208 0 0 1 .061.145.209.209 0 0 1-.206.206.21.21 0 0 1-.145-.061c-.008-.008-.008-.023 0-.03s.023-.008.03 0a.165.165 0 0 0 .228 0 .165.165 0 0 0 0-.228.157.157 0 0 0-.114-.046c-.008 0-.015 0-.015-.008-.008-.008-.008-.023 0-.03l.145-.152h-.229c-.015 0-.023-.008-.023-.023s.008-.023.023-.023h.282c.015 0 .023.008.023.023 0 0-.008.008-.008.015zm.503.435h-.32c-.008 0-.008 0-.015-.008s-.008-.023 0-.03l.343-.434c.008-.008.023-.008.03 0l.008.008v.411h.038c.015 0 .023.008.023.023 0 .008-.008.023-.023.023h-.038v.099c0 .008-.008.023-.023.023-.008 0-.023-.008-.023-.023v-.091zm0-.038v-.35l-.282.35h.282zm.746.099c-.008-.008-.008-.023 0-.03s.023-.008.03 0a.165.165 0 0 0 .228 0 .165.165 0 0 0 0-.228.165.165 0 0 0-.228 0c-.008.008-.023.008-.03 0l-.008-.008v-.015l.03-.244c0-.008 0-.015.008-.015 0 0 .008-.008.015-.008h.282c.015 0 .023.008.023.023s-.008.023-.023.023h-.259l-.023.175a.25.25 0 0 1 .099-.03.18.18 0 0 1 .145.061c.038.038.061.091.061.145s-.015.107-.061.145a.208.208 0 0 1-.145.061.155.155 0 0 1-.145-.053zm.564-.404a.222.222 0 0 1 .206-.13c.008 0 .023.008.023.023s-.008.023-.023.023c-.084 0-.137.046-.175.107-.023.038-.03.076-.046.122a.216.216 0 0 1 .145-.069c.107 0 .198.091.198.198s-.084.198-.198.198a.2.2 0 0 1-.198-.19v-.038a.741.741 0 0 1 .069-.244zm-.007.274v.015a.156.156 0 0 0 .152.137c.084 0 .16-.069.16-.152s-.069-.152-.16-.152c-.084-.008-.152.061-.152.152zm.571.16.221-.526h-.29c-.008 0-.023-.008-.023-.023 0-.008.008-.023.023-.023h.328c.008 0 .008.008.008.015v.015l-.229.549c0 .008-.008.015-.015.015h-.008c-.015 0-.023-.015-.015-.023zm.587-.571a.12.12 0 0 1 .122.122.132.132 0 0 1-.053.099c.069.03.122.099.122.175 0 .107-.084.19-.19.19s-.19-.084-.19-.19c0-.084.046-.152.122-.183a.132.132 0 0 1-.053-.099c0-.053.053-.114.122-.114zm0 .556c.084 0 .152-.069.152-.152s-.069-.152-.152-.152-.152.069-.152.152.069.152.152.152zm0-.343c.046 0 .084-.038.084-.084s-.038-.084-.084-.084c-.046 0-.084.038-.084.084s.038.076.084.084zm1.059-.213c.099 0 .183.076.198.175v.061c0 .076-.015.168-.053.236s-.114.13-.206.13c-.015 0-.023-.008-.023-.023s.008-.023.023-.023c.084 0 .137-.046.175-.107a.34.34 0 0 0 .046-.122.216.216 0 0 1-.145.069.197.197 0 0 1-.198-.198c-.015-.114.076-.198.183-.198zm.16.198a.154.154 0 0 0-.16-.152c-.084 0-.152.069-.152.152s.069.152.152.152c.091 0 .16-.069.16-.152zm.19.099c0-.084.023-.152.053-.206.038-.053.091-.091.152-.091s.114.038.152.091.061.13.061.206c0 .084-.023.152-.061.206s-.091.091-.152.091-.114-.038-.152-.091a.439.439 0 0 1-.053-.206zm.046 0c0 .076.023.137.053.183s.069.069.114.069.084-.023.114-.069a.35.35 0 0 0 .053-.183c0-.076-.023-.137-.053-.183s-.069-.069-.114-.069-.084.023-.114.069a.277.277 0 0 0-.053.183zm.648-.244-.084.053h-.008c-.008 0-.015-.008-.015-.008-.008-.008 0-.023.008-.03l.114-.069c.008-.008.023 0 .03.008v.564c0 .008-.008.023-.023.023-.008 0-.023-.008-.023-.023v-.518zm.182.503.282-.251a.163.163 0 0 0 .053-.114.144.144 0 0 0-.038-.099.163.163 0 0 0-.114-.053.183.183 0 0 0-.107.038l-.03.023c-.008.008-.023.008-.03 0s-.008-.023 0-.03l.03-.03a.219.219 0 0 1 .13-.053c.053 0 .107.023.145.061s.053.084.053.13a.21.21 0 0 1-.061.145l-.236.213h.282c.008 0 .023.008.023.023 0 .008-.008.023-.023.023h-.335c-.008 0-.015 0-.015-.008-.015.008-.015-.008-.008-.015zm1.379-.526-.152.16a.164.164 0 0 1 .099.053.208.208 0 0 1 .061.145.209.209 0 0 1-.206.206.21.21 0 0 1-.145-.061c-.008-.008-.008-.023 0-.03s.023-.008.03 0a.165.165 0 0 0 .228 0 .165.165 0 0 0 0-.228.157.157 0 0 0-.114-.046c-.008 0-.015 0-.015-.008-.008-.008-.008-.023 0-.03l.145-.152h-.229c-.015 0-.023-.008-.023-.023s.008-.023.023-.023h.282c.015 0 .023.008.023.023 0 0 0 .008-.008.015 0-.008 0 0 0 0zm.503.434h-.32c-.008 0-.008 0-.015-.008s-.008-.023 0-.03l.343-.434c.008-.008.023-.008.03 0l.008.008v.411h.038c.015 0 .023.008.023.023 0 .008-.008.023-.023.023h-.038v.099c0 .008-.008.023-.023.023-.008 0-.023-.008-.023-.023v-.091zm0-.038v-.35l-.282.35h.282zm.237.099c-.008-.008-.008-.023 0-.03s.023-.008.03 0a.165.165 0 0 0 .228 0 .165.165 0 0 0 0-.228.165.165 0 0 0-.228 0c-.008.008-.023.008-.03 0l-.008-.008V3.97l.03-.244c0-.008 0-.015.008-.015 0 0 .008-.008.015-.008h.282c.015 0 .023.008.023.023s-.008.023-.023.023h-.259l-.023.175a.25.25 0 0 1 .099-.03.18.18 0 0 1 .145.061c.038.038.061.091.061.145s-.015.107-.061.145a.208.208 0 0 1-.145.061.155.155 0 0 1-.145-.053zm.563-.403a.222.222 0 0 1 .206-.13c.008 0 .023.008.023.023s-.008.023-.023.023c-.084 0-.137.046-.175.107-.023.038-.03.076-.046.122a.216.216 0 0 1 .145-.069c.107 0 .198.091.198.198s-.084.198-.198.198a.2.2 0 0 1-.198-.19v-.038a.741.741 0 0 1 .069-.244zm-.007.274v.015a.156.156 0 0 0 .152.137c.084 0 .16-.069.16-.152s-.069-.152-.16-.152c-.084-.008-.152.061-.152.152z"/><path fill="#a6a6a6" style="fill:var(--color4, #a6a6a6)" d="m26.598 5.349-5.211.013.001.259 5.211-.013-.001-.259zm-1.524.566-3.688.01.001.259 3.688-.01-.001-.259zm3.398-4.859-2.598.007.001.259 2.598-.007-.001-.259z"/><path fill="#24cca7" style="fill:var(--color8, #24cca7)" d="M31.634 13.036h-2.583c-.842 0-1.524.682-1.524 1.524v2.583c0 .842.682 1.524 1.524 1.524h2.583c.842 0 1.524-.682 1.524-1.524V14.56c0-.842-.682-1.524-1.524-1.524z"/><path fill="#fff" style="fill:var(--color6, #fff)" d="M30.438 13.943c.107 0 .19.084.19.19v.099c.259.03.488.114.693.244.069.038.137.107.137.213a.247.247 0 0 1-.251.244.308.308 0 0 1-.137-.038 1.708 1.708 0 0 0-.457-.198v.853c.678.168.968.442.968.914 0 .488-.381.815-.945.869v.267c0 .107-.084.19-.19.19s-.198-.084-.198-.19v-.274a1.897 1.897 0 0 1-.914-.35.244.244 0 0 1-.122-.213c0-.137.107-.244.244-.244.053 0 .107.015.145.046.206.152.411.251.655.297v-.876c-.648-.168-.952-.411-.952-.914 0-.48.381-.808.937-.853v-.091c0-.099.091-.183.198-.183zm-.183 1.516v-.785c-.282.03-.427.175-.427.373 0 .183.091.297.427.411zm.358.617v.808c.282-.03.442-.175.442-.389-.008-.19-.099-.312-.442-.419z"/><path fill="#24cca7" style="fill:var(--color8, #24cca7)" d="M5.585 8.267H3.002c-.842 0-1.524.682-1.524 1.524v2.583c0 .842.682 1.524 1.524 1.524h2.583c.842 0 1.524-.682 1.524-1.524V9.791c0-.842-.682-1.524-1.524-1.524z"/><path fill="#fff" style="fill:var(--color6, #fff)" d="M5.539 12.198H2.91l-.648-2.331h3.695l.137-.541h.419v.152h-.297l-.678 2.72zm-2.507-.152h2.392l.503-2.027H2.476l.556 2.027z"/><path fill="#fff" style="fill:var(--color6, #fff)" d="m3.284 12.663-.145-.061.236-.556h1.79l.19.564-.145.046-.16-.457H3.48l-.198.465zM5.89 10.4H2.538v.152H5.89V10.4zm-.184.565-3.032.013.001.152 3.032-.013-.001-.152zm-.121.593h-2.75v.152h2.75v-.152z"/><path fill="#fff" style="fill:var(--color6, #fff)" d="M4.32 9.958h-.152v2.171h.152V9.958zm-.59-.01-.152.012.174 2.172.152-.012-.174-2.172zm-.655-.009-.15.028.4 2.173.15-.027-.4-2.173zm1.677.011-.175 2.172.152.012.175-2.172-.152-.012zm.656-.014-.399 2.173.15.028.399-2.173-.15-.027zM3.215 12.96c-.183 0-.328-.145-.328-.328s.145-.328.328-.328.328.145.328.328-.152.328-.328.328zm0-.503c-.099 0-.175.076-.175.175s.076.175.175.175c.099 0 .175-.076.175-.175s-.084-.175-.175-.175zm2.065.503c-.183 0-.328-.145-.328-.328s.145-.328.328-.328.328.145.328.328-.145.328-.328.328zm0-.503c-.099 0-.175.076-.175.175s.076.175.175.175c.099 0 .175-.076.175-.175s-.084-.175-.175-.175z"/><path fill="#4a56e2" style="fill:var(--color3, #4a56e2)" d="M18.476 31.962c7.717 0 13.973-.829 13.973-1.851s-6.256-1.851-13.973-1.851-13.973.829-13.973 1.851c0 1.023 6.256 1.851 13.973 1.851z"/><path fill="#4a56e2" style="fill:var(--color3, #4a56e2)" d="M4.145 29.92c2.239 0 4.053-.348 4.053-.777s-1.815-.777-4.053-.777c-2.239 0-4.053.348-4.053.777s1.815.777 4.053.777z"/><path fill="#263238" style="fill:var(--color9, #263238)" d="M19.81 1.623H7.589c-.686 0-1.234.564-1.234 1.257v25.158c0 .693.556 1.257 1.234 1.257H19.81c.686 0 1.234-.564 1.234-1.257V2.88c0-.693-.549-1.257-1.234-1.257zm.464 25.638c0 .663-.495 1.196-1.105 1.196H8.236c-.61 0-1.112-.533-1.112-1.196V3.84c0-1.349.495-1.417 1.112-1.417h2.187c.13 0 .229.145.229.328v.076c0 .419.229.419.51.419h5.067c.282 0 .51 0 .51-.419v-.076c0-.183.099-.328.229-.328h2.187c.61 0 1.105.175 1.105 1.417v23.421h.015z"/><path fill="#fff" style="fill:var(--color6, #fff)" d="M20.274 4.069v23.192c0 .663-.495 1.196-1.105 1.196H8.236c-.61 0-1.112-.533-1.112-1.196V4.069c0-1.349.495-1.646 1.112-1.646h2.187c.13 0 .229.145.229.328v.076c0 .419.229.419.51.419h5.067c.282 0 .51 0 .51-.419v-.076c0-.183.099-.328.229-.328h2.187c.625 0 1.12.411 1.12 1.646z"/><path fill="#fff" style="fill:var(--color6, #fff)" d="M14.392 2.72h-1.379c-.046 0-.084-.038-.084-.084s.038-.084.084-.084h1.379c.046 0 .084.038.084.084s-.038.084-.084.084z"/><path fill="#c7c7c7" style="fill:var(--color10, #c7c7c7)" d="M14.4 15.436h-1.592v.206H14.4v-.206z"/><path fill="#ffd8d0" style="fill:var(--color1, #ffd8d0)" d="M10.697 5.638H8.564a.61.61 0 0 0-.61.61v2.133c0 .337.273.61.61.61h2.133a.61.61 0 0 0 .61-.61V6.248a.61.61 0 0 0-.61-.61z"/><path fill="#263238" style="fill:var(--color9, #263238)" d="m9.989 7.749-.442-.145s-.229.175-.381-.122c0 0-.343.099-.457-.259 0 0-.419-.13-.297-.373.122-.236.457.015.457.015s.335-.03.45.312c0 0 .32 0 .32.297l.35.274z"/><path fill="#fff" style="fill:var(--color6, #fff)" d="M8.61 6.941c.122.061.236.122.35.19.114.061.236.13.35.198l.343.206c.114.069.229.137.335.221l-.084-.061-.084-.053-.175-.099-.686-.396a13.547 13.547 0 0 1-.35-.206z"/><path fill="#263238" style="fill:var(--color9, #263238)" d="m10.011 7.733.008-.465s.236-.16.008-.396c0 0 .206-.29-.099-.51 0 0 .015-.442-.251-.404s-.137.434-.137.434-.137.305.152.533c0 0-.107.305.175.396l.145.411z"/><path fill="#fff" style="fill:var(--color6, #fff)" d="M9.699 6.164c.03.13.053.259.076.389l.19.99.046.198c-.038-.13-.069-.259-.099-.389s-.053-.259-.084-.389c-.023-.13-.053-.259-.076-.396-.015-.137-.03-.274-.053-.404z"/><path fill="#455a64" style="fill:var(--color11, #455a64)" d="m10.042 7.802-.434-.45s-.366.091-.396-.343c0 0-.472-.061-.411-.556 0 0-.442-.381-.168-.61.274-.221.549.259.549.259s.419.145.381.617c0 0 .389.168.236.526l.244.556z"/><path fill="#fff" style="fill:var(--color6, #fff)" d="M8.914 6.088c.107.13.213.267.312.411.023.038.053.069.076.107l.076.107c.023.038.046.069.069.107s.046.069.069.107.091.145.137.213l.069.107.061.107c.091.145.168.297.251.45l-.122-.213-.137-.213-.274-.434c-.046-.069-.091-.145-.145-.213l-.069-.107-.076-.107c-.046-.069-.099-.137-.145-.213-.053-.076-.107-.145-.152-.213z"/><path fill="#fff" style="fill:var(--color6, #fff)" d="M10.735 7.794c.008.008.015.023.023.03.213.335-.069.594-.076.716s.084.198.03.244c-.053.038-.099-.076-.221-.107-.091-.023-.335.084-.549-.03-.015-.008-.038-.023-.053-.03a.301.301 0 0 1-.099-.099c-.008-.008-.015-.023-.023-.03l-.015-.015a.622.622 0 0 1-.122-.381c0-.023.008-.053.008-.076a.59.59 0 0 1 .251-.366c.206-.145.48-.183.701.008.015.015.03.023.046.038.03.03.053.061.084.091.008 0 .015 0 .015.008z"/><path fill="#dbdbdb" style="fill:var(--color12, #dbdbdb)" d="m10.194 8.396.03.046-.282.206c-.015-.008-.038-.023-.053-.03l.305-.221zm-.236-.068.03.046-.198.137c-.008-.008-.015-.023-.023-.03l-.015-.015.206-.137zm.777-.534c.008.008.015.023.023.03l-.198.137-.03-.046.198-.137c0 .008.008.008.008.015zm-.091-.106-.137.099-.03-.046.13-.091.038.038zm-.846.205.03.046-.198.137c0-.023.008-.053.008-.076l.16-.107z"/><path fill="#a6a6a6" style="fill:var(--color4, #a6a6a6)" d="M9.013 9.265c.008 0 .015.008.015.015v.023c.046 0 .076.015.107.046.008.008.008.008.008.015s-.008.015-.015.015c0 0-.008 0-.008-.008a.156.156 0 0 0-.091-.038v.168c.091.023.13.053.13.114s-.053.107-.13.114v.046c0 .008-.008.015-.015.015s-.015-.008-.015-.015v-.046a.23.23 0 0 1-.137-.061c-.008 0-.008-.008-.008-.015s.008-.015.015-.015.008 0 .008.008c.03.03.069.053.122.053v-.175c-.091-.023-.13-.053-.13-.114s.053-.107.13-.107V9.28c.008-.015.008-.015.015-.015zm-.007.228v-.168c-.061 0-.099.038-.099.084 0 .038.015.061.099.084zm.023.038v.168c.061 0 .099-.038.099-.084s-.015-.069-.099-.084zm.213.168.198-.183a.121.121 0 0 0 .038-.084c0-.023-.008-.053-.03-.076s-.053-.038-.084-.038a.1.1 0 0 0-.076.03l-.023.015c-.008.008-.015.008-.023 0s-.008-.015 0-.023l.023-.023a.156.156 0 0 1 .091-.038c.038 0 .076.015.099.046s.038.061.038.091a.15.15 0 0 1-.046.107l-.168.152h.198c.008 0 .015.008.015.015s-.008.015-.015.015h-.236c-.008 0-.008 0-.008-.008 0 .015 0 .008.008 0zm.404-.038c.015 0 .03.015.03.03s-.015.03-.03.03-.03-.015-.03-.03.015-.03.03-.03zm.106.023c-.008-.008-.008-.015 0-.023s.015-.008.023 0c.023.023.053.03.084.03s.061-.008.084-.03c.023-.023.03-.053.03-.084s-.008-.061-.03-.084c-.023-.023-.053-.03-.084-.03s-.061.008-.084.03c-.008.008-.015.008-.023 0v-.015l.023-.175c0-.008 0-.008.008-.008h.206c.008 0 .015.008.015.015s-.008.015-.015.015h-.183l-.015.13a.131.131 0 0 1 .076-.023c.038 0 .076.015.099.046.03.03.046.061.046.099s-.015.076-.046.099a.15.15 0 0 1-.099.046c-.053 0-.091-.008-.114-.038zm.366-.175c0-.061.015-.107.038-.152.023-.038.061-.061.107-.061s.084.023.107.061c.023.038.038.091.038.152s-.015.107-.038.152c-.023.038-.061.061-.107.061s-.084-.023-.107-.061c-.03-.038-.038-.091-.038-.152zm.023 0c0 .053.015.099.038.13s.053.053.084.053c.03 0 .061-.015.084-.053.023-.03.038-.076.038-.13s-.015-.099-.038-.13c-.023-.03-.053-.053-.084-.053s-.061.015-.084.053a.235.235 0 0 0-.038.13z"/><path fill="#ffd8d0" style="fill:var(--color1, #ffd8d0)" d="M14.659 5.638h-2.133a.61.61 0 0 0-.61.61v2.133c0 .337.273.61.61.61h2.133a.61.61 0 0 0 .61-.61V6.248a.61.61 0 0 0-.61-.61z"/><path fill="#fff" style="fill:var(--color6, #fff)" d="M14.179 7.764c.427.434.853.884.853.884-.023.114-.152.145-.152.145s-.442-.45-.861-.869l-.198-.198c-.061-.061-.122-.122-.175-.183l-.03-.03c-.175-.175-.305-.305-.343-.35-.19-.198-1.128-.602-1.128-.602s-.076-.053.023-.183c0 0 .366.175.701.343l-.792-.503s-.008-.076.069-.137l.45.297-.404-.389s.008-.061.122-.114l.701.724-.495-.655s.053-.069.122-.091c0 0 .305.465.739 1.036l-.45-.77s.038-.053.122-.061c0 0 .358.846.731 1.28.008.008.015.023.03.03.015.015.03.03.038.046l.29.29c.008.03.023.046.038.061z"/><path fill="#455a64" style="fill:var(--color11, #455a64)" d="M13.044 6.08s.358.846.731 1.28l-.16.152c-.175-.175-.305-.305-.343-.35-.19-.198-1.128-.602-1.128-.602s-.076-.053.023-.183c0 0 .366.175.701.343l-.792-.503s-.008-.076.069-.137l.45.297-.404-.389s.008-.061.122-.114l.701.724-.495-.655s.053-.069.122-.091c0 0 .305.465.739 1.036l-.45-.77c-.008.023.023-.03.114-.038zm.937 1.493-.16.152c-.061-.061-.122-.122-.175-.183l.16-.152c.015.015.03.03.038.046l.137.137zm.122.115-.16.152-.091-.091.16-.152c.03.038.061.061.091.091zm.076.076-.16.152-.046-.046.16-.152.046.046z"/><path fill="#a6a6a6" style="fill:var(--color4, #a6a6a6)" d="M13.013 9.265c.008 0 .015.008.015.015v.023c.046 0 .076.015.107.046.008.008.008.008.008.015s-.008.015-.015.015c0 0-.008 0-.008-.008a.156.156 0 0 0-.091-.038v.168c.091.023.13.053.13.114s-.053.107-.13.114v.046c0 .008-.008.015-.015.015s-.015-.008-.015-.015v-.046a.23.23 0 0 1-.137-.061c-.008 0-.008-.008-.008-.015s.008-.015.015-.015.008 0 .008.008c.03.03.069.053.122.053v-.175c-.091-.023-.13-.053-.13-.114s.053-.107.13-.107V9.28c0-.015 0-.015.015-.015zm-.015.228v-.168c-.061 0-.099.038-.099.084 0 .038.015.061.099.084zm.023.038v.168c.061 0 .099-.038.099-.084s-.015-.069-.099-.084zm.282-.19-.061.038h-.008c-.008 0-.008 0-.015-.008s0-.015.008-.023l.084-.053c.008 0 .015 0 .023.008v.396c0 .008-.008.015-.015.015s-.015-.008-.015-.015v-.358zm.183.32c.015 0 .03.015.03.03s-.015.03-.03.03-.03-.015-.03-.03.015-.03.03-.03zm.084-.152c0-.061.015-.107.038-.152.023-.038.061-.061.107-.061s.084.023.107.061c.023.038.038.091.038.152s-.015.107-.038.152c-.023.038-.061.061-.107.061s-.084-.023-.107-.061a.297.297 0 0 1-.038-.152zm.03 0c0 .053.015.099.038.13s.053.053.084.053c.03 0 .061-.015.084-.053.023-.03.038-.076.038-.13s-.015-.099-.038-.13c-.023-.03-.053-.053-.084-.053s-.061.015-.084.053a.235.235 0 0 0-.038.13zm.404 0c0-.061.015-.107.038-.152.023-.038.061-.061.107-.061s.084.023.107.061c.023.038.038.091.038.152s-.015.107-.038.152c-.023.038-.061.061-.107.061s-.084-.023-.107-.061a.297.297 0 0 1-.038-.152zm.03 0c0 .053.015.099.038.13s.053.053.084.053c.03 0 .061-.015.084-.053.023-.03.038-.076.038-.13s-.015-.099-.038-.13c-.023-.03-.053-.053-.084-.053s-.061.015-.084.053a.235.235 0 0 0-.038.13z"/><path fill="#ffd8d0" style="fill:var(--color1, #ffd8d0)" d="M18.613 5.638H16.48a.61.61 0 0 0-.61.61v2.133c0 .337.273.61.61.61h2.133a.61.61 0 0 0 .61-.61V6.248a.61.61 0 0 0-.61-.61z"/><path fill="#fff" style="fill:var(--color6, #fff)" d="M16.549 7.718c.259.853 1.067.747 1.295.678s.952-.427.693-1.288c-.259-.853-1.12-.655-1.272-.61-.175.053-.975.366-.716 1.219z"/><path fill="#455a64" style="fill:var(--color11, #455a64)" d="M17.341 6.621s.038.32.602.13c-.008 0-.389-.411-.602-.13z"/><path fill="#455a64" style="fill:var(--color11, #455a64)" d="M17.394 6.75s.267.015.19-.465c0 0-.381.251-.19.465z"/><path fill="#455a64" style="fill:var(--color11, #455a64)" d="M17.371 6.667s-.091.251-.503-.015c0 0 .389-.251.503.015z"/><path fill="#455a64" style="fill:var(--color11, #455a64)" d="M17.356 6.606s-.244.206.229.571c0-.008.122-.549-.229-.571z"/><path fill="#455a64" style="fill:var(--color11, #455a64)" d="M17.326 6.651s-.358-.099-.312.51c.008 0 .549-.19.312-.51z"/><path fill="#263238" style="fill:var(--color9, #263238)" d="M17.387 6.728s.046-.32-.221-.541c0 0-.152 0-.19.16 0 0 .305.168.328.45l.069-.046z"/><path fill="#a6a6a6" style="fill:var(--color4, #a6a6a6)" d="M16.975 9.265c.008 0 .015.008.015.015v.023c.046 0 .076.015.107.046.008.008.008.008.008.015s-.008.015-.015.015c0 0-.008 0-.008-.008a.156.156 0 0 0-.091-.038v.168c.091.023.13.053.13.114s-.053.107-.13.114v.046c0 .008-.008.015-.015.015s-.015-.008-.015-.015v-.046a.23.23 0 0 1-.137-.061c-.008 0-.008-.008-.008-.015s.008-.015.015-.015.008 0 .008.008c.03.03.069.053.122.053v-.175c-.091-.023-.13-.053-.13-.114s.053-.107.13-.107V9.28c0-.015.008-.015.015-.015zm-.015.228v-.168c-.061 0-.099.038-.099.084.008.038.023.061.099.084zm.03.038v.168c.061 0 .099-.038.099-.084s-.023-.069-.099-.084zm.282-.19-.061.038h-.008c-.008 0-.008 0-.015-.008s0-.015.008-.023l.084-.053c.008 0 .015 0 .023.008v.396c0 .008-.008.015-.015.015s-.015-.008-.015-.015v-.358zm.176.32c.015 0 .03.015.03.03s-.015.03-.03.03-.03-.015-.03-.03.015-.03.03-.03zm.106.023c-.008-.008-.008-.015 0-.023s.015-.008.023 0c.023.023.053.03.084.03s.061-.008.084-.03c.023-.023.03-.053.03-.084s-.008-.061-.03-.084c-.023-.023-.053-.03-.084-.03s-.061.008-.084.03c-.008.008-.015.008-.023 0v-.015l.023-.175c0-.008 0-.008.008-.008h.206c.008 0 .015.008.015.015s-.008.015-.015.015h-.19l-.015.13a.131.131 0 0 1 .076-.023c.038 0 .076.015.099.046.03.03.046.061.046.099s-.015.076-.046.099a.15.15 0 0 1-.099.046c-.046 0-.076-.008-.107-.038zm.366-.175c0-.061.015-.107.038-.152.023-.038.061-.061.107-.061s.084.023.107.061c.023.038.038.091.038.152s-.015.107-.038.152c-.023.038-.061.061-.107.061s-.084-.023-.107-.061a.297.297 0 0 1-.038-.152zm.03 0c0 .053.015.099.038.13s.053.053.084.053c.03 0 .061-.015.084-.053.023-.03.038-.076.038-.13s-.015-.099-.038-.13c-.023-.03-.053-.053-.084-.053s-.061.015-.084.053a.235.235 0 0 0-.038.13z"/><path fill="#ffd8d0" style="fill:var(--color1, #ffd8d0)" d="M10.697 10.53H8.564a.61.61 0 0 0-.61.61v2.133c0 .337.273.61.61.61h2.133a.61.61 0 0 0 .61-.61V11.14a.61.61 0 0 0-.61-.61z"/><path fill="#fff" style="fill:var(--color6, #fff)" d="M10.56 11.916v1.653c0 .099-.206.16-.899.16s-.891-.061-.891-.16v-1.653c0-.442.488-.724.488-.815v-.335h.815v.335c0 .091.488.373.488.815z"/><path fill="#37474f" style="fill:var(--color13, #37474f)" d="M10.126 10.621h-.914v.282h.914v-.282zm.434 1.737H8.77v.891h1.79v-.891z"/><path fill="#a6a6a6" style="fill:var(--color4, #a6a6a6)" d="M8.983 14.179c.008 0 .015.008.015.015v.023c.046 0 .076.015.107.046.008.008.008.008.008.015s-.008.015-.015.015c0 0-.008 0-.008-.008a.156.156 0 0 0-.091-.038v.168c.091.023.13.053.13.114s-.053.107-.13.114v.046c0 .008-.008.015-.015.015s-.015-.008-.015-.015v-.046a.23.23 0 0 1-.137-.061c-.008 0-.008-.008-.008-.015s.008-.015.015-.015.008 0 .008.008c.03.03.069.053.122.053v-.175c-.091-.023-.13-.053-.13-.114s.053-.107.13-.107v-.023c0-.008.008-.015.015-.015zm-.008.229v-.168c-.061 0-.099.038-.099.084 0 .038.015.069.099.084zm.023.038v.168c.061 0 .099-.038.099-.084 0-.038-.023-.069-.099-.084zm.465-.206-.107.114a.149.149 0 0 1 .122.137.122.122 0 0 1-.046.099.15.15 0 0 1-.099.046.122.122 0 0 1-.099-.046c-.008-.008-.008-.015 0-.023s.015-.008.023 0c.023.023.053.03.084.03s.061-.008.084-.03c.023-.023.03-.053.03-.084s-.008-.061-.03-.084a.113.113 0 0 0-.084-.03c-.008 0-.008 0-.015-.008s-.008-.015 0-.023l.107-.107h-.16c-.008 0-.015-.008-.015-.015s.008-.015.015-.015h.198c.008 0 .015.008.015.015l-.023.023c.008 0 .008 0 0 0zm.167.343c.015 0 .03.015.03.03s-.015.03-.03.03-.03-.015-.03-.03c0-.023.008-.03.03-.03zm.084-.153c0-.061.015-.107.038-.152.023-.038.061-.061.107-.061s.084.023.107.061c.023.038.038.091.038.152s-.015.107-.038.152c-.023.038-.061.061-.107.061s-.084-.023-.107-.061a.345.345 0 0 1-.038-.152zm.031 0c0 .053.015.099.038.13s.053.053.084.053c.03 0 .061-.015.084-.053.023-.03.038-.076.038-.13s-.015-.099-.038-.13c-.023-.03-.053-.053-.084-.053s-.061.015-.084.053a.216.216 0 0 0-.038.13zm.404 0c0-.061.015-.107.038-.152.023-.038.061-.061.107-.061s.084.023.107.061c.023.038.038.091.038.152s-.015.107-.038.152c-.023.038-.061.061-.107.061s-.084-.023-.107-.061a.345.345 0 0 1-.038-.152zm.03 0c0 .053.015.099.038.13s.053.053.084.053c.03 0 .061-.015.084-.053.023-.03.038-.076.038-.13s-.015-.099-.038-.13c-.023-.03-.053-.053-.084-.053s-.061.015-.084.053a.216.216 0 0 0-.038.13z"/><path fill="#ffd8d0" style="fill:var(--color1, #ffd8d0)" d="M14.659 10.53h-2.133a.61.61 0 0 0-.61.61v2.133c0 .337.273.61.61.61h2.133a.61.61 0 0 0 .61-.61V11.14a.61.61 0 0 0-.61-.61z"/><path fill="#fff" style="fill:var(--color6, #fff)" d="M14.301 11.253h-1.394v2.476h1.394v-2.476z"/><path fill="#455a64" style="fill:var(--color11, #455a64)" d="M14.301 12.168h-1.394v1.044h1.394v-1.044z"/><path fill="#fff" style="fill:var(--color6, #fff)" d="M14.301 11.253h-1.394l.175-.343h1.051l.168.343z"/><path fill="#dbdbdb" style="fill:var(--color12, #dbdbdb)" d="M14.301 11.253h-1.394l.175-.343h1.051l.168.343z"/><path fill="#fff" style="fill:var(--color6, #fff)" d="M14.126 10.621h-1.051v.29h1.051v-.29z"/><path fill="#a6a6a6" style="fill:var(--color4, #a6a6a6)" d="M12.96 14.179c.008 0 .015.008.015.015v.023c.046 0 .076.015.107.046.008.008.008.008.008.015s-.008.015-.015.015c0 0-.008 0-.008-.008a.156.156 0 0 0-.091-.038v.168c.091.023.13.053.13.114s-.053.107-.13.114v.046c0 .008-.008.015-.015.015s-.015-.008-.015-.015v-.046a.23.23 0 0 1-.137-.061c-.008 0-.008-.008-.008-.015s.008-.015.015-.015.008 0 .008.008c.03.03.069.053.122.053v-.175c-.091-.023-.13-.053-.13-.114s.053-.107.13-.107v-.023c0-.008.008-.015.015-.015zm-.015.229v-.168c-.061 0-.099.038-.099.084 0 .038.023.069.099.084zm.023.038v.168c.061 0 .099-.038.099-.084.008-.038-.015-.069-.099-.084zm.213.167.198-.183a.121.121 0 0 0 .038-.084c0-.023-.008-.053-.03-.076s-.053-.038-.084-.038a.1.1 0 0 0-.076.03l-.023.015c-.008.008-.015.008-.023 0s-.008-.015 0-.023l.023-.023a.156.156 0 0 1 .091-.038c.038 0 .076.015.099.046s.038.061.038.091a.15.15 0 0 1-.046.107l-.168.152h.198c.008 0 .015.008.015.015s-.008.015-.015.015h-.236c-.008 0-.008 0-.008-.008 0 .015 0 .008.008 0zm.404-.03c.015 0 .03.015.03.03s-.015.03-.03.03-.03-.015-.03-.03c0-.023.015-.03.03-.03zm.106.015c-.008-.008-.008-.015 0-.023s.015-.008.023 0c.023.023.053.03.084.03s.061-.008.084-.03c.023-.023.03-.053.03-.084s-.008-.061-.03-.084c-.023-.023-.053-.03-.084-.03s-.061.008-.084.03c-.008.008-.015.008-.023 0v-.015l.023-.175c0-.008 0-.008.008-.008h.206c.008 0 .015.008.015.015s-.008.015-.015.015h-.183l-.015.13a.131.131 0 0 1 .076-.023c.038 0 .076.015.099.046.03.03.046.061.046.099s-.015.076-.046.099a.15.15 0 0 1-.099.046c-.053.008-.091-.008-.114-.038zm.366-.168c0-.061.015-.107.038-.152.023-.038.061-.061.107-.061s.084.023.107.061c.023.038.038.091.038.152s-.015.107-.038.152c-.023.038-.061.061-.107.061s-.084-.023-.107-.061a.345.345 0 0 1-.038-.152zm.031 0c0 .053.015.099.038.13s.053.053.084.053c.03 0 .061-.015.084-.053.023-.03.038-.076.038-.13s-.015-.099-.038-.13c-.023-.03-.053-.053-.084-.053s-.061.015-.084.053a.216.216 0 0 0-.038.13z"/><path fill="#ffd8d0" style="fill:var(--color1, #ffd8d0)" d="M18.613 10.53H16.48a.61.61 0 0 0-.61.61v2.133c0 .337.273.61.61.61h2.133a.61.61 0 0 0 .61-.61V11.14a.61.61 0 0 0-.61-.61z"/><path fill="#fff" style="fill:var(--color6, #fff)" d="M18.194 11.916v1.653c0 .099-.145.16-.648.16-.495 0-.648-.061-.648-.16v-1.653c0-.442.35-.724.35-.815v-.335h.587v.335c.008.091.358.373.358.815z"/><path fill="#455a64" style="fill:var(--color11, #455a64)" d="M17.874 10.621h-.655v.282h.655v-.282z"/><path fill="#dbdbdb" style="fill:var(--color12, #dbdbdb)" d="M18.004 12.48h-.922v.64h.922v-.64z"/><path fill="#a6a6a6" style="fill:var(--color4, #a6a6a6)" d="M16.876 14.179c.008 0 .015.008.015.015v.023c.046 0 .076.015.107.046.008.008.008.008.008.015s-.008.015-.015.015c0 0-.008 0-.008-.008a.156.156 0 0 0-.091-.038v.168c.091.023.13.053.13.114s-.053.107-.13.114v.046c0 .008-.008.015-.015.015s-.015-.008-.015-.015v-.046a.23.23 0 0 1-.137-.061c-.008 0-.008-.008-.008-.015s.008-.015.015-.015.008 0 .008.008c.03.03.069.053.122.053v-.175c-.091-.023-.13-.053-.13-.114s.053-.107.13-.107v-.023c0-.008.008-.015.015-.015zm-.015.229v-.168c-.061 0-.099.038-.099.084 0 .038.023.069.099.084zm.023.038v.168c.061 0 .099-.038.099-.084.008-.038-.015-.069-.099-.084zm.213.167.198-.183a.121.121 0 0 0 .038-.084c0-.023-.008-.053-.03-.076s-.053-.038-.084-.038a.1.1 0 0 0-.076.03l-.023.015c-.008.008-.015.008-.023 0s-.008-.015 0-.023l.023-.023a.156.156 0 0 1 .091-.038c.038 0 .076.015.099.046s.038.061.038.091a.15.15 0 0 1-.046.107l-.168.152h.198c.008 0 .015.008.015.015s-.008.015-.015.015h-.236c-.008 0-.008 0-.008-.008 0 .015 0 .008.008 0zm.404-.03c.015 0 .03.015.03.03s-.015.03-.03.03-.03-.015-.03-.03c0-.023.015-.03.03-.03zm.091-.153c0-.061.015-.107.038-.152.023-.038.061-.061.107-.061s.084.023.107.061c.023.038.038.091.038.152s-.015.107-.038.152c-.023.038-.061.061-.107.061s-.084-.023-.107-.061a.345.345 0 0 1-.038-.152zm.031 0c0 .053.015.099.038.13s.053.053.084.053c.03 0 .061-.015.084-.053.023-.03.038-.076.038-.13s-.015-.099-.038-.13c-.023-.03-.053-.053-.084-.053s-.061.015-.084.053c-.03.03-.038.076-.038.13zm.396 0c0-.061.015-.107.038-.152.023-.038.061-.061.107-.061s.084.023.107.061c.023.038.038.091.038.152s-.015.107-.038.152c-.023.038-.061.061-.107.061s-.084-.023-.107-.061a.345.345 0 0 1-.038-.152zm.031 0c0 .053.015.099.038.13s.053.053.084.053c.03 0 .061-.015.084-.053.023-.03.038-.076.038-.13s-.015-.099-.038-.13c-.023-.03-.053-.053-.084-.053s-.061.015-.084.053a.216.216 0 0 0-.038.13z"/><path fill="#ffd8d0" style="fill:var(--color1, #ffd8d0)" d="M10.697 16.8H8.564a.61.61 0 0 0-.61.61v2.133c0 .337.273.61.61.61h2.133a.61.61 0 0 0 .61-.61V17.41a.61.61 0 0 0-.61-.61z"/><path fill="#fff" style="fill:var(--color6, #fff)" d="M8.853 18.53c0 .587.236 1.509.267 1.509h.983c.03 0 .366-.785.366-1.577 0-.823-.571-.968-.571-1.021v-.328h-.579v.32c0 .061-.465.366-.465 1.097zm1.105-.823c.282 0 .51.77.305.846-.29.107-.564-.846-.305-.846z"/><path fill="#ebebeb" style="fill:var(--color14, #ebebeb)" d="M9.684 17.707c.015-.198-.419-.152-.602.495-.137.488.015 1.501.503 1.501.579 0 .617-.853.579-.891-.03-.038-.549-.221-.48-1.105z"/><path fill="#455a64" style="fill:var(--color11, #455a64)" d="M9.204 17.295h.815l-.053-.358h-.709l-.053.358z"/><path fill="#a6a6a6" style="fill:var(--color4, #a6a6a6)" d="M8.983 20.571c.008 0 .015.008.015.015v.023c.046 0 .076.015.107.046.008.008.008.008.008.015s-.008.015-.015.015c0 0-.008 0-.008-.008a.156.156 0 0 0-.091-.038v.168c.091.023.13.053.13.114s-.053.107-.13.114v.046c0 .008-.008.015-.015.015s-.015-.008-.015-.015v-.046a.23.23 0 0 1-.137-.061c-.008 0-.008-.008-.008-.015s.008-.015.015-.015.008 0 .008.008c.03.03.069.053.122.053v-.175c-.091-.023-.13-.053-.13-.114s.053-.107.13-.107v-.023c.008-.008.008-.015.015-.015zm-.008.237v-.168c-.061 0-.099.038-.099.084 0 .038.015.061.099.084zm.023.038v.168c.061 0 .099-.038.099-.084s-.015-.069-.099-.084zm.221.152c-.008-.008-.008-.015 0-.023s.015-.008.023 0c.023.023.053.03.084.03s.061-.008.084-.03c.023-.023.03-.053.03-.084s-.008-.061-.03-.084c-.023-.023-.053-.03-.084-.03s-.061.008-.084.03c-.008.008-.015.008-.023 0v-.015l.023-.175c0-.008 0-.008.008-.008h.206c.008 0 .015.008.015.015s-.008.015-.015.015h-.183l-.015.13a.131.131 0 0 1 .076-.023c.038 0 .076.015.099.046.03.03.046.061.046.099s-.015.076-.046.099a.15.15 0 0 1-.099.046c-.046 0-.084-.008-.114-.038zm.404-.023c.015 0 .03.015.03.03s-.015.03-.03.03-.03-.015-.03-.03.015-.03.03-.03zm.091-.152c0-.061.015-.107.038-.152.023-.038.061-.061.107-.061s.084.023.107.061c.023.038.038.091.038.152s-.015.107-.038.152c-.023.038-.061.061-.107.061s-.084-.023-.107-.061a.297.297 0 0 1-.038-.152zm.031 0c0 .053.015.099.038.13s.053.053.084.053c.03 0 .061-.015.084-.053.023-.03.038-.076.038-.13s-.015-.099-.038-.13c-.023-.03-.053-.053-.084-.053s-.061.015-.084.053a.235.235 0 0 0-.038.13zm.404 0c0-.061.015-.107.038-.152.023-.038.061-.061.107-.061s.084.023.107.061c.023.038.038.091.038.152s-.015.107-.038.152c-.023.038-.061.061-.107.061s-.084-.023-.107-.061c-.03-.038-.038-.091-.038-.152zm.022 0c0 .053.015.099.038.13s.053.053.084.053c.03 0 .061-.015.084-.053.023-.03.038-.076.038-.13s-.015-.099-.038-.13c-.023-.03-.053-.053-.084-.053s-.061.015-.084.053a.235.235 0 0 0-.038.13z"/><path fill="#ffd8d0" style="fill:var(--color1, #ffd8d0)" d="M14.659 16.8h-2.133a.61.61 0 0 0-.61.61v2.133c0 .337.273.61.61.61h2.133a.61.61 0 0 0 .61-.61V17.41a.61.61 0 0 0-.61-.61z"/><path fill="#fff" style="fill:var(--color6, #fff)" d="M14.56 19.535h-1.928a.35.35 0 0 1-.35-.35v-1.166c0-.19.152-.35.35-.35h1.928c.19 0 .35.152.35.35v1.166c0 .19-.16.35-.35.35z"/><path fill="#455a64" style="fill:var(--color11, #455a64)" d="M14.613 17.44h-2.027v.236h2.027v-.236zm.305.686h-2.636v.96h2.636v-.96z"/><path fill="#fff" style="fill:var(--color6, #fff)" d="M14.4 18.598c0 .221-.358.404-.8.404s-.8-.183-.8-.404.358-.404.8-.404.8.183.8.404z"/><path fill="#a6a6a6" style="fill:var(--color4, #a6a6a6)" d="M12.937 20.571c.008 0 .015.008.015.015v.023c.046 0 .076.015.107.046.008.008.008.008.008.015s-.008.015-.015.015c0 0-.008 0-.008-.008a.156.156 0 0 0-.091-.038v.168c.091.023.13.053.13.114s-.053.107-.13.114v.046c0 .008-.008.015-.015.015s-.015-.008-.015-.015v-.046a.23.23 0 0 1-.137-.061c-.008 0-.008-.008-.008-.015s.008-.015.015-.015.008 0 .008.008c.03.03.069.053.122.053v-.175c-.091-.023-.13-.053-.13-.114s.053-.107.13-.107v-.023c0-.008.008-.015.015-.015zm-.015.237v-.168c-.061 0-.099.038-.099.084 0 .038.023.061.099.084zm.03.038v.168c.061 0 .099-.038.099-.084s-.023-.069-.099-.084zm.45.106h-.236c-.008-.008-.008-.015 0-.023l.244-.305c.008-.008.015-.008.023 0 0 0 0 .008.008.008v.29h.03c.008 0 .015.008.015.015s-.008.015-.015.015h-.03v.076c0 .008-.008.015-.015.015s-.015-.008-.015-.015v-.076h-.008zm0-.03v-.251l-.198.251h.198zm.206.053c.015 0 .03.015.03.03s-.015.03-.03.03-.03-.015-.03-.03.015-.03.03-.03zm.106.023c-.008-.008-.008-.015 0-.023s.015-.008.023 0c.023.023.053.03.084.03s.061-.008.084-.03c.023-.023.03-.053.03-.084s-.008-.061-.03-.084c-.023-.023-.053-.03-.084-.03s-.061.008-.084.03c-.008.008-.015.008-.023 0v-.015l.023-.175c0-.008 0-.008.008-.008h.206c.008 0 .015.008.015.015s-.008.015-.015.015h-.183l-.015.13a.131.131 0 0 1 .076-.023c.038 0 .076.015.099.046.03.03.046.061.046.099s-.015.076-.046.099a.15.15 0 0 1-.099.046c-.053 0-.091-.008-.114-.038zm.366-.175c0-.061.015-.107.038-.152.023-.038.061-.061.107-.061s.084.023.107.061c.023.038.038.091.038.152s-.015.107-.038.152c-.023.038-.061.061-.107.061s-.084-.023-.107-.061a.297.297 0 0 1-.038-.152zm.03 0c0 .053.015.099.038.13s.053.053.084.053c.03 0 .061-.015.084-.053.023-.03.038-.076.038-.13s-.015-.099-.038-.13c-.023-.03-.053-.053-.084-.053s-.061.015-.084.053a.235.235 0 0 0-.038.13z"/><path fill="#ffd8d0" style="fill:var(--color1, #ffd8d0)" d="M18.613 16.8H16.48a.61.61 0 0 0-.61.61v2.133c0 .337.273.61.61.61h2.133a.61.61 0 0 0 .61-.61V17.41a.61.61 0 0 0-.61-.61z"/><path fill="#fff" style="fill:var(--color6, #fff)" d="M18.339 18.918v.891h-1.592v-.891c0-.312.069-1.128.792-1.128.731 0 .8.815.8 1.128z"/><path fill="#fff" style="fill:var(--color6, #fff)" d="M18.385 19.931h-1.684c-.046 0-.084-.038-.084-.084s.038-.084.084-.084h1.684c.046 0 .084.038.084.084s-.038.084-.084.084zm-.587-2.323h-.503v.381h.503v-.381z"/><path fill="#455a64" style="fill:var(--color11, #455a64)" d="M17.851 17.425h-.617v.251h.617v-.251z"/><path fill="#455a64" style="fill:var(--color11, #455a64)" d="M17.661 17.181h-.229v.29h.229v-.29z"/><path fill="#455a64" style="fill:var(--color11, #455a64)" d="M17.31 17.074c-.061.046-.084.137.008.19.076.046.48-.053.526-.053.046.008.145.053.16.053s.061-.023.053-.046c0-.023-.137-.122-.244-.145s-.419-.061-.503 0z"/><path fill="#a6a6a6" style="fill:var(--color4, #a6a6a6)" d="M16.891 20.571c.008 0 .015.008.015.015v.023c.046 0 .076.015.107.046.008.008.008.008.008.015s-.008.015-.015.015c0 0-.008 0-.008-.008a.156.156 0 0 0-.091-.038v.168c.091.023.13.053.13.114s-.053.107-.13.114v.046c0 .008-.008.015-.015.015s-.015-.008-.015-.015v-.046a.23.23 0 0 1-.137-.061c-.008 0-.008-.008-.008-.015s.008-.015.015-.015.008 0 .008.008c.03.03.069.053.122.053v-.175c-.091-.023-.13-.053-.13-.114s.053-.107.13-.107v-.023c0-.008.008-.015.015-.015zm-.015.237v-.168c-.061 0-.099.038-.099.084.008.038.023.061.099.084zm.031.038v.168c.061 0 .099-.038.099-.084s-.023-.069-.099-.084zm.464-.206-.107.114a.149.149 0 0 1 .122.137.122.122 0 0 1-.046.099.15.15 0 0 1-.099.046.122.122 0 0 1-.099-.046c-.008-.008-.008-.015 0-.023s.015-.008.023 0c.023.023.053.03.084.03s.061-.008.084-.03c.023-.023.03-.053.03-.084s-.008-.061-.03-.084a.113.113 0 0 0-.084-.03c-.008 0-.008 0-.015-.008s-.008-.015 0-.023l.107-.107h-.16c-.008 0-.015-.008-.015-.015s.008-.015.015-.015h.198c.008 0 .015.008.015.015l-.023.023c.008 0 0 0 0 0zm.16.335c.015 0 .03.015.03.03s-.015.03-.03.03-.03-.015-.03-.03.015-.03.03-.03zm.107.023c-.008-.008-.008-.015 0-.023s.015-.008.023 0c.023.023.053.03.084.03s.061-.008.084-.03c.023-.023.03-.053.03-.084s-.008-.061-.03-.084c-.023-.023-.053-.03-.084-.03s-.061.008-.084.03c-.008.008-.015.008-.023 0v-.015l.023-.175c0-.008 0-.008.008-.008h.206c.008 0 .015.008.015.015s-.008.015-.015.015h-.183l-.015.13a.131.131 0 0 1 .076-.023c.038 0 .076.015.099.046.03.03.046.061.046.099s-.015.076-.046.099a.15.15 0 0 1-.099.046c-.053 0-.084-.008-.114-.038zm.366-.175c0-.061.015-.107.038-.152.023-.038.061-.061.107-.061s.084.023.107.061c.023.038.038.091.038.152s-.015.107-.038.152c-.023.038-.061.061-.107.061s-.084-.023-.107-.061a.297.297 0 0 1-.038-.152zm.03 0c0 .053.015.099.038.13s.053.053.084.053c.03 0 .061-.015.084-.053.023-.03.038-.076.038-.13s-.015-.099-.038-.13c-.023-.03-.053-.053-.084-.053s-.061.015-.084.053a.235.235 0 0 0-.038.13z"/><path fill="#263238" style="fill:var(--color9, #263238)" d="M16.495 24.069h-5.783a.762.762 0 0 0-.762.762v.45c0 .421.341.762.762.762h5.783a.762.762 0 0 0 .762-.762v-.45a.762.762 0 0 0-.762-.762z"/><path fill="#fff" style="fill:var(--color6, #fff)" d="M11.078 25.189h-.213l-.046.114c-.008.023-.023.03-.046.03h-.015c-.023-.008-.038-.038-.03-.061l.19-.51c.008-.023.03-.03.046-.03.023 0 .038.008.046.03l.19.51c.008.023 0 .053-.03.061h-.015c-.023 0-.038-.008-.046-.03l-.03-.114zm-.038-.092-.069-.183-.069.183h.137zm.29.191v-.51c0-.03.023-.046.046-.046h.099a.306.306 0 0 1 0 .61h-.099c-.03-.008-.046-.03-.046-.053zm.091-.054h.053c.114 0 .206-.091.206-.206s-.091-.206-.206-.206h-.053v.411zm.503.054v-.51c0-.03.023-.046.046-.046h.099a.306.306 0 0 1 0 .61h-.099c-.023-.008-.046-.03-.046-.053zm.099-.054h.053c.114 0 .206-.091.206-.206s-.091-.206-.206-.206h-.053v.411zm1.158-.411h-.137v.465c0 .03-.023.046-.046.046s-.046-.023-.046-.046v-.465h-.137a.045.045 0 0 1-.046-.046c0-.03.023-.046.046-.046h.373a.05.05 0 0 1 .046.046c-.008.023-.03.046-.053.046zm.625-.023a.334.334 0 0 1 0 .442.303.303 0 0 1-.206.091c-.084 0-.16-.038-.213-.091s-.084-.137-.084-.221c0-.084.03-.16.084-.221s.13-.091.213-.091c.076 0 .152.038.206.091zm-.016.221c0-.061-.023-.114-.061-.152s-.084-.061-.137-.061-.107.023-.137.061c-.038.038-.061.091-.061.152s.023.114.061.152.084.061.137.061.099-.023.137-.061.061-.091.061-.152zm.503 0c0-.175.145-.312.32-.312.076 0 .145.023.198.069.023.015.023.046.008.069s-.046.023-.069.008a.216.216 0 0 0-.137-.046c-.061 0-.114.023-.152.061s-.061.091-.061.152.023.114.061.152.099.061.152.061.099-.015.137-.046a.057.057 0 0 1 .069.008c.015.023.015.053-.008.069a.297.297 0 0 1-.198.069.315.315 0 0 1-.32-.312zm.991.168h-.213l-.046.114c-.008.023-.023.03-.046.03h-.015c-.023-.008-.038-.038-.03-.061l.19-.51c.008-.023.03-.03.046-.03.023 0 .038.008.046.03l.19.51c.008.023 0 .053-.03.061h-.015c-.023 0-.038-.008-.046-.03l-.03-.114zm-.031-.092-.069-.183-.069.183h.137zm.686.16c.008.023-.008.053-.03.061h-.023c-.008 0-.023 0-.03-.008s-.023-.015-.03-.03c-.015-.023-.015-.053-.015-.107 0-.015-.008-.03-.008-.038l-.023-.023a.085.085 0 0 0-.046-.023h-.114v.19a.05.05 0 0 1-.046.046.045.045 0 0 1-.046-.046v-.51c0-.03.023-.046.046-.046h.152a.18.18 0 0 1 .183.183.177.177 0 0 1-.069.145l.03.03a.19.19 0 0 1 .03.091v.053c.023.008.03.023.038.03zm-.122-.343a.088.088 0 0 0-.091-.091h-.107v.175h.107c.053 0 .091-.038.091-.084zm.617-.091h-.137v.465c0 .03-.023.046-.046.046s-.046-.023-.046-.046v-.465h-.137a.045.045 0 0 1-.046-.046c0-.03.023-.046.046-.046h.373a.05.05 0 0 1 .046.046c-.008.023-.03.046-.053.046z"/><path fill="#f7a9a0" style="fill:var(--color15, #f7a9a0)" d="M22.019 30.72c.168.053 4.891-.008 5.067-.122.069-.046.099-.731.114-1.57v-.023c0-.175.008-.35.008-.526v-.076c.008-1.204-.015-2.453-.015-2.453l-3.162.03.091 2.43v.099l.023.503v.053s-1.798.83-1.981.983c-.175.137-.312.617-.145.67z"/><path fill="#ebebeb" style="fill:var(--color14, #ebebeb)" d="M22.019 30.72c.168.053 4.891-.008 5.067-.122.069-.046.099-.731.114-1.57v-.023c0-.175.008-.35.008-.526v-.076l-3.078.008v.099l.023.503v.053s-1.798.83-1.981.983c-.183.137-.32.617-.152.67z"/><path fill="#ffc727" style="fill:var(--color5, #ffc727)" d="M22.019 30.72c.099.03 1.935.023 3.368-.015.891-.023 1.638-.061 1.707-.107s.099-.716.114-1.531v-.069l-3.048.008v.053s-1.798.83-1.981.983c-.19.145-.328.625-.16.678z"/><path fill="#263238" style="fill:var(--color9, #263238)" d="M22.065 30.537c.8-.03 4.008-.076 4.8-.046.008 0 .008.008 0 .008-.792.046-4 .069-4.8.053-.015-.008-.015-.015 0-.015zm1.745-1.516c.312-.061.693-.023.937.198.008.008 0 .023-.015.015a4.887 4.887 0 0 0-.922-.183c-.023.008-.023-.03 0-.03zm-.221.137c.312-.061.693-.023.937.198.008.008 0 .023-.015.015a4.887 4.887 0 0 0-.922-.183c-.023.008-.023-.023 0-.03zm-.229.137c.312-.061.693-.023.937.198.008.008 0 .023-.015.015a4.887 4.887 0 0 0-.922-.183c-.015.008-.023-.023 0-.03z"/><path fill="#263238" style="fill:var(--color9, #263238)" d="M23.543 28.785c.221.168.51.236.777.328.03.008.046-.015.046-.038.008 0 .008-.008.008-.008a1.646 1.646 0 0 0-.495-.709c-.13-.107-.366-.183-.48-.008-.114.152.015.335.145.434zm-.084-.252c-.061-.343.312-.168.404-.084.061.053.114.114.168.175.107.13.198.274.297.411a5.902 5.902 0 0 0-.381-.145c-.152-.053-.457-.168-.488-.358z"/><path fill="#263238" style="fill:var(--color9, #263238)" d="M25.41 28.571c-.076-.198-.32-.175-.472-.099a1.624 1.624 0 0 0-.64.579c0 .008 0 .008.008.015-.008.023.008.053.038.053.274-.03.571-.03.83-.145.145-.069.312-.221.236-.404zm-.663.412c-.137.015-.267.03-.404.053.122-.114.244-.229.381-.328.069-.046.137-.099.206-.137.114-.061.51-.145.373.175-.076.175-.396.213-.556.236zm-2.286.922a.643.643 0 0 1 .48.19c.099.107.19.259.183.427 0 .008-.008.008-.008 0a.744.744 0 0 0-.655-.602c-.008-.008-.008-.015 0-.015zm4.206-.137c.358-.008.366.556.008.556-.366 0-.373-.556-.008-.556z"/><path fill="#263238" style="fill:var(--color9, #263238)" d="M25.379 30.697c.891-.023 1.638-.061 1.707-.107s.099-.716.114-1.531c-.366.328-1.28 1.143-1.821 1.638z"/><path fill="#455a64" style="fill:var(--color11, #455a64)" d="M28.16 12.335s-.709 7.985-.823 8.594c-.03.137-.046.891-.053 1.867-.023 2.118-.008 5.935-.008 5.935h-3.33s.099-6.613.244-7.832c.145-1.219 1.09-8.564 1.09-8.564h2.88z"/><path fill="#263238" style="fill:var(--color9, #263238)" d="M24.091 28.145c.518-.008.373-.015.891-.023.251 0 1.928-.015 2.164.023.008 0 .008.008 0 .008-.236.038-1.912.023-2.164.023-.518-.008-.373-.008-.891-.023-.008.008-.008-.008 0-.008zm2.553-3.779c0-.48.008-.968.008-1.448 0-.465 0-.937.023-1.402.046-.945.236-1.874.373-2.811s.251-1.874.35-2.819c.114-1.059.221-2.11.328-3.17 0-.008.015-.008.008 0-.16 1.882-.335 3.771-.594 5.646-.069.465-.137.93-.213 1.394-.076.472-.152.937-.19 1.417-.038.465-.046.93-.046 1.402-.008.48-.008.968-.015 1.448-.008 1.074-.023 2.72-.03 3.794 0 .023-.03.023-.03 0 .015-.96.023-2.491.03-3.451z"/><path fill="#263238" style="fill:var(--color9, #263238)" d="M28.869 12.335s-1.41 7.985-1.524 8.594c-.03.137-.046.891-.053 1.867l-1.585-10.461h3.162z"/><path fill="#f7a9a0" style="fill:var(--color15, #f7a9a0)" d="M25.882 31.002c.168.038 4.876-.35 5.051-.48.069-.046.046-.739 0-1.57v-.023c-.008-.175-.023-.35-.03-.526 0-.023 0-.046-.008-.076-.076-1.204-.183-2.446-.183-2.446l-3.154.259.267 2.415.008.099.053.503.008.053s-1.737.96-1.905 1.12c-.168.145-.274.625-.107.67z"/><path fill="#ebebeb" style="fill:var(--color14, #ebebeb)" d="M25.882 31.002c.168.038 4.876-.35 5.051-.48.069-.046.046-.739 0-1.57v-.023c-.008-.175-.023-.35-.03-.526 0-.023 0-.046-.008-.076l-3.07.229.008.099.053.503.008.053s-1.737.96-1.905 1.12c-.168.145-.274.625-.107.67z"/><path fill="#ffc727" style="fill:var(--color5, #ffc727)" d="M25.882 31.002c.168.038 4.876-.35 5.051-.48.069-.046.046-.739 0-1.57v-.023l-3.04.221.008.053s-1.737.96-1.905 1.12c-.175.152-.282.632-.114.678z"/><path fill="#263238" style="fill:var(--color9, #263238)" d="M25.92 30.811c.792-.084 3.992-.358 4.785-.381.008 0 .008.008 0 .008-.785.099-3.992.35-4.785.389-.015 0-.015-.015 0-.015zm1.638-1.63c.305-.084.693-.069.952.137.008.008 0 .023-.015.023a4.772 4.772 0 0 0-.937-.114c-.023-.008-.023-.046 0-.046z"/><path fill="#263238" style="fill:var(--color9, #263238)" d="M27.337 29.333c.305-.084.693-.069.952.137.008.008 0 .023-.015.023a4.772 4.772 0 0 0-.937-.114c-.015-.008-.015-.038 0-.046z"/><path fill="#263238" style="fill:var(--color9, #263238)" d="M27.124 29.486c.305-.084.693-.069.952.137.008.008 0 .023-.015.023a4.772 4.772 0 0 0-.937-.114c-.015-.008-.023-.038 0-.046zm.145-.518c.236.152.526.198.792.274.03.008.046-.023.046-.046.008 0 .008-.008.008-.015a1.677 1.677 0 0 0-.541-.678c-.137-.099-.373-.152-.48.023s.038.35.175.442zm-.099-.252c-.084-.335.297-.19.396-.114.061.046.122.107.183.168.122.122.221.259.328.389-.13-.046-.259-.076-.389-.114-.16-.046-.472-.137-.518-.328z"/><path fill="#263238" style="fill:var(--color9, #263238)" d="M29.12 28.617c-.091-.19-.328-.152-.48-.069a1.695 1.695 0 0 0-.602.625c0 .008 0 .008.008.015 0 .023.015.053.038.046.274-.053.571-.069.815-.198.145-.076.305-.236.221-.419zm-.64.457c-.13.03-.267.046-.396.084.114-.122.229-.244.358-.358a1.24 1.24 0 0 1 .198-.145c.107-.069.503-.183.389.145-.069.183-.389.244-.549.274zm-2.286 1.105c.19-.03.381.046.495.145a.663.663 0 0 1 .221.404c0 .008-.008.008-.008 0a.74.74 0 0 0-.701-.541c-.008.008-.008-.008-.008-.008zm4.176-.503c.358-.038.411.518.053.556s-.411-.518-.053-.556z"/><path fill="#455a64" style="fill:var(--color11, #455a64)" d="m27.756 28.907 3.33-.145s-.907-7.299-.922-7.749c-.046-1.166-.815-8.686-.815-8.686h-4.061s.259 1.737.693 2.834c0 0 .335.107.853.389 0 0 .381 4.975.396 5.592.015 1.234.526 7.764.526 7.764z"/><path fill="#263238" style="fill:var(--color9, #263238)" d="M27.848 28.297c.518-.03.366-.03.891-.061.251-.015 1.92-.099 2.164-.069.008 0 .008.008 0 .008-.236.046-1.905.107-2.164.114-.518.015-.373.008-.891.015-.015.008-.015-.008 0-.008zm1.196-15.52c.152 1.897.305 3.787.48 5.676.175 1.897.381 3.794.625 5.684.137 1.059.29 2.545.457 3.596 0 .008-.008.008-.008 0-.335-1.867-.579-4.19-.792-6.08s-.381-3.779-.533-5.669a407.352 407.352 0 0 1-.244-3.215c-.008-.008.015-.008.015.008zm-3.215 2.316c.343.122.678.29.998.465.015.008.008.023-.008.023-.335-.145-.678-.282-1.006-.442-.03-.015-.015-.053.015-.046zm-.107-2.301c0-.015.023-.015.023 0 0 .396.023.747.053 1.12.015.175.152 1.128.457 1.059.053-.015.076-.061.084-.137.008-.091-.023-.206-.038-.29a8.25 8.25 0 0 1-.076-.602c-.03-.373-.03-.754.015-1.128 0-.015.023-.008.023 0 0 .518.015 1.044.091 1.562.038.251.16.625-.099.663-.267.038-.434-.587-.465-.762-.107-.488-.107-1.006-.069-1.486z"/><path fill="#263238" style="fill:var(--color9, #263238)" d="M26.24 14.994c.03.061.046.13.069.198.015.053.03.107.03.16 0 .008-.015.015-.023.008-.038-.046-.053-.107-.069-.16l-.069-.183c-.015-.038.046-.061.061-.023z"/><path fill="#c7c7c7" style="fill:var(--color10, #c7c7c7)" d="m12.77 29.09-.015-.152 8.038-.411-.594-3.581.152-.023.625 3.749-8.206.419z"/><path fill="#37474f" style="fill:var(--color13, #37474f)" d="M13.736 30.101a.837.837 0 1 0-1.03-1.32.837.837 0 0 0 1.03 1.32z"/><path fill="#ebebeb" style="fill:var(--color14, #ebebeb)" d="M12.838 29.44c0 .213.168.381.381.381s.381-.168.381-.381-.168-.381-.381-.381a.377.377 0 0 0-.381.381z"/><path fill="#37474f" style="fill:var(--color13, #37474f)" d="M19.858 30.256a.838.838 0 1 0-.387-1.631.838.838 0 0 0 .387 1.631z"/><path fill="#ebebeb" style="fill:var(--color14, #ebebeb)" d="M19.276 29.44c0 .213.168.381.381.381s.381-.168.381-.381-.168-.381-.381-.381a.377.377 0 0 0-.381.381z"/><path fill="#c7c7c7" style="fill:var(--color10, #c7c7c7)" d="m14.202 30.019-.008-.152 8.038-.411-.785-4.701.152-.023.808 4.861-8.206.427z"/><path fill="#37474f" style="fill:var(--color13, #37474f)" d="M15.193 31.007a.839.839 0 1 0-1.072-1.29.839.839 0 0 0 1.072 1.29z"/><path fill="#ebebeb" style="fill:var(--color14, #ebebeb)" d="M14.278 30.362c0 .213.168.381.381.381s.381-.168.381-.381-.168-.381-.381-.381-.381.175-.381.381z"/><path fill="#37474f" style="fill:var(--color13, #37474f)" d="M21.87 30.689a.838.838 0 1 0-1.546-.646.838.838 0 0 0 1.546.646z"/><path fill="#ebebeb" style="fill:var(--color14, #ebebeb)" d="M20.716 30.362c0 .213.168.381.381.381s.381-.168.381-.381-.168-.381-.381-.381a.387.387 0 0 0-.381.381z"/><path fill="#a6a6a6" style="fill:var(--color4, #a6a6a6)" d="m12.48 24.465-1.173-5.349 8-1.295.084 5.592-.069.008-6.842 1.044zm-.99-5.227 1.112 5.059 6.636-1.013-.076-5.28-7.672 1.234z"/><path fill="#a6a6a6" style="fill:var(--color4, #a6a6a6)" d="m13.348 18.862-.151.024.824 5.269.151-.024-.824-5.269zm2.145-.339-.151.017.587 5.324.151-.017-.587-5.324zm2.091-.306-.152.007.232 5.367.152-.007-.232-5.367z"/><path fill="#a6a6a6" style="fill:var(--color4, #a6a6a6)" d="m19.301 19.517-7.527 1.363.027.15 7.527-1.363-.027-.15zm-.001 2.025-7.144 1.061.022.151 7.144-1.061-.022-.151z"/><path fill="#dbdbdb" style="fill:var(--color12, #dbdbdb)" d="m22.644 24.716-3.406-1.318v-5.585l5.204 1.509-1.798 5.394zm-3.261-1.425 3.162 1.219 1.691-5.09-4.861-1.41v5.28h.008z"/><path fill="#dbdbdb" style="fill:var(--color12, #dbdbdb)" d="m19.338 19.52-.054.142 4.397 1.684.054-.142-4.397-1.684zm-.003 2.028-.058.141 3.767 1.537.058-.141-3.767-1.537z"/><path fill="#dbdbdb" style="fill:var(--color12, #dbdbdb)" d="m20.968 18.4-.709 5.332.151.02.709-5.332-.151-.02zm1.686.487-1.193 5.3.149.034 1.194-5.3-.149-.033zm-2.12-5.317-1.297 4.328.146.044 1.297-4.328-.146-.044zm5.144 1.028-1.422 4.744.146.044 1.422-4.744-.146-.044z"/><path fill="#263238" style="fill:var(--color9, #263238)" d="m20.295 13.356-.061.299 5.836 1.201.061-.299-5.836-1.201z"/><path fill="#ffc727" style="fill:var(--color5, #ffc727)" d="m16.899 19.68 1.44.663 2.37-.472-1.417-.404-2.392.213z"/><path style="fill:var(--color16, #000)" opacity=".1" d="m16.899 19.68 1.44.663 2.37-.472-1.417-.404-2.392.213z"/><path fill="#e6a36e" style="fill:var(--color17, #e6a36e)" d="M19.398 19.886c.015.61.16 3.528-.404 3.581-.198.023-.381-.434-.518-1.112-.015-.069-.03-.137-.038-.206a16.91 16.91 0 0 1-.122-.823l-.023-.206c-.03-.267-.053-.549-.069-.83 0-.069-.008-.137-.008-.206 0-.061-.008-.114-.008-.175-.008-.19-.008-.381-.008-.564v-.206a22.7 22.7 0 0 1 .046-1.074c.008-.069.008-.13.015-.19.084-.853.244-1.47.465-1.531.472-.122.625 2.027.67 3.543z"/><path fill="#cc8a58" style="fill:var(--color18, #cc8a58)" d="M19.025 21.996c-.008.008-.015.008-.023.015l-.008.008a1.196 1.196 0 0 0-.518.35c-.015-.069-.03-.137-.038-.206.175-.145.389-.229.571-.198h.015c.008 0 .015.015 0 .03zm-.069-.876c-.008 0-.015.008-.023.008l-.008.008a1.109 1.109 0 0 0-.587.19c-.008.008-.015.008-.023.015l-.023-.206c.213-.114.465-.137.655-.053l.008.008h.008s.008.023-.008.03zm-.046-.891h-.038a1.054 1.054 0 0 0-.61.053l-.046.023c0-.069-.008-.137-.008-.206.236-.076.51-.046.693.084 0 0 .008 0 .008.008 0 0 .008 0 .008.008.008.008.015.03-.008.03zm-.03-.938h-.038a1.054 1.054 0 0 0-.61.053c-.015.008-.023.008-.03.015v-.206c.229-.069.495-.038.67.091 0 0 .008 0 .008.008 0 0 .008 0 .008.008.008.008.008.03-.008.03zm0-1.104c-.008 0-.015 0-.023-.008h-.015a1.151 1.151 0 0 0-.594-.099c.008-.069.008-.13.015-.19.229 0 .472.091.617.251v.008l.008.008c.008.015.008.038-.008.03z"/><path fill="#edaa76" style="fill:var(--color19, #edaa76)" d="M20.29 20.251c-.084.602-.434 3.482-.998 3.406-.198-.023-.305-.51-.328-1.204 0-.069-.008-.137-.008-.206 0-.259 0-.541.015-.83 0-.069.008-.137.015-.206.015-.267.046-.549.076-.823l.023-.198.023-.168c.023-.183.053-.373.084-.556.015-.069.023-.137.038-.198.069-.366.145-.716.229-1.036l.046-.183c.221-.815.488-1.379.716-1.387.495-.03.282 2.103.069 3.589z"/><path fill="#cc8a58" style="fill:var(--color18, #cc8a58)" d="M19.581 22.225c-.008.008-.015.008-.023.008l-.008.008a1.147 1.147 0 0 0-.571.221c0-.069-.008-.137-.008-.206.198-.099.419-.13.602-.061 0 0 .008 0 .008.008h.008c0-.008.008.015-.008.023zm.076-.876h-.038a1.114 1.114 0 0 0-.61.046c-.008 0-.015.008-.023.008 0-.069.008-.137.015-.206a.809.809 0 0 1 .655.099l.008.008s.008 0 .008.008c0 .015 0 .038-.015.038zm.107-.877c-.008 0-.015 0-.023-.008h-.015a1.125 1.125 0 0 0-.61-.091c-.015 0-.03.008-.046.008l.023-.198a.862.862 0 0 1 .67.251v.008l.008.008c.008 0 .008.023-.008.023zm.122-.922c-.008 0-.015 0-.023-.008h-.015a1.125 1.125 0 0 0-.61-.091c-.015 0-.023.008-.038.008.015-.069.023-.137.038-.198a.843.843 0 0 1 .648.251v.008l.008.008c.008.008.008.023-.008.023zm.183-1.074c-.008 0-.015-.008-.023-.015-.008 0-.008 0-.015-.008a1.174 1.174 0 0 0-.571-.236l.046-.183c.229.053.45.198.564.389v.008s0 .008.008.008c.015.023.015.038-.008.038z"/><path fill="#ffc727" style="fill:var(--color5, #ffc727)" d="M16.899 19.68s.091 2.91.061 3.025c-.03.114-.206 1.478-.19 1.516s1.387.823 1.432.777c.046-.046.13-2.011.13-2.255s.015-2.408.015-2.408l-1.448-.655z"/><path fill="#ffc727" style="fill:var(--color5, #ffc727)" d="m18.339 20.343-.145 4.655s2.225-.655 2.24-.693c.023-.038.13-1.356.099-1.562s.168-2.872.168-2.872l-2.362.472z"/><path style="fill:var(--color16, #000)" opacity=".1" d="m18.339 20.343-.145 4.655s2.225-.655 2.24-.693c.023-.038.13-1.356.099-1.562s.168-2.872.168-2.872l-2.362.472z"/><path fill="#dbdbdb" style="fill:var(--color12, #dbdbdb)" d="m15.253 25.63-2.773-1.158-.008-.038-1.173-5.341 3.444 1.41.51 5.128zm-2.643-1.272 2.461 1.029-.472-4.785-3.093-1.265 1.105 5.021z"/><path fill="#dbdbdb" style="fill:var(--color12, #dbdbdb)" d="m12.457 19.576-.15.026.898 5.11.15-.026-.898-5.11zm1.133.485-.151.021.717 5.039.151-.021-.717-5.039z"/><path fill="#dbdbdb" style="fill:var(--color12, #dbdbdb)" d="m12.259 23.036-.05.144 2.791.976.05-.144-2.791-.976zm-.447-2.124-.056.142 3.046 1.207.056-.142-3.046-1.207z"/><path fill="#ebebeb" style="fill:var(--color14, #ebebeb)" d="m15.246 25.623-.663-5.135 9.851-1.173-1.798 5.402-.046.008-7.345.899zm-.488-5.006.625 4.838 7.147-.876 1.691-5.082-9.463 1.12z"/><path fill="#ebebeb" style="fill:var(--color14, #ebebeb)" d="m16.941 20.284-.152.013.433 4.964.152-.013-.433-4.964zm2.481-.313-.291 5.05.152.009.291-5.05-.152-.009zm2.516-.305-.97 5.136.15.028.97-5.136-.15-.028z"/><path fill="#ebebeb" style="fill:var(--color14, #ebebeb)" d="m23.735 21.09-8.911 1.003.017.151 8.911-1.003-.017-.151zm-.657 1.995-8.063.843.016.152 8.063-.843-.016-.152z"/><path fill="#f7a9a0" style="fill:var(--color15, #f7a9a0)" d="M26.293 8.259c-.411.64-1.92 2.971-2.865 2.971-.571 0-2.499-.968-2.918-1.295-.495-.381.838-1.585 1.181-1.44.427.175 1.577.853 1.851.853.244 0 .937-.777 2.248-1.63.67-.45.861-.015.503.541z"/><path fill="#f7a9a0" style="fill:var(--color15, #f7a9a0)" d="M20.556 9.966c-.175-.084-.96-.549-1.15-.724s-.693-.731-.579-.891c.114-.16.282-.008.282-.008s-.175-.267-.038-.419c.137-.152.381.091.381.091s-.16-.29-.015-.427c.145-.137.35.145.35.145s-.16-.259.008-.32c.206-.076.45.427.67.61.053.038 1.09.754 1.09.754l-.998 1.189z"/><path fill="#263238" style="fill:var(--color9, #263238)" d="M19.771 7.718c.183.373.32.503.67.716.008.008 0 .015-.008.008-.358-.183-.556-.32-.678-.716-.008-.023.008-.03.015-.008zm-.335.274c.221.366.373.51.716.762.008 0 0 .015-.008.008-.358-.221-.556-.358-.731-.762 0-.015.015-.023.023-.008zm-.305.366c.236.343.404.503.77.709.008.008 0 .015-.008.015-.396-.168-.594-.373-.77-.716-.015-.023-.008-.03.008-.008z"/><path fill="#ffc727" style="fill:var(--color5, #ffc727)" d="M19.025 8.442c.259.853 1.067.747 1.295.678s.952-.427.693-1.288c-.259-.853-1.12-.655-1.272-.61-.175.053-.983.366-.716 1.219z"/><path fill="#455a64" style="fill:var(--color11, #455a64)" d="M19.81 7.337s.038.32.602.13c0 0-.381-.404-.602-.13z"/><path fill="#455a64" style="fill:var(--color11, #455a64)" d="M19.863 7.474s.267.015.19-.465c0 0-.381.244-.19.465z"/><path fill="#455a64" style="fill:var(--color11, #455a64)" d="M19.848 7.383s-.091.251-.503-.015c0 0 .381-.244.503.015z"/><path fill="#455a64" style="fill:var(--color11, #455a64)" d="M19.825 7.322s-.244.206.229.571c0 0 .122-.541-.229-.571z"/><path fill="#455a64" style="fill:var(--color11, #455a64)" d="M19.802 7.368s-.358-.099-.312.51c0 0 .549-.19.312-.51z"/><path fill="#455a64" style="fill:var(--color11, #455a64)" d="M19.863 7.444s.046-.32-.221-.541c0 0-.152 0-.19.16 0 0 .305.168.328.45l.069-.046z"/><path fill="#f7a9a0" style="fill:var(--color15, #f7a9a0)" d="M21.935 8.747s-.145-.495-.259-.701c-.114-.206-.808-.808-.945-.663-.183.183.152.61.343.8 0 0-.419.427-.244.785.168.366 1.105-.221 1.105-.221z"/><path fill="#263238" style="fill:var(--color9, #263238)" d="M20.693 7.451c-.046.29.221.518.396.716.015.015.008.03-.008.038-.16.19-.335.503-.267.762 0 .008-.008.008-.008.008-.107-.267.038-.587.229-.785-.183-.206-.442-.45-.343-.739z"/><path fill="#ffc727" style="fill:var(--color5, #ffc727)" d="m24.152 8.701 1.272 1.135s.724-.869 1.021-1.707c.297-.838-.419-.731-.922-.396-.51.335-1.371.968-1.371.968z"/><path fill="#263238" style="fill:var(--color9, #263238)" d="M25.57 9.562c-.556-.442-.975-.907-1.074-.998-.008-.008 0-.008.008-.008.091.091.655.571 1.074.998l-.008.008z"/><path fill="#263238" style="fill:var(--color9, #263238)" d="M26.446 8.13c-.297.83-1.021 1.707-1.021 1.707l-.587-.526c.389-.541 1.013-1.402 1.326-1.821.282-.015.465.145.282.64z"/><path fill="#ffc727" style="fill:var(--color5, #ffc727)" d="M24.838 13.41c.076.076 4.762.03 4.785 0 .061-.084-.655-3.109-1.196-4.251-.693-1.47-1.059-1.592-1.272-1.676-.282-.107-1.006-.061-1.128-.008-.137.061-.48.747-.64 1.295-.32 1.097-.617 4.571-.549 4.64z"/><path fill="#f7a9a0" style="fill:var(--color15, #f7a9a0)" d="M27.855 8.846c-.023 1.44-.084 3.147-.488 3.627-.602.731-2.118 1.478-2.735 1.615-.259.061-.983-1.89-.701-1.95.587-.122 1.935-.678 2.057-.8.114-.114.587-1.516.96-2.598.45-1.303.922-.724.907.107z"/><path fill="#f7a9a0" style="fill:var(--color15, #f7a9a0)" d="M24.251 12.061s-.777.198-1.28.35c-.282.084-.747.274-.922.434-.267.236-1.227 1.387-.952 1.623.251.213.945-.876.945-.876s-.8 1.044-.457 1.25c.35.206.968-1.135.968-1.135s-.8 1.09-.411 1.242c.297.114.93-1.067.93-1.067s-.678.945-.381 1.074c.328.145.983-.907.983-.907.815.213 1.295-.023 1.608-.229.084-.053-1.029-1.76-1.029-1.76z"/><path fill="#263238" style="fill:var(--color9, #263238)" d="M22.293 13.219c-.099.122-.198.236-.29.366s-.168.259-.244.396c-.183.328-.251.564-.244.556.13-.335.434-.792.526-.922.091-.137.168-.267.251-.396.008 0 0-.008 0 0zm.465.305c-.168.137-.526.632-.663.968-.008.015 0 .015.008 0 .114-.16.549-.808.655-.968.008 0 .008 0 0 0zm.45.198c-.198.19-.358.457-.488.762-.008.015.008.015.015 0 .16-.259.282-.457.488-.754 0-.008-.008-.015-.015-.008z"/><path fill="#ffc727" style="fill:var(--color5, #ffc727)" d="m26.293 10.095 1.684.251s.13-1.128-.076-1.989-.747-.381-.99.175c-.244.564-.617 1.562-.617 1.562z"/><path fill="#263238" style="fill:var(--color9, #263238)" d="M27.931 10.019c-.709-.046-1.318-.198-1.448-.213-.008 0-.008-.008 0-.008.13.023.861.099 1.448.213.008 0 0 .008 0 .008z"/><path fill="#263238" style="fill:var(--color9, #263238)" d="M26.537 9.516c.076-.19.19-.465.251-.655 0 0 0-.008-.008 0-.046.099-.091.206-.137.312 0-.008 0-.015.008-.015.008-.061.023-.114.023-.175-.015.061-.03.114-.046.175l-.023.114c-.023.053-.084.19-.099.244-.038.091-.244.602-.236.602.015 0 .175.023.206.023.008 0 .008-.015 0-.015-.03 0-.16-.023-.175-.023.038-.099.076-.19.122-.29l.114-.297zm1.547-.282a1.02 1.02 0 0 0-.03.152c0 .015-.008.038-.008.053-.008-.13-.015-.251-.03-.381h-.008c.015.213.008.427 0 .632 0 .107-.008.206-.015.312 0 .053-.008.107-.008.16 0 .061-.008.175-.008.175-.03-.008-.13-.015-.16-.023-.008 0-.008.008 0 .008.03.008.183.03.183.03 0-.053.015-.122.023-.175s.008-.099.015-.152c.008-.107.015-.221.015-.328v-.183c.008-.046.023-.091.03-.137.008-.053.015-.107.023-.152-.008 0-.023 0-.023.008z"/><path fill="#f7a9a0" style="fill:var(--color15, #f7a9a0)" d="M26.164 8.229c.259.076.739-.297.937-.617.015-.023-.008-.259-.015-.549a6.443 6.443 0 0 1 0-.556c0-.038-1.143.206-1.143.206s.091.381.069.693a.293.293 0 0 1-.015.076v.015c-.03.137-.084.655.168.731z"/><path fill="#263238" style="fill:var(--color9, #263238)" d="M27.017 6.507c-.069.297-.305 1.021-.907.998a.485.485 0 0 1-.114-.015v-.015c.008-.023.008-.046.015-.076.023-.312-.069-.693-.069-.693s.823-.168 1.074-.198z"/><path fill="#f7a9a0" style="fill:var(--color15, #f7a9a0)" d="M27.147 5.067c.152.389.03 1.562-.229 1.836-.381.404-1.051.495-1.41.023-.343-.457-.16-1.973.137-2.232.442-.381 1.28-.206 1.501.373z"/><path fill="#263238" style="fill:var(--color9, #263238)" d="M26.103 5.859c0-.008.008 0 0 0-.008.084 0 .175.069.213v.008c-.091-.03-.091-.152-.069-.221z"/><path fill="#263238" style="fill:var(--color9, #263238)" d="M26.179 5.783c.13 0 .114.259-.008.259-.114-.008-.099-.259.008-.259zm-.518.053c0-.008-.008 0 0 0-.008.084-.023.175-.099.198v.008c.091-.015.107-.13.099-.206z"/><path fill="#263238" style="fill:var(--color9, #263238)" d="M25.592 5.745c-.13-.015-.152.236-.03.251.114.023.137-.236.03-.251zm.694-.076c-.03-.008-.061-.023-.099-.038s-.069-.023-.091-.061c-.015-.015-.008-.053.015-.069.038-.03.091-.023.137-.008s.084.046.107.091c.03.053-.023.099-.069.084zm-.785-.054c.038 0 .069-.015.107-.023s.069-.008.099-.038c.015-.015.015-.046 0-.069-.03-.038-.084-.038-.13-.03a.18.18 0 0 0-.122.069c-.038.038 0 .091.046.091zm.693.983c-.023.015-.038.038-.069.046-.03 0-.061-.015-.084-.023 0 0-.008 0 0 .008.015.03.061.053.099.046.03-.008.046-.038.053-.076.008 0 0 0 0 0zm-.068-.236a.245.245 0 0 1-.183.107c-.03.008-.069 0-.099 0h-.03c-.008 0-.015-.008-.015-.015v-.015c0-.061.015-.152.015-.152-.023.008-.137.053-.137.023.03-.259.069-.556.152-.808 0-.008.015-.008.015 0-.023.251-.084.503-.107.754a.456.456 0 0 1 .13-.03c.008 0-.023.175-.023.206a.519.519 0 0 0 .282-.069c-.008-.015 0-.008 0 0z"/><path fill="#263238" style="fill:var(--color9, #263238)" d="M25.874 6.438s.053.076.122.107a.154.154 0 0 0 .084.008c.061-.015.069-.069.061-.122-.008-.038-.023-.076-.023-.076s-.091.084-.244.084z"/><path fill="#ff6596" style="fill:var(--color20, #ff6596)" d="M25.996 6.545a.154.154 0 0 0 .084.008c.061-.015.069-.069.061-.122-.061.008-.13.046-.145.114z"/><path fill="#263238" style="fill:var(--color9, #263238)" d="M25.501 5.15c.389.267.914-.137.914-.137.122.305.427.267.427.267s.076.655.251.655c.267 0 .343-.899.259-1.074s-.305-.221-.305-.221-.015-.137-.175-.259c-.183-.137-.8.046-.8.046s-.046-.114-.16-.213c-.076-.061-.175-.053-.236.023.03.046.053.099.061.16.03.19-.13.19-.122.015a.28.28 0 0 1 .061-.183c-.076-.114-.206-.152-.282-.091-.13.122-.213.792.107 1.013z"/><path fill="#f7a9a0" style="fill:var(--color15, #f7a9a0)" d="M26.979 6.027s.236-.389.411-.305c.175.084.008.632-.183.724-.198.084-.274-.091-.274-.091l.046-.328z"/><path fill="#263238" style="fill:var(--color9, #263238)" d="M27.337 5.874c.008 0 .008.008 0 0-.137.069-.198.206-.244.343.038-.053.091-.084.168-.038v.008c-.061-.008-.099 0-.137.053-.023.03-.038.076-.061.114-.008.015-.03.008-.023-.008-.015-.183.107-.442.297-.472z"/><path fill="#ffc727" style="fill:var(--color5, #ffc727)" d="M4.13 24.046a21.7 21.7 0 0 0-.03-2.21c-.099-1.516-.35-3.025-.693-4.51-.19-.83-.434-1.653-.678-2.476-.008-.023-.046-.015-.038.008.77 2.888 1.394 5.867 1.356 8.869-.015.838-.107 1.669-.19 2.499 0 .023.038.03.038.008.152-.709.206-1.455.236-2.187z"/><path fill="#ffc727" style="fill:var(--color5, #ffc727)" d="M2.69 14.857s-1.158 2.949-.899 3.642c.259.693.8.838.8.838s-.709 1.013-.213 1.966c.495.952 1.6.907 1.676 1.989-.015 0 .046-4.51-1.364-8.434z"/><path fill="#263238" style="fill:var(--color9, #263238)" d="M3.916 21.432v-.015c-.16-2.004-.518-4-1.128-5.928 0-.008-.008-.008-.008 0 .229.861.434 1.73.61 2.598-.152-.152-.35-.244-.556-.312-.008 0-.008.008 0 .008.213.091.419.198.571.381.03.168.069.343.099.51-.259-.29-.617-.434-.983-.571-.008 0-.008.008 0 .008.373.152.747.35 1.006.67.091.488.168.983.236 1.47a1.385 1.385 0 0 0-.693-.396c-.008 0-.015.008-.008.015.274.076.51.236.701.45h.008l.069.518a1.665 1.665 0 0 0-.488-.29c-.008 0-.008.008 0 .008.183.076.343.19.488.32h.008c.023.168.038.328.053.495a2.318 2.318 0 0 0-.983-.701c-.008 0-.015.008-.008.015.381.168.716.427.968.747.008.008.015.008.023.008l.069.762s.008.008.008 0c-.023-.251-.038-.51-.061-.77z"/><path fill="#263238" style="fill:var(--color9, #263238)" d="M2.979 17.486c-.198-.137-.457-.198-.701-.221-.008 0-.008.008 0 .008.251.038.457.13.693.229.008.008.015-.008.008-.015zm.145 3.124a1.454 1.454 0 0 0-.526-.183c-.008 0-.008.008 0 .008.183.03.35.099.518.183.008.008.015-.008.008-.008z"/><path fill="#ffc727" style="fill:var(--color5, #ffc727)" d="M7.185 18.552a7.6 7.6 0 0 0-1.341 1.173 4.87 4.87 0 0 0-.945 1.6 11.917 11.917 0 0 0-.701 3.825c-.015.724.053 1.44.206 2.149.008.023.046.015.038-.008a11.95 11.95 0 0 1 .023-3.756c.198-1.219.51-2.545 1.288-3.535.419-.541.945-.968 1.47-1.402.023-.03-.015-.069-.038-.046z"/><path fill="#ffc727" style="fill:var(--color5, #ffc727)" d="M4.366 24.274s.396-.67.983-1.25c.579-.579 1.074-.99 1.143-1.379.076-.381-.579-.67-.579-.67s.808.145 1.021-.19c.221-.335.328-2.293.328-2.293s-1.463 1.044-2.141 2.507c-.686 1.463-.754 3.276-.754 3.276z"/><path fill="#263238" style="fill:var(--color9, #263238)" d="M6.75 18.987c-.617.602-1.234 1.25-1.6 2.042a7.875 7.875 0 0 0-.32.846c-.015.061-.038.114-.053.175v.008c-.183.594-.305 1.204-.419 1.806 0 .008.008.008.008 0 .061-.305.13-.61.213-.922h.008c.122-.053.251-.084.381-.099.008 0 .008-.015 0-.015-.13.008-.259.03-.381.069.069-.274.145-.556.236-.823.282-.069.579-.107.869-.114v-.008a3.214 3.214 0 0 0-.853.076l.046-.137c.19-.046.381-.076.579-.099v-.008c-.19.008-.381.023-.564.069.076-.236.168-.465.259-.693a3.87 3.87 0 0 1 .274-.533c.16-.038.305-.069.465-.084.008 0 .008-.008 0-.008-.145-.008-.297 0-.434.046.076-.122.16-.244.244-.366.328-.076.663-.137.998-.076.008 0 .008-.008 0-.008-.32-.084-.64-.038-.952.03.038-.046.069-.091.107-.137.198-.061.404-.091.61-.099.008 0 .008-.008 0-.008-.19-.015-.389 0-.571.053.274-.335.571-.655.869-.968.015-.023 0-.03-.015-.015z"/><path fill="#263238" style="fill:var(--color9, #263238)" d="M6.735 20.32c-.099-.008-.19-.023-.29-.008-.015 0-.008.023 0 .023.099 0 .19-.008.29 0 .008 0 .008-.015 0-.015zm-1.051 1.897c-.152 0-.305.038-.45.091v.008c.152-.038.297-.053.45-.076.015 0 .015-.023 0-.023zm-.32-.655c-.061 0-.13.008-.19.015-.008 0-.008.008 0 .008.061 0 .13 0 .19-.008.015 0 .015-.015 0-.015z"/><path fill="#ffc727" style="fill:var(--color5, #ffc727)" d="M.076 20.625a6.3 6.3 0 0 1 1.356.64c.45.282.823.648 1.135 1.074.64.884 1.135 1.89 1.455 2.933.175.587.29 1.181.328 1.79 0 .023-.03.023-.03 0a10.31 10.31 0 0 0-.884-3.04c-.442-.937-1.006-1.943-1.859-2.568-.465-.343-.99-.564-1.516-.792-.03-.008-.015-.046.015-.038z"/><path fill="#ffc727" style="fill:var(--color5, #ffc727)" d="M3.68 24.602s-.48-.45-1.082-.785c-.602-.335-1.097-.556-1.25-.853s.32-.678.32-.678-.617.305-.876.084C.541 22.149 0 20.595 0 20.595s1.425.51 2.316 1.531c.891 1.029 1.364 2.476 1.364 2.476z"/><path fill="#263238" style="fill:var(--color9, #263238)" d="M3.604 24.282C2.888 22.941 1.943 21.73.64 20.937c.343.221.663.472.952.747a1.57 1.57 0 0 0-.77.16c-.008 0 0 .008.008.008.259-.091.51-.145.785-.13h.008l.137.137a2.628 2.628 0 0 0-.411.053v.008c.145-.03.29-.038.434-.038.236.236.465.495.67.762a.625.625 0 0 0-.29.023c-.008 0-.008.015 0 .008.107-.015.206-.008.305-.008.038.053.076.099.114.152a2.822 2.822 0 0 0-.869.084c-.008 0 0 .008 0 .008.297-.061.587-.076.891-.061.038.046.069.099.107.145a1.7 1.7 0 0 0-.518.061c-.008 0-.008.015 0 .008.175-.038.35-.053.533-.038.152.213.297.427.442.648a.47.47 0 0 0-.229.015c-.008 0 0 .008 0 .008.084-.008.16 0 .244.015.13.198.251.396.366.594.038.008.061-.008.053-.023z"/><path fill="#263238" style="fill:var(--color9, #263238)" d="M2.499 23.17a.957.957 0 0 0-.411.053v.008c.137-.023.274-.038.411-.046.008 0 .008-.015 0-.015zM1.25 21.539a.755.755 0 0 0-.19.008c-.008 0-.008.015 0 .008.061-.008.122-.008.19-.008.015.008.015-.008 0-.008z"/><path fill="#455a64" style="fill:var(--color11, #455a64)" d="M5.516 29.029H2.301l.457-3.36.114-.861h2.072l.114.861.457 3.36z"/><path fill="#263238" style="fill:var(--color9, #263238)" d="M5.059 25.669H2.758l.114-.861h2.072l.114.861z"/><path fill="#455a64" style="fill:var(--color11, #455a64)" d="M5.242 24.503H2.583v.731h2.659v-.731z"/></symbol><symbol id="wallet" viewBox="0 0 32 32"><path fill="#24cca7" style="fill:var(--color8, #24cca7)" d="m3.755 7.619 16.211-4.538-.858-1.779C18.546.146 17.176-.332 16.049.244L1.536 7.619h2.219zm21.059-4.571c-.209 0-.411.032-.601.091l.014-.004L9.215 7.618h18.431l-.693-2.778c-.266-1.083-1.163-1.792-2.14-1.792z"/><path fill="#4a56e2" style="fill:var(--color3, #4a56e2)" d="M28.36 8.573H1.797a1.8 1.8 0 0 0-1.73 1.303l-.003.013c-.039.14-.063.3-.064.466v19.863A1.79 1.79 0 0 0 1.79 32h26.567a1.79 1.79 0 0 0 1.796-1.782v-4.974H19.491c-1.686 0-3.054-1.358-3.054-3.03v-3.966a3 3 0 0 1 .866-2.11 3.026 3.026 0 0 1 2.172-.916H30.154v-4.867a1.784 1.784 0 0 0-1.785-1.782h-.008z"/><path fill="#4a56e2" style="fill:var(--color3, #4a56e2)" d="M31.414 16.926a1.79 1.79 0 0 0-1.209-.467H19.491a1.79 1.79 0 0 0-1.797 1.782v3.969a1.79 1.79 0 0 0 1.79 1.782h10.719c.205 0 .399-.036.582-.096.237-.079.449-.208.629-.371A1.77 1.77 0 0 0 32 22.209v-3.968c0-.52-.226-.991-.586-1.315zm-8.172 3.655a.896.896 0 0 1-.896.891h-.599a.895.895 0 0 1-.898-.891v-.592c0-.286.133-.538.345-.698a.906.906 0 0 1 .553-.193h.596c.496 0 .898.399.898.891v.592z"/></symbol></defs></svg>