<svg aria-hidden="true" style="position: absolute; width: 0; height: 0; overflow: hidden;" version="1.1" xmlns="http://www.w3.org/2000/svg" xmlns:xlink="http://www.w3.org/1999/xlink">
<defs>
<symbol id="chart" viewBox="0 0 83 32">
<path d="M6.648 11.418l-6.648 6.903v8.903c0 2.638 2.138 4.776 4.776 4.776h71.164c3.957 0 7.164-3.207 7.164-7.164v-18.862c-0.303-0.188-0.744-0.251-0.931-0.266-1.457-0.115-2.293 0.978-3.457 1.991l-0.015 0.012c-0.344 0.3-1.205 1.050-2.778 1.050-1.596 0-2.704-0.708-3.058-1.062l-5.319-5.576c-0.709-0.708-2.26-2.124-3.989-2.124s-3.103 1.416-3.723 2.124l-24.599 23.764c-0.399 0.442-1.622 1.328-3.324 1.328s-2.925-0.885-3.324-1.328l-14.228-15.134c-0.487-0.531-1.915-1.593-3.723-1.593s-3.413 1.504-3.989 2.257z"></path>
</symbol>
<symbol id="ellipse-pink" viewBox="0 0 46 32">
<path fill="#ffd8d0" style="fill: var(--color1, #ffd8d0)" d="M46.129 22.271c-7.358 10.303-20.68 11.612-31.934 7.663-12.91-5.201-17.085-19.758-12.185-31.92 4.546-11.283 18.067-6.878 29.615-7.181 21.37-0.39 28.445 13.301 14.503 31.439z"></path>
</symbol>
<symbol id="ellipse-violet" viewBox="0 0 48 32">
<path fill="#c5baff" style="fill: var(--color2, #c5baff)" d="M41.001 34.876c-7.38 12.553-22.509 15.409-35.804 12.032-15.32-4.643-21.586-20.896-17.211-35.328 4.058-13.389 19.997-9.72 33.197-11.244 24.443-2.624 33.942 12.341 19.818 34.54z"></path>
</symbol>
<symbol id="preview-picture" viewBox="0 0 33 32">
<path fill="#4a56e2" style="fill: var(--color3, #4a56e2)" d="M31.421 0.579l0.015 6.133c0 0.343-0.274 0.625-0.617 0.625l-9.73 0.023c-0.343 0-0.625-0.274-0.625-0.617l-0.015-6.133c0-0.32 0.259-0.579 0.579-0.579l9.813-0.030c0.32 0 0.579 0.259 0.579 0.579z"></path>
<path fill="#a6a6a6" style="fill: var(--color4, #a6a6a6)" d="M29.851 5.851c0 0.312-0.251 0.571-0.571 0.571-0.312 0-0.571-0.251-0.571-0.571 0-0.312 0.251-0.571 0.571-0.571s0.571 0.251 0.571 0.571z"></path>
<path fill="#ffc727" style="fill: var(--color5, #ffc727)" d="M30.56 5.851c0 0.312-0.251 0.571-0.571 0.571-0.312 0-0.571-0.251-0.571-0.571 0-0.312 0.251-0.571 0.571-0.571 0.312 0 0.571 0.251 0.571 0.571zM23.116 2.499h-1.417c-0.175 0-0.32-0.145-0.32-0.32v-0.785c0-0.175 0.145-0.32 0.32-0.32h1.417c0.175 0 0.32 0.145 0.32 0.32v0.785c0 0.175-0.145 0.32-0.32 0.32z"></path>
<path fill="#fff" style="fill: var(--color6, #fff)" d="M30.156 1.836h-0.93c-0.213 0-0.389-0.175-0.389-0.389s0.175-0.389 0.389-0.389h0.93c0.213 0 0.389 0.175 0.389 0.389s-0.175 0.389-0.389 0.389z"></path>
<path fill="#f8f8f8" style="fill: var(--color7, #f8f8f8)" d="M21.31 3.802l-0.084 0.053h-0.008c-0.008 0-0.015-0.008-0.015-0.008-0.008-0.008 0-0.023 0.008-0.030l0.114-0.069c0.008-0.008 0.023 0 0.030 0.008v0.564c0 0.008-0.008 0.023-0.023 0.023-0.008 0-0.023-0.008-0.023-0.023v-0.518zM21.493 4.297l0.282-0.251c0.030-0.030 0.053-0.069 0.053-0.114 0-0.038-0.015-0.076-0.038-0.099-0.030-0.030-0.069-0.053-0.114-0.053-0.038 0-0.076 0.015-0.107 0.038l-0.030 0.023c-0.008 0.008-0.023 0.008-0.030 0s-0.008-0.023 0-0.030l0.030-0.030c0.038-0.030 0.084-0.053 0.13-0.053 0.053 0 0.107 0.023 0.145 0.061s0.053 0.084 0.053 0.13c0 0.053-0.023 0.107-0.061 0.145l-0.236 0.213h0.282c0.008 0 0.023 0.008 0.023 0.023 0 0.008-0.008 0.023-0.023 0.023h-0.335c-0.008 0-0.015 0-0.015-0.008-0.015 0.008-0.015-0.008-0.008-0.015zM22.362 3.771l-0.152 0.16c0.038 0.008 0.076 0.023 0.099 0.053 0.038 0.038 0.061 0.091 0.061 0.145-0.001 0.113-0.093 0.204-0.206 0.206h-0c-0.053 0-0.107-0.023-0.145-0.061-0.008-0.008-0.008-0.023 0-0.030s0.023-0.008 0.030 0c0.030 0.030 0.069 0.046 0.114 0.046 0.038 0 0.084-0.015 0.114-0.046s0.046-0.076 0.046-0.114-0.015-0.084-0.046-0.114c-0.030-0.030-0.069-0.046-0.114-0.046-0.008 0-0.015 0-0.015-0.008-0.008-0.008-0.008-0.023 0-0.030l0.145-0.152h-0.229c-0.015 0-0.023-0.008-0.023-0.023s0.008-0.023 0.023-0.023h0.282c0.015 0 0.023 0.008 0.023 0.023 0 0-0.008 0.008-0.008 0.015zM22.865 4.206h-0.32c-0.008 0-0.008 0-0.015-0.008s-0.008-0.023 0-0.030l0.343-0.434c0.008-0.008 0.023-0.008 0.030 0l0.008 0.008v0.411h0.038c0.015 0 0.023 0.008 0.023 0.023 0 0.008-0.008 0.023-0.023 0.023h-0.038v0.099c0 0.008-0.008 0.023-0.023 0.023-0.008 0-0.023-0.008-0.023-0.023v-0.091zM22.865 4.168v-0.35l-0.282 0.35h0.282zM23.611 4.267c-0.008-0.008-0.008-0.023 0-0.030s0.023-0.008 0.030 0c0.030 0.030 0.069 0.046 0.114 0.046 0.038 0 0.084-0.015 0.114-0.046s0.046-0.069 0.046-0.114c0-0.038-0.015-0.084-0.046-0.114s-0.069-0.046-0.114-0.046c-0.038 0-0.084 0.015-0.114 0.046-0.008 0.008-0.023 0.008-0.030 0l-0.008-0.008v-0.015l0.030-0.244c0-0.008 0-0.015 0.008-0.015 0 0 0.008-0.008 0.015-0.008h0.282c0.015 0 0.023 0.008 0.023 0.023s-0.008 0.023-0.023 0.023h-0.259l-0.023 0.175c0.030-0.015 0.069-0.030 0.099-0.030 0.053 0 0.107 0.015 0.145 0.061 0.038 0.038 0.061 0.091 0.061 0.145s-0.015 0.107-0.061 0.145c-0.038 0.038-0.091 0.061-0.145 0.061-0.053 0.008-0.107-0.008-0.145-0.053zM24.175 3.863c0.038-0.076 0.107-0.13 0.206-0.13 0.008 0 0.023 0.008 0.023 0.023s-0.008 0.023-0.023 0.023c-0.084 0-0.137 0.046-0.175 0.107-0.023 0.038-0.030 0.076-0.046 0.122 0.038-0.038 0.091-0.069 0.145-0.069 0.107 0 0.198 0.091 0.198 0.198s-0.084 0.198-0.198 0.198c-0.107 0-0.19-0.084-0.198-0.19v-0.038c0.015-0.091 0.030-0.175 0.069-0.244zM24.168 4.137v0.015c0.008 0.076 0.076 0.137 0.152 0.137 0.084 0 0.16-0.069 0.16-0.152s-0.069-0.152-0.16-0.152c-0.084-0.008-0.152 0.061-0.152 0.152zM24.739 4.297l0.221-0.526h-0.29c-0.008 0-0.023-0.008-0.023-0.023 0-0.008 0.008-0.023 0.023-0.023h0.328c0.008 0 0.008 0.008 0.008 0.015v0.015l-0.229 0.549c0 0.008-0.008 0.015-0.015 0.015h-0.008c-0.015 0-0.023-0.015-0.015-0.023zM25.326 3.726c0.069 0 0.122 0.053 0.122 0.122 0 0.038-0.023 0.076-0.053 0.099 0.069 0.030 0.122 0.099 0.122 0.175 0 0.107-0.084 0.19-0.19 0.19s-0.19-0.084-0.19-0.19c0-0.084 0.046-0.152 0.122-0.183-0.030-0.023-0.053-0.061-0.053-0.099 0-0.053 0.053-0.114 0.122-0.114zM25.326 4.282c0.084 0 0.152-0.069 0.152-0.152s-0.069-0.152-0.152-0.152-0.152 0.069-0.152 0.152 0.069 0.152 0.152 0.152zM25.326 3.939c0.046 0 0.084-0.038 0.084-0.084s-0.038-0.084-0.084-0.084c-0.046 0-0.084 0.038-0.084 0.084s0.038 0.076 0.084 0.084zM26.385 3.726c0.099 0 0.183 0.076 0.198 0.175v0.061c0 0.076-0.015 0.168-0.053 0.236s-0.114 0.13-0.206 0.13c-0.015 0-0.023-0.008-0.023-0.023s0.008-0.023 0.023-0.023c0.084 0 0.137-0.046 0.175-0.107 0.023-0.038 0.038-0.076 0.046-0.122-0.038 0.038-0.091 0.069-0.145 0.069-0.107 0-0.198-0.084-0.198-0.198-0.015-0.114 0.076-0.198 0.183-0.198zM26.545 3.924c0-0.084-0.069-0.152-0.16-0.152-0.084 0-0.152 0.069-0.152 0.152s0.069 0.152 0.152 0.152c0.091 0 0.16-0.069 0.16-0.152zM26.735 4.023c0-0.084 0.023-0.152 0.053-0.206 0.038-0.053 0.091-0.091 0.152-0.091s0.114 0.038 0.152 0.091 0.061 0.13 0.061 0.206c0 0.084-0.023 0.152-0.061 0.206s-0.091 0.091-0.152 0.091-0.114-0.038-0.152-0.091c-0.030-0.053-0.053-0.13-0.053-0.206zM26.781 4.023c0 0.076 0.023 0.137 0.053 0.183s0.069 0.069 0.114 0.069 0.084-0.023 0.114-0.069c0.030-0.046 0.053-0.114 0.053-0.183 0-0.076-0.023-0.137-0.053-0.183s-0.069-0.069-0.114-0.069-0.084 0.023-0.114 0.069c-0.038 0.046-0.053 0.107-0.053 0.183zM27.429 3.779l-0.084 0.053h-0.008c-0.008 0-0.015-0.008-0.015-0.008-0.008-0.008 0-0.023 0.008-0.030l0.114-0.069c0.008-0.008 0.023 0 0.030 0.008v0.564c0 0.008-0.008 0.023-0.023 0.023-0.008 0-0.023-0.008-0.023-0.023v-0.518zM27.611 4.282l0.282-0.251c0.030-0.030 0.053-0.069 0.053-0.114 0-0.038-0.015-0.076-0.038-0.099-0.030-0.030-0.069-0.053-0.114-0.053-0.038 0-0.076 0.015-0.107 0.038l-0.030 0.023c-0.008 0.008-0.023 0.008-0.030 0s-0.008-0.023 0-0.030l0.030-0.030c0.038-0.030 0.084-0.053 0.13-0.053 0.053 0 0.107 0.023 0.145 0.061s0.053 0.084 0.053 0.13c0 0.053-0.023 0.107-0.061 0.145l-0.236 0.213h0.282c0.008 0 0.023 0.008 0.023 0.023 0 0.008-0.008 0.023-0.023 0.023h-0.335c-0.008 0-0.015 0-0.015-0.008-0.015 0.008-0.015-0.008-0.008-0.015zM28.99 3.756l-0.152 0.16c0.038 0.008 0.076 0.023 0.099 0.053 0.038 0.038 0.061 0.091 0.061 0.145-0.001 0.113-0.093 0.204-0.206 0.206h-0c-0.053 0-0.107-0.023-0.145-0.061-0.008-0.008-0.008-0.023 0-0.030s0.023-0.008 0.030 0c0.030 0.030 0.069 0.046 0.114 0.046 0.038 0 0.084-0.015 0.114-0.046s0.046-0.076 0.046-0.114-0.015-0.084-0.046-0.114c-0.030-0.030-0.069-0.046-0.114-0.046-0.008 0-0.015 0-0.015-0.008-0.008-0.008-0.008-0.023 0-0.030l0.145-0.152h-0.229c-0.015 0-0.023-0.008-0.023-0.023s0.008-0.023 0.023-0.023h0.282c0.015 0 0.023 0.008 0.023 0.023 0 0 0 0.008-0.008 0.015 0-0.008 0 0 0 0zM29.493 4.19h-0.32c-0.008 0-0.008 0-0.015-0.008s-0.008-0.023 0-0.030l0.343-0.434c0.008-0.008 0.023-0.008 0.030 0l0.008 0.008v0.411h0.038c0.015 0 0.023 0.008 0.023 0.023 0 0.008-0.008 0.023-0.023 0.023h-0.038v0.099c0 0.008-0.008 0.023-0.023 0.023-0.008 0-0.023-0.008-0.023-0.023v-0.091zM29.493 4.152v-0.35l-0.282 0.35h0.282zM29.73 4.251c-0.008-0.008-0.008-0.023 0-0.030s0.023-0.008 0.030 0c0.030 0.030 0.069 0.046 0.114 0.046 0.038 0 0.084-0.015 0.114-0.046s0.046-0.069 0.046-0.114c0-0.038-0.015-0.084-0.046-0.114s-0.069-0.046-0.114-0.046c-0.038 0-0.084 0.015-0.114 0.046-0.008 0.008-0.023 0.008-0.030 0l-0.008-0.008v-0.015l0.030-0.244c0-0.008 0-0.015 0.008-0.015 0 0 0.008-0.008 0.015-0.008h0.282c0.015 0 0.023 0.008 0.023 0.023s-0.008 0.023-0.023 0.023h-0.259l-0.023 0.175c0.030-0.015 0.069-0.030 0.099-0.030 0.053 0 0.107 0.015 0.145 0.061 0.038 0.038 0.061 0.091 0.061 0.145s-0.015 0.107-0.061 0.145c-0.038 0.038-0.091 0.061-0.145 0.061-0.053 0.008-0.107-0.008-0.145-0.053zM30.293 3.848c0.038-0.076 0.107-0.13 0.206-0.13 0.008 0 0.023 0.008 0.023 0.023s-0.008 0.023-0.023 0.023c-0.084 0-0.137 0.046-0.175 0.107-0.023 0.038-0.030 0.076-0.046 0.122 0.038-0.038 0.091-0.069 0.145-0.069 0.107 0 0.198 0.091 0.198 0.198s-0.084 0.198-0.198 0.198c-0.107 0-0.19-0.084-0.198-0.19v-0.038c0.015-0.091 0.030-0.175 0.069-0.244zM30.286 4.122v0.015c0.008 0.076 0.076 0.137 0.152 0.137 0.084 0 0.16-0.069 0.16-0.152s-0.069-0.152-0.16-0.152c-0.084-0.008-0.152 0.061-0.152 0.152z"></path>
<path fill="#a6a6a6" style="fill: var(--color4, #a6a6a6)" d="M26.598 5.349l-5.211 0.013 0.001 0.259 5.211-0.013-0.001-0.259zM25.074 5.915l-3.688 0.010 0.001 0.259 3.688-0.010-0.001-0.259zM28.472 1.056l-2.598 0.007 0.001 0.259 2.598-0.007-0.001-0.259z"></path>
<path fill="#24cca7" style="fill: var(--color8, #24cca7)" d="M31.634 13.036h-2.583c-0.842 0-1.524 0.682-1.524 1.524v2.583c0 0.842 0.682 1.524 1.524 1.524h2.583c0.842 0 1.524-0.682 1.524-1.524v-2.583c0-0.842-0.682-1.524-1.524-1.524z"></path>
<path fill="#fff" style="fill: var(--color6, #fff)" d="M30.438 13.943c0.107 0 0.19 0.084 0.19 0.19v0.099c0.259 0.030 0.488 0.114 0.693 0.244 0.069 0.038 0.137 0.107 0.137 0.213 0 0.137-0.114 0.244-0.251 0.244-0.046 0-0.091-0.015-0.137-0.038-0.152-0.091-0.305-0.16-0.457-0.198v0.853c0.678 0.168 0.968 0.442 0.968 0.914 0 0.488-0.381 0.815-0.945 0.869v0.267c0 0.107-0.084 0.19-0.19 0.19s-0.198-0.084-0.198-0.19v-0.274c-0.335-0.038-0.64-0.152-0.914-0.35-0.076-0.046-0.122-0.122-0.122-0.213 0-0.137 0.107-0.244 0.244-0.244 0.053 0 0.107 0.015 0.145 0.046 0.206 0.152 0.411 0.251 0.655 0.297v-0.876c-0.648-0.168-0.952-0.411-0.952-0.914 0-0.48 0.381-0.808 0.937-0.853v-0.091c0-0.099 0.091-0.183 0.198-0.183zM30.255 15.459v-0.785c-0.282 0.030-0.427 0.175-0.427 0.373 0 0.183 0.091 0.297 0.427 0.411zM30.613 16.076v0.808c0.282-0.030 0.442-0.175 0.442-0.389-0.008-0.19-0.099-0.312-0.442-0.419z"></path>
<path fill="#24cca7" style="fill: var(--color8, #24cca7)" d="M5.585 8.267h-2.583c-0.842 0-1.524 0.682-1.524 1.524v2.583c0 0.842 0.682 1.524 1.524 1.524h2.583c0.842 0 1.524-0.682 1.524-1.524v-2.583c0-0.842-0.682-1.524-1.524-1.524z"></path>
<path fill="#fff" style="fill: var(--color6, #fff)" d="M5.539 12.198h-2.629l-0.648-2.331h3.695l0.137-0.541h0.419v0.152h-0.297l-0.678 2.72zM3.032 12.046h2.392l0.503-2.027h-3.451l0.556 2.027z"></path>
<path fill="#fff" style="fill: var(--color6, #fff)" d="M3.284 12.663l-0.145-0.061 0.236-0.556h1.79l0.19 0.564-0.145 0.046-0.16-0.457h-1.57l-0.198 0.465zM5.89 10.4h-3.352v0.152h3.352v-0.152zM5.706 10.965l-3.032 0.013 0.001 0.152 3.032-0.013-0.001-0.152zM5.585 11.558h-2.75v0.152h2.75v-0.152z"></path>
<path fill="#fff" style="fill: var(--color6, #fff)" d="M4.32 9.958h-0.152v2.171h0.152v-2.171zM3.73 9.948l-0.152 0.012 0.174 2.172 0.152-0.012-0.174-2.172zM3.075 9.939l-0.15 0.028 0.4 2.173 0.15-0.027-0.4-2.173zM4.752 9.95l-0.175 2.172 0.152 0.012 0.175-2.172-0.152-0.012zM5.408 9.936l-0.399 2.173 0.15 0.028 0.399-2.173-0.15-0.027zM3.215 12.96c-0.183 0-0.328-0.145-0.328-0.328s0.145-0.328 0.328-0.328 0.328 0.145 0.328 0.328-0.152 0.328-0.328 0.328zM3.215 12.457c-0.099 0-0.175 0.076-0.175 0.175s0.076 0.175 0.175 0.175c0.099 0 0.175-0.076 0.175-0.175s-0.084-0.175-0.175-0.175zM5.28 12.96c-0.183 0-0.328-0.145-0.328-0.328s0.145-0.328 0.328-0.328 0.328 0.145 0.328 0.328-0.145 0.328-0.328 0.328zM5.28 12.457c-0.099 0-0.175 0.076-0.175 0.175s0.076 0.175 0.175 0.175c0.099 0 0.175-0.076 0.175-0.175s-0.084-0.175-0.175-0.175z"></path>
<path fill="#4a56e2" style="fill: var(--color3, #4a56e2)" d="M18.476 31.962c7.717 0 13.973-0.829 13.973-1.851s-6.256-1.851-13.973-1.851-13.973 0.829-13.973 1.851c0 1.023 6.256 1.851 13.973 1.851z"></path>
<path fill="#4a56e2" style="fill: var(--color3, #4a56e2)" d="M4.145 29.92c2.239 0 4.053-0.348 4.053-0.777s-1.815-0.777-4.053-0.777c-2.239 0-4.053 0.348-4.053 0.777s1.815 0.777 4.053 0.777z"></path>
<path fill="#263238" style="fill: var(--color9, #263238)" d="M19.81 1.623h-12.221c-0.686 0-1.234 0.564-1.234 1.257v25.158c0 0.693 0.556 1.257 1.234 1.257h12.221c0.686 0 1.234-0.564 1.234-1.257v-25.158c0-0.693-0.549-1.257-1.234-1.257zM20.274 27.261c0 0.663-0.495 1.196-1.105 1.196h-10.933c-0.61 0-1.112-0.533-1.112-1.196v-23.421c0-1.349 0.495-1.417 1.112-1.417h2.187c0.13 0 0.229 0.145 0.229 0.328v0.076c0 0.419 0.229 0.419 0.51 0.419h5.067c0.282 0 0.51 0 0.51-0.419v-0.076c0-0.183 0.099-0.328 0.229-0.328h2.187c0.61 0 1.105 0.175 1.105 1.417v23.421h0.015z"></path>
<path fill="#fff" style="fill: var(--color6, #fff)" d="M20.274 4.069v23.192c0 0.663-0.495 1.196-1.105 1.196h-10.933c-0.61 0-1.112-0.533-1.112-1.196v-23.192c0-1.349 0.495-1.646 1.112-1.646h2.187c0.13 0 0.229 0.145 0.229 0.328v0.076c0 0.419 0.229 0.419 0.51 0.419h5.067c0.282 0 0.51 0 0.51-0.419v-0.076c0-0.183 0.099-0.328 0.229-0.328h2.187c0.625 0 1.12 0.411 1.12 1.646z"></path>
<path fill="#fff" style="fill: var(--color6, #fff)" d="M14.392 2.72h-1.379c-0.046 0-0.084-0.038-0.084-0.084s0.038-0.084 0.084-0.084h1.379c0.046 0 0.084 0.038 0.084 0.084s-0.038 0.084-0.084 0.084z"></path>
<path fill="#c7c7c7" style="fill: var(--color10, #c7c7c7)" d="M14.4 15.436h-1.592v0.206h1.592v-0.206z"></path>
<path fill="#ffd8d0" style="fill: var(--color1, #ffd8d0)" d="M10.697 5.638h-2.133c-0.337 0-0.61 0.273-0.61 0.61v0 2.133c0 0.337 0.273 0.61 0.61 0.61v0h2.133c0.337 0 0.61-0.273 0.61-0.61v0-2.133c0-0.337-0.273-0.61-0.61-0.61v0z"></path>
<path fill="#263238" style="fill: var(--color9, #263238)" d="M9.989 7.749l-0.442-0.145s-0.229 0.175-0.381-0.122c0 0-0.343 0.099-0.457-0.259 0 0-0.419-0.13-0.297-0.373 0.122-0.236 0.457 0.015 0.457 0.015s0.335-0.030 0.45 0.312c0 0 0.32 0 0.32 0.297l0.35 0.274z"></path>
<path fill="#fff" style="fill: var(--color6, #fff)" d="M8.61 6.941c0.122 0.061 0.236 0.122 0.35 0.19 0.114 0.061 0.236 0.13 0.35 0.198l0.343 0.206c0.114 0.069 0.229 0.137 0.335 0.221l-0.084-0.061-0.084-0.053-0.175-0.099-0.686-0.396c-0.122-0.069-0.236-0.137-0.35-0.206z"></path>
<path fill="#263238" style="fill: var(--color9, #263238)" d="M10.011 7.733l0.008-0.465s0.236-0.16 0.008-0.396c0 0 0.206-0.29-0.099-0.51 0 0 0.015-0.442-0.251-0.404s-0.137 0.434-0.137 0.434-0.137 0.305 0.152 0.533c0 0-0.107 0.305 0.175 0.396l0.145 0.411z"></path>
<path fill="#fff" style="fill: var(--color6, #fff)" d="M9.699 6.164c0.030 0.13 0.053 0.259 0.076 0.389l0.19 0.99 0.046 0.198c-0.038-0.13-0.069-0.259-0.099-0.389s-0.053-0.259-0.084-0.389c-0.023-0.13-0.053-0.259-0.076-0.396-0.015-0.137-0.030-0.274-0.053-0.404z"></path>
<path fill="#455a64" style="fill: var(--color11, #455a64)" d="M10.042 7.802l-0.434-0.45s-0.366 0.091-0.396-0.343c0 0-0.472-0.061-0.411-0.556 0 0-0.442-0.381-0.168-0.61 0.274-0.221 0.549 0.259 0.549 0.259s0.419 0.145 0.381 0.617c0 0 0.389 0.168 0.236 0.526l0.244 0.556z"></path>
<path fill="#fff" style="fill: var(--color6, #fff)" d="M8.914 6.088c0.107 0.13 0.213 0.267 0.312 0.411 0.023 0.038 0.053 0.069 0.076 0.107l0.076 0.107c0.023 0.038 0.046 0.069 0.069 0.107s0.046 0.069 0.069 0.107 0.091 0.145 0.137 0.213l0.069 0.107 0.061 0.107c0.091 0.145 0.168 0.297 0.251 0.45l-0.122-0.213-0.137-0.213-0.274-0.434c-0.046-0.069-0.091-0.145-0.145-0.213l-0.069-0.107-0.076-0.107c-0.046-0.069-0.099-0.137-0.145-0.213-0.053-0.076-0.107-0.145-0.152-0.213z"></path>
<path fill="#fff" style="fill: var(--color6, #fff)" d="M10.735 7.794c0.008 0.008 0.015 0.023 0.023 0.030 0.213 0.335-0.069 0.594-0.076 0.716s0.084 0.198 0.030 0.244c-0.053 0.038-0.099-0.076-0.221-0.107-0.091-0.023-0.335 0.084-0.549-0.030-0.015-0.008-0.038-0.023-0.053-0.030-0.038-0.023-0.069-0.053-0.099-0.099-0.008-0.008-0.015-0.023-0.023-0.030l-0.015-0.015c-0.091-0.137-0.13-0.267-0.122-0.381 0-0.023 0.008-0.053 0.008-0.076 0.030-0.152 0.122-0.274 0.251-0.366 0.206-0.145 0.48-0.183 0.701 0.008 0.015 0.015 0.030 0.023 0.046 0.038 0.030 0.030 0.053 0.061 0.084 0.091 0.008 0 0.015 0 0.015 0.008z"></path>
<path fill="#dbdbdb" style="fill: var(--color12, #dbdbdb)" d="M10.194 8.396l0.030 0.046-0.282 0.206c-0.015-0.008-0.038-0.023-0.053-0.030l0.305-0.221zM9.958 8.328l0.030 0.046-0.198 0.137c-0.008-0.008-0.015-0.023-0.023-0.030l-0.015-0.015 0.206-0.137zM10.735 7.794c0.008 0.008 0.015 0.023 0.023 0.030l-0.198 0.137-0.030-0.046 0.198-0.137c0 0.008 0.008 0.008 0.008 0.015zM10.644 7.688l-0.137 0.099-0.030-0.046 0.13-0.091 0.038 0.038zM9.798 7.893l0.030 0.046-0.198 0.137c0-0.023 0.008-0.053 0.008-0.076l0.16-0.107z"></path>
<path fill="#a6a6a6" style="fill: var(--color4, #a6a6a6)" d="M9.013 9.265c0.008 0 0.015 0.008 0.015 0.015v0.023c0.046 0 0.076 0.015 0.107 0.046 0.008 0.008 0.008 0.008 0.008 0.015s-0.008 0.015-0.015 0.015c0 0-0.008 0-0.008-0.008-0.030-0.023-0.061-0.038-0.091-0.038v0.168c0.091 0.023 0.13 0.053 0.13 0.114s-0.053 0.107-0.13 0.114v0.046c0 0.008-0.008 0.015-0.015 0.015s-0.015-0.008-0.015-0.015v-0.046c-0.053-0.008-0.099-0.023-0.137-0.061-0.008 0-0.008-0.008-0.008-0.015s0.008-0.015 0.015-0.015 0.008 0 0.008 0.008c0.030 0.030 0.069 0.053 0.122 0.053v-0.175c-0.091-0.023-0.13-0.053-0.13-0.114s0.053-0.107 0.13-0.107v-0.023c0.008-0.015 0.008-0.015 0.015-0.015zM9.006 9.493v-0.168c-0.061 0-0.099 0.038-0.099 0.084 0 0.038 0.015 0.061 0.099 0.084zM9.029 9.531v0.168c0.061 0 0.099-0.038 0.099-0.084s-0.015-0.069-0.099-0.084zM9.242 9.699l0.198-0.183c0.023-0.023 0.038-0.053 0.038-0.084 0-0.023-0.008-0.053-0.030-0.076s-0.053-0.038-0.084-0.038c-0.030 0-0.053 0.008-0.076 0.030l-0.023 0.015c-0.008 0.008-0.015 0.008-0.023 0s-0.008-0.015 0-0.023l0.023-0.023c0.030-0.023 0.061-0.038 0.091-0.038 0.038 0 0.076 0.015 0.099 0.046s0.038 0.061 0.038 0.091c0 0.038-0.015 0.076-0.046 0.107l-0.168 0.152h0.198c0.008 0 0.015 0.008 0.015 0.015s-0.008 0.015-0.015 0.015h-0.236c-0.008 0-0.008 0-0.008-0.008 0 0.015 0 0.008 0.008 0zM9.646 9.661c0.015 0 0.030 0.015 0.030 0.030s-0.015 0.030-0.030 0.030-0.030-0.015-0.030-0.030 0.015-0.030 0.030-0.030zM9.752 9.684c-0.008-0.008-0.008-0.015 0-0.023s0.015-0.008 0.023 0c0.023 0.023 0.053 0.030 0.084 0.030s0.061-0.008 0.084-0.030c0.023-0.023 0.030-0.053 0.030-0.084s-0.008-0.061-0.030-0.084c-0.023-0.023-0.053-0.030-0.084-0.030s-0.061 0.008-0.084 0.030c-0.008 0.008-0.015 0.008-0.023 0v-0.015l0.023-0.175c0-0.008 0-0.008 0.008-0.008h0.206c0.008 0 0.015 0.008 0.015 0.015s-0.008 0.015-0.015 0.015h-0.183l-0.015 0.13c0.023-0.015 0.046-0.023 0.076-0.023 0.038 0 0.076 0.015 0.099 0.046 0.030 0.030 0.046 0.061 0.046 0.099s-0.015 0.076-0.046 0.099c-0.030 0.030-0.069 0.046-0.099 0.046-0.053 0-0.091-0.008-0.114-0.038zM10.118 9.509c0-0.061 0.015-0.107 0.038-0.152 0.023-0.038 0.061-0.061 0.107-0.061s0.084 0.023 0.107 0.061c0.023 0.038 0.038 0.091 0.038 0.152s-0.015 0.107-0.038 0.152c-0.023 0.038-0.061 0.061-0.107 0.061s-0.084-0.023-0.107-0.061c-0.030-0.038-0.038-0.091-0.038-0.152zM10.141 9.509c0 0.053 0.015 0.099 0.038 0.13s0.053 0.053 0.084 0.053c0.030 0 0.061-0.015 0.084-0.053 0.023-0.030 0.038-0.076 0.038-0.13s-0.015-0.099-0.038-0.13c-0.023-0.030-0.053-0.053-0.084-0.053s-0.061 0.015-0.084 0.053c-0.023 0.030-0.038 0.084-0.038 0.13z"></path>
<path fill="#ffd8d0" style="fill: var(--color1, #ffd8d0)" d="M14.659 5.638h-2.133c-0.337 0-0.61 0.273-0.61 0.61v0 2.133c0 0.337 0.273 0.61 0.61 0.61v0h2.133c0.337 0 0.61-0.273 0.61-0.61v0-2.133c0-0.337-0.273-0.61-0.61-0.61v0z"></path>
<path fill="#fff" style="fill: var(--color6, #fff)" d="M14.179 7.764c0.427 0.434 0.853 0.884 0.853 0.884-0.023 0.114-0.152 0.145-0.152 0.145s-0.442-0.45-0.861-0.869l-0.198-0.198c-0.061-0.061-0.122-0.122-0.175-0.183l-0.030-0.030c-0.175-0.175-0.305-0.305-0.343-0.35-0.19-0.198-1.128-0.602-1.128-0.602s-0.076-0.053 0.023-0.183c0 0 0.366 0.175 0.701 0.343l-0.792-0.503s-0.008-0.076 0.069-0.137l0.45 0.297-0.404-0.389s0.008-0.061 0.122-0.114l0.701 0.724-0.495-0.655s0.053-0.069 0.122-0.091c0 0 0.305 0.465 0.739 1.036l-0.45-0.77s0.038-0.053 0.122-0.061c0 0 0.358 0.846 0.731 1.28 0.008 0.008 0.015 0.023 0.030 0.030 0.015 0.015 0.030 0.030 0.038 0.046l0.29 0.29c0.008 0.030 0.023 0.046 0.038 0.061z"></path>
<path fill="#455a64" style="fill: var(--color11, #455a64)" d="M13.044 6.080s0.358 0.846 0.731 1.28l-0.16 0.152c-0.175-0.175-0.305-0.305-0.343-0.35-0.19-0.198-1.128-0.602-1.128-0.602s-0.076-0.053 0.023-0.183c0 0 0.366 0.175 0.701 0.343l-0.792-0.503s-0.008-0.076 0.069-0.137l0.45 0.297-0.404-0.389s0.008-0.061 0.122-0.114l0.701 0.724-0.495-0.655s0.053-0.069 0.122-0.091c0 0 0.305 0.465 0.739 1.036l-0.45-0.77c-0.008 0.023 0.023-0.030 0.114-0.038zM13.981 7.573l-0.16 0.152c-0.061-0.061-0.122-0.122-0.175-0.183l0.16-0.152c0.015 0.015 0.030 0.030 0.038 0.046l0.137 0.137zM14.103 7.688l-0.16 0.152-0.091-0.091 0.16-0.152c0.030 0.038 0.061 0.061 0.091 0.091zM14.179 7.764l-0.16 0.152-0.046-0.046 0.16-0.152 0.046 0.046z"></path>
<path fill="#a6a6a6" style="fill: var(--color4, #a6a6a6)" d="M13.013 9.265c0.008 0 0.015 0.008 0.015 0.015v0.023c0.046 0 0.076 0.015 0.107 0.046 0.008 0.008 0.008 0.008 0.008 0.015s-0.008 0.015-0.015 0.015c0 0-0.008 0-0.008-0.008-0.030-0.023-0.061-0.038-0.091-0.038v0.168c0.091 0.023 0.13 0.053 0.13 0.114s-0.053 0.107-0.13 0.114v0.046c0 0.008-0.008 0.015-0.015 0.015s-0.015-0.008-0.015-0.015v-0.046c-0.053-0.008-0.099-0.023-0.137-0.061-0.008 0-0.008-0.008-0.008-0.015s0.008-0.015 0.015-0.015 0.008 0 0.008 0.008c0.030 0.030 0.069 0.053 0.122 0.053v-0.175c-0.091-0.023-0.13-0.053-0.13-0.114s0.053-0.107 0.13-0.107v-0.023c0-0.015 0-0.015 0.015-0.015zM12.998 9.493v-0.168c-0.061 0-0.099 0.038-0.099 0.084 0 0.038 0.015 0.061 0.099 0.084zM13.021 9.531v0.168c0.061 0 0.099-0.038 0.099-0.084s-0.015-0.069-0.099-0.084zM13.303 9.341l-0.061 0.038h-0.008c-0.008 0-0.008 0-0.015-0.008s0-0.015 0.008-0.023l0.084-0.053c0.008 0 0.015 0 0.023 0.008v0.396c0 0.008-0.008 0.015-0.015 0.015s-0.015-0.008-0.015-0.015v-0.358zM13.486 9.661c0.015 0 0.030 0.015 0.030 0.030s-0.015 0.030-0.030 0.030-0.030-0.015-0.030-0.030 0.015-0.030 0.030-0.030zM13.57 9.509c0-0.061 0.015-0.107 0.038-0.152 0.023-0.038 0.061-0.061 0.107-0.061s0.084 0.023 0.107 0.061c0.023 0.038 0.038 0.091 0.038 0.152s-0.015 0.107-0.038 0.152c-0.023 0.038-0.061 0.061-0.107 0.061s-0.084-0.023-0.107-0.061c-0.023-0.038-0.038-0.091-0.038-0.152zM13.6 9.509c0 0.053 0.015 0.099 0.038 0.13s0.053 0.053 0.084 0.053c0.030 0 0.061-0.015 0.084-0.053 0.023-0.030 0.038-0.076 0.038-0.13s-0.015-0.099-0.038-0.13c-0.023-0.030-0.053-0.053-0.084-0.053s-0.061 0.015-0.084 0.053c-0.023 0.030-0.038 0.084-0.038 0.13zM14.004 9.509c0-0.061 0.015-0.107 0.038-0.152 0.023-0.038 0.061-0.061 0.107-0.061s0.084 0.023 0.107 0.061c0.023 0.038 0.038 0.091 0.038 0.152s-0.015 0.107-0.038 0.152c-0.023 0.038-0.061 0.061-0.107 0.061s-0.084-0.023-0.107-0.061c-0.023-0.038-0.038-0.091-0.038-0.152zM14.034 9.509c0 0.053 0.015 0.099 0.038 0.13s0.053 0.053 0.084 0.053c0.030 0 0.061-0.015 0.084-0.053 0.023-0.030 0.038-0.076 0.038-0.13s-0.015-0.099-0.038-0.13c-0.023-0.030-0.053-0.053-0.084-0.053s-0.061 0.015-0.084 0.053c-0.023 0.030-0.038 0.084-0.038 0.13z"></path>
<path fill="#ffd8d0" style="fill: var(--color1, #ffd8d0)" d="M18.613 5.638h-2.133c-0.337 0-0.61 0.273-0.61 0.61v0 2.133c0 0.337 0.273 0.61 0.61 0.61v0h2.133c0.337 0 0.61-0.273 0.61-0.61v0-2.133c0-0.337-0.273-0.61-0.61-0.61v0z"></path>
<path fill="#fff" style="fill: var(--color6, #fff)" d="M16.549 7.718c0.259 0.853 1.067 0.747 1.295 0.678s0.952-0.427 0.693-1.288c-0.259-0.853-1.12-0.655-1.272-0.61-0.175 0.053-0.975 0.366-0.716 1.219z"></path>
<path fill="#455a64" style="fill: var(--color11, #455a64)" d="M17.341 6.621s0.038 0.32 0.602 0.13c-0.008 0-0.389-0.411-0.602-0.13z"></path>
<path fill="#455a64" style="fill: var(--color11, #455a64)" d="M17.394 6.75s0.267 0.015 0.19-0.465c0 0-0.381 0.251-0.19 0.465z"></path>
<path fill="#455a64" style="fill: var(--color11, #455a64)" d="M17.371 6.667s-0.091 0.251-0.503-0.015c0 0 0.389-0.251 0.503 0.015z"></path>
<path fill="#455a64" style="fill: var(--color11, #455a64)" d="M17.356 6.606s-0.244 0.206 0.229 0.571c0-0.008 0.122-0.549-0.229-0.571z"></path>
<path fill="#455a64" style="fill: var(--color11, #455a64)" d="M17.326 6.651s-0.358-0.099-0.312 0.51c0.008 0 0.549-0.19 0.312-0.51z"></path>
<path fill="#263238" style="fill: var(--color9, #263238)" d="M17.387 6.728s0.046-0.32-0.221-0.541c0 0-0.152 0-0.19 0.16 0 0 0.305 0.168 0.328 0.45l0.069-0.046z"></path>
<path fill="#a6a6a6" style="fill: var(--color4, #a6a6a6)" d="M16.975 9.265c0.008 0 0.015 0.008 0.015 0.015v0.023c0.046 0 0.076 0.015 0.107 0.046 0.008 0.008 0.008 0.008 0.008 0.015s-0.008 0.015-0.015 0.015c0 0-0.008 0-0.008-0.008-0.030-0.023-0.061-0.038-0.091-0.038v0.168c0.091 0.023 0.13 0.053 0.13 0.114s-0.053 0.107-0.13 0.114v0.046c0 0.008-0.008 0.015-0.015 0.015s-0.015-0.008-0.015-0.015v-0.046c-0.053-0.008-0.099-0.023-0.137-0.061-0.008 0-0.008-0.008-0.008-0.015s0.008-0.015 0.015-0.015 0.008 0 0.008 0.008c0.030 0.030 0.069 0.053 0.122 0.053v-0.175c-0.091-0.023-0.13-0.053-0.13-0.114s0.053-0.107 0.13-0.107v-0.023c0-0.015 0.008-0.015 0.015-0.015zM16.96 9.493v-0.168c-0.061 0-0.099 0.038-0.099 0.084 0.008 0.038 0.023 0.061 0.099 0.084zM16.99 9.531v0.168c0.061 0 0.099-0.038 0.099-0.084s-0.023-0.069-0.099-0.084zM17.272 9.341l-0.061 0.038h-0.008c-0.008 0-0.008 0-0.015-0.008s0-0.015 0.008-0.023l0.084-0.053c0.008 0 0.015 0 0.023 0.008v0.396c0 0.008-0.008 0.015-0.015 0.015s-0.015-0.008-0.015-0.015v-0.358zM17.448 9.661c0.015 0 0.030 0.015 0.030 0.030s-0.015 0.030-0.030 0.030-0.030-0.015-0.030-0.030 0.015-0.030 0.030-0.030zM17.554 9.684c-0.008-0.008-0.008-0.015 0-0.023s0.015-0.008 0.023 0c0.023 0.023 0.053 0.030 0.084 0.030s0.061-0.008 0.084-0.030c0.023-0.023 0.030-0.053 0.030-0.084s-0.008-0.061-0.030-0.084c-0.023-0.023-0.053-0.030-0.084-0.030s-0.061 0.008-0.084 0.030c-0.008 0.008-0.015 0.008-0.023 0v-0.015l0.023-0.175c0-0.008 0-0.008 0.008-0.008h0.206c0.008 0 0.015 0.008 0.015 0.015s-0.008 0.015-0.015 0.015h-0.19l-0.015 0.13c0.023-0.015 0.046-0.023 0.076-0.023 0.038 0 0.076 0.015 0.099 0.046 0.030 0.030 0.046 0.061 0.046 0.099s-0.015 0.076-0.046 0.099c-0.030 0.030-0.069 0.046-0.099 0.046-0.046 0-0.076-0.008-0.107-0.038zM17.92 9.509c0-0.061 0.015-0.107 0.038-0.152 0.023-0.038 0.061-0.061 0.107-0.061s0.084 0.023 0.107 0.061c0.023 0.038 0.038 0.091 0.038 0.152s-0.015 0.107-0.038 0.152c-0.023 0.038-0.061 0.061-0.107 0.061s-0.084-0.023-0.107-0.061c-0.023-0.038-0.038-0.091-0.038-0.152zM17.95 9.509c0 0.053 0.015 0.099 0.038 0.13s0.053 0.053 0.084 0.053c0.030 0 0.061-0.015 0.084-0.053 0.023-0.030 0.038-0.076 0.038-0.13s-0.015-0.099-0.038-0.13c-0.023-0.030-0.053-0.053-0.084-0.053s-0.061 0.015-0.084 0.053c-0.023 0.030-0.038 0.084-0.038 0.13z"></path>
<path fill="#ffd8d0" style="fill: var(--color1, #ffd8d0)" d="M10.697 10.53h-2.133c-0.337 0-0.61 0.273-0.61 0.61v0 2.133c0 0.337 0.273 0.61 0.61 0.61v0h2.133c0.337 0 0.61-0.273 0.61-0.61v0-2.133c0-0.337-0.273-0.61-0.61-0.61v0z"></path>
<path fill="#fff" style="fill: var(--color6, #fff)" d="M10.56 11.916v1.653c0 0.099-0.206 0.16-0.899 0.16s-0.891-0.061-0.891-0.16v-1.653c0-0.442 0.488-0.724 0.488-0.815v-0.335h0.815v0.335c0 0.091 0.488 0.373 0.488 0.815z"></path>
<path fill="#37474f" style="fill: var(--color13, #37474f)" d="M10.126 10.621h-0.914v0.282h0.914v-0.282zM10.56 12.358h-1.79v0.891h1.79v-0.891z"></path>
<path fill="#a6a6a6" style="fill: var(--color4, #a6a6a6)" d="M8.983 14.179c0.008 0 0.015 0.008 0.015 0.015v0.023c0.046 0 0.076 0.015 0.107 0.046 0.008 0.008 0.008 0.008 0.008 0.015s-0.008 0.015-0.015 0.015c0 0-0.008 0-0.008-0.008-0.030-0.023-0.061-0.038-0.091-0.038v0.168c0.091 0.023 0.13 0.053 0.13 0.114s-0.053 0.107-0.13 0.114v0.046c0 0.008-0.008 0.015-0.015 0.015s-0.015-0.008-0.015-0.015v-0.046c-0.053-0.008-0.099-0.023-0.137-0.061-0.008 0-0.008-0.008-0.008-0.015s0.008-0.015 0.015-0.015 0.008 0 0.008 0.008c0.030 0.030 0.069 0.053 0.122 0.053v-0.175c-0.091-0.023-0.13-0.053-0.13-0.114s0.053-0.107 0.13-0.107v-0.023c0-0.008 0.008-0.015 0.015-0.015zM8.975 14.408v-0.168c-0.061 0-0.099 0.038-0.099 0.084 0 0.038 0.015 0.069 0.099 0.084zM8.998 14.446v0.168c0.061 0 0.099-0.038 0.099-0.084 0-0.038-0.023-0.069-0.099-0.084zM9.463 14.24l-0.107 0.114c0.030 0.008 0.053 0.015 0.076 0.038 0.030 0.030 0.046 0.069 0.046 0.099 0 0.038-0.015 0.076-0.046 0.099-0.030 0.030-0.069 0.046-0.099 0.046-0.038 0-0.076-0.015-0.099-0.046-0.008-0.008-0.008-0.015 0-0.023s0.015-0.008 0.023 0c0.023 0.023 0.053 0.030 0.084 0.030s0.061-0.008 0.084-0.030c0.023-0.023 0.030-0.053 0.030-0.084s-0.008-0.061-0.030-0.084c-0.023-0.023-0.053-0.030-0.084-0.030-0.008 0-0.008 0-0.015-0.008s-0.008-0.015 0-0.023l0.107-0.107h-0.16c-0.008 0-0.015-0.008-0.015-0.015s0.008-0.015 0.015-0.015h0.198c0.008 0 0.015 0.008 0.015 0.015l-0.023 0.023c0.008 0 0.008 0 0 0zM9.63 14.583c0.015 0 0.030 0.015 0.030 0.030s-0.015 0.030-0.030 0.030-0.030-0.015-0.030-0.030c0-0.023 0.008-0.030 0.030-0.030zM9.714 14.43c0-0.061 0.015-0.107 0.038-0.152 0.023-0.038 0.061-0.061 0.107-0.061s0.084 0.023 0.107 0.061c0.023 0.038 0.038 0.091 0.038 0.152s-0.015 0.107-0.038 0.152c-0.023 0.038-0.061 0.061-0.107 0.061s-0.084-0.023-0.107-0.061c-0.023-0.046-0.038-0.099-0.038-0.152zM9.745 14.43c0 0.053 0.015 0.099 0.038 0.13s0.053 0.053 0.084 0.053c0.030 0 0.061-0.015 0.084-0.053 0.023-0.030 0.038-0.076 0.038-0.13s-0.015-0.099-0.038-0.13c-0.023-0.030-0.053-0.053-0.084-0.053s-0.061 0.015-0.084 0.053c-0.023 0.030-0.038 0.076-0.038 0.13zM10.149 14.43c0-0.061 0.015-0.107 0.038-0.152 0.023-0.038 0.061-0.061 0.107-0.061s0.084 0.023 0.107 0.061c0.023 0.038 0.038 0.091 0.038 0.152s-0.015 0.107-0.038 0.152c-0.023 0.038-0.061 0.061-0.107 0.061s-0.084-0.023-0.107-0.061c-0.023-0.046-0.038-0.099-0.038-0.152zM10.179 14.43c0 0.053 0.015 0.099 0.038 0.13s0.053 0.053 0.084 0.053c0.030 0 0.061-0.015 0.084-0.053 0.023-0.030 0.038-0.076 0.038-0.13s-0.015-0.099-0.038-0.13c-0.023-0.030-0.053-0.053-0.084-0.053s-0.061 0.015-0.084 0.053c-0.023 0.030-0.038 0.076-0.038 0.13z"></path>
<path fill="#ffd8d0" style="fill: var(--color1, #ffd8d0)" d="M14.659 10.53h-2.133c-0.337 0-0.61 0.273-0.61 0.61v0 2.133c0 0.337 0.273 0.61 0.61 0.61v0h2.133c0.337 0 0.61-0.273 0.61-0.61v0-2.133c0-0.337-0.273-0.61-0.61-0.61v0z"></path>
<path fill="#fff" style="fill: var(--color6, #fff)" d="M14.301 11.253h-1.394v2.476h1.394v-2.476z"></path>
<path fill="#455a64" style="fill: var(--color11, #455a64)" d="M14.301 12.168h-1.394v1.044h1.394v-1.044z"></path>
<path fill="#fff" style="fill: var(--color6, #fff)" d="M14.301 11.253h-1.394l0.175-0.343h1.051l0.168 0.343z"></path>
<path fill="#dbdbdb" style="fill: var(--color12, #dbdbdb)" d="M14.301 11.253h-1.394l0.175-0.343h1.051l0.168 0.343z"></path>
<path fill="#fff" style="fill: var(--color6, #fff)" d="M14.126 10.621h-1.051v0.29h1.051v-0.29z"></path>
<path fill="#a6a6a6" style="fill: var(--color4, #a6a6a6)" d="M12.96 14.179c0.008 0 0.015 0.008 0.015 0.015v0.023c0.046 0 0.076 0.015 0.107 0.046 0.008 0.008 0.008 0.008 0.008 0.015s-0.008 0.015-0.015 0.015c0 0-0.008 0-0.008-0.008-0.030-0.023-0.061-0.038-0.091-0.038v0.168c0.091 0.023 0.13 0.053 0.13 0.114s-0.053 0.107-0.13 0.114v0.046c0 0.008-0.008 0.015-0.015 0.015s-0.015-0.008-0.015-0.015v-0.046c-0.053-0.008-0.099-0.023-0.137-0.061-0.008 0-0.008-0.008-0.008-0.015s0.008-0.015 0.015-0.015 0.008 0 0.008 0.008c0.030 0.030 0.069 0.053 0.122 0.053v-0.175c-0.091-0.023-0.13-0.053-0.13-0.114s0.053-0.107 0.13-0.107v-0.023c0-0.008 0.008-0.015 0.015-0.015zM12.945 14.408v-0.168c-0.061 0-0.099 0.038-0.099 0.084 0 0.038 0.023 0.069 0.099 0.084zM12.968 14.446v0.168c0.061 0 0.099-0.038 0.099-0.084 0.008-0.038-0.015-0.069-0.099-0.084zM13.181 14.613l0.198-0.183c0.023-0.023 0.038-0.053 0.038-0.084 0-0.023-0.008-0.053-0.030-0.076s-0.053-0.038-0.084-0.038c-0.030 0-0.053 0.008-0.076 0.030l-0.023 0.015c-0.008 0.008-0.015 0.008-0.023 0s-0.008-0.015 0-0.023l0.023-0.023c0.030-0.023 0.061-0.038 0.091-0.038 0.038 0 0.076 0.015 0.099 0.046s0.038 0.061 0.038 0.091c0 0.038-0.015 0.076-0.046 0.107l-0.168 0.152h0.198c0.008 0 0.015 0.008 0.015 0.015s-0.008 0.015-0.015 0.015h-0.236c-0.008 0-0.008 0-0.008-0.008 0 0.015 0 0.008 0.008 0zM13.585 14.583c0.015 0 0.030 0.015 0.030 0.030s-0.015 0.030-0.030 0.030-0.030-0.015-0.030-0.030c0-0.023 0.015-0.030 0.030-0.030zM13.691 14.598c-0.008-0.008-0.008-0.015 0-0.023s0.015-0.008 0.023 0c0.023 0.023 0.053 0.030 0.084 0.030s0.061-0.008 0.084-0.030c0.023-0.023 0.030-0.053 0.030-0.084s-0.008-0.061-0.030-0.084c-0.023-0.023-0.053-0.030-0.084-0.030s-0.061 0.008-0.084 0.030c-0.008 0.008-0.015 0.008-0.023 0v-0.015l0.023-0.175c0-0.008 0-0.008 0.008-0.008h0.206c0.008 0 0.015 0.008 0.015 0.015s-0.008 0.015-0.015 0.015h-0.183l-0.015 0.13c0.023-0.015 0.046-0.023 0.076-0.023 0.038 0 0.076 0.015 0.099 0.046 0.030 0.030 0.046 0.061 0.046 0.099s-0.015 0.076-0.046 0.099c-0.030 0.030-0.069 0.046-0.099 0.046-0.053 0.008-0.091-0.008-0.114-0.038zM14.057 14.43c0-0.061 0.015-0.107 0.038-0.152 0.023-0.038 0.061-0.061 0.107-0.061s0.084 0.023 0.107 0.061c0.023 0.038 0.038 0.091 0.038 0.152s-0.015 0.107-0.038 0.152c-0.023 0.038-0.061 0.061-0.107 0.061s-0.084-0.023-0.107-0.061c-0.023-0.046-0.038-0.099-0.038-0.152zM14.088 14.43c0 0.053 0.015 0.099 0.038 0.13s0.053 0.053 0.084 0.053c0.030 0 0.061-0.015 0.084-0.053 0.023-0.030 0.038-0.076 0.038-0.13s-0.015-0.099-0.038-0.13c-0.023-0.030-0.053-0.053-0.084-0.053s-0.061 0.015-0.084 0.053c-0.023 0.030-0.038 0.076-0.038 0.13z"></path>
<path fill="#ffd8d0" style="fill: var(--color1, #ffd8d0)" d="M18.613 10.53h-2.133c-0.337 0-0.61 0.273-0.61 0.61v0 2.133c0 0.337 0.273 0.61 0.61 0.61v0h2.133c0.337 0 0.61-0.273 0.61-0.61v0-2.133c0-0.337-0.273-0.61-0.61-0.61v0z"></path>
<path fill="#fff" style="fill: var(--color6, #fff)" d="M18.194 11.916v1.653c0 0.099-0.145 0.16-0.648 0.16-0.495 0-0.648-0.061-0.648-0.16v-1.653c0-0.442 0.35-0.724 0.35-0.815v-0.335h0.587v0.335c0.008 0.091 0.358 0.373 0.358 0.815z"></path>
<path fill="#455a64" style="fill: var(--color11, #455a64)" d="M17.874 10.621h-0.655v0.282h0.655v-0.282z"></path>
<path fill="#dbdbdb" style="fill: var(--color12, #dbdbdb)" d="M18.004 12.48h-0.922v0.64h0.922v-0.64z"></path>
<path fill="#a6a6a6" style="fill: var(--color4, #a6a6a6)" d="M16.876 14.179c0.008 0 0.015 0.008 0.015 0.015v0.023c0.046 0 0.076 0.015 0.107 0.046 0.008 0.008 0.008 0.008 0.008 0.015s-0.008 0.015-0.015 0.015c0 0-0.008 0-0.008-0.008-0.030-0.023-0.061-0.038-0.091-0.038v0.168c0.091 0.023 0.13 0.053 0.13 0.114s-0.053 0.107-0.13 0.114v0.046c0 0.008-0.008 0.015-0.015 0.015s-0.015-0.008-0.015-0.015v-0.046c-0.053-0.008-0.099-0.023-0.137-0.061-0.008 0-0.008-0.008-0.008-0.015s0.008-0.015 0.015-0.015 0.008 0 0.008 0.008c0.030 0.030 0.069 0.053 0.122 0.053v-0.175c-0.091-0.023-0.13-0.053-0.13-0.114s0.053-0.107 0.13-0.107v-0.023c0-0.008 0.008-0.015 0.015-0.015zM16.861 14.408v-0.168c-0.061 0-0.099 0.038-0.099 0.084 0 0.038 0.023 0.069 0.099 0.084zM16.884 14.446v0.168c0.061 0 0.099-0.038 0.099-0.084 0.008-0.038-0.015-0.069-0.099-0.084zM17.097 14.613l0.198-0.183c0.023-0.023 0.038-0.053 0.038-0.084 0-0.023-0.008-0.053-0.030-0.076s-0.053-0.038-0.084-0.038c-0.030 0-0.053 0.008-0.076 0.030l-0.023 0.015c-0.008 0.008-0.015 0.008-0.023 0s-0.008-0.015 0-0.023l0.023-0.023c0.030-0.023 0.061-0.038 0.091-0.038 0.038 0 0.076 0.015 0.099 0.046s0.038 0.061 0.038 0.091c0 0.038-0.015 0.076-0.046 0.107l-0.168 0.152h0.198c0.008 0 0.015 0.008 0.015 0.015s-0.008 0.015-0.015 0.015h-0.236c-0.008 0-0.008 0-0.008-0.008 0 0.015 0 0.008 0.008 0zM17.501 14.583c0.015 0 0.030 0.015 0.030 0.030s-0.015 0.030-0.030 0.030-0.030-0.015-0.030-0.030c0-0.023 0.015-0.030 0.030-0.030zM17.592 14.43c0-0.061 0.015-0.107 0.038-0.152 0.023-0.038 0.061-0.061 0.107-0.061s0.084 0.023 0.107 0.061c0.023 0.038 0.038 0.091 0.038 0.152s-0.015 0.107-0.038 0.152c-0.023 0.038-0.061 0.061-0.107 0.061s-0.084-0.023-0.107-0.061c-0.023-0.046-0.038-0.099-0.038-0.152zM17.623 14.43c0 0.053 0.015 0.099 0.038 0.13s0.053 0.053 0.084 0.053c0.030 0 0.061-0.015 0.084-0.053 0.023-0.030 0.038-0.076 0.038-0.13s-0.015-0.099-0.038-0.13c-0.023-0.030-0.053-0.053-0.084-0.053s-0.061 0.015-0.084 0.053c-0.030 0.030-0.038 0.076-0.038 0.13zM18.019 14.43c0-0.061 0.015-0.107 0.038-0.152 0.023-0.038 0.061-0.061 0.107-0.061s0.084 0.023 0.107 0.061c0.023 0.038 0.038 0.091 0.038 0.152s-0.015 0.107-0.038 0.152c-0.023 0.038-0.061 0.061-0.107 0.061s-0.084-0.023-0.107-0.061c-0.023-0.046-0.038-0.099-0.038-0.152zM18.050 14.43c0 0.053 0.015 0.099 0.038 0.13s0.053 0.053 0.084 0.053c0.030 0 0.061-0.015 0.084-0.053 0.023-0.030 0.038-0.076 0.038-0.13s-0.015-0.099-0.038-0.13c-0.023-0.030-0.053-0.053-0.084-0.053s-0.061 0.015-0.084 0.053c-0.023 0.030-0.038 0.076-0.038 0.13z"></path>
<path fill="#ffd8d0" style="fill: var(--color1, #ffd8d0)" d="M10.697 16.8h-2.133c-0.337 0-0.61 0.273-0.61 0.61v0 2.133c0 0.337 0.273 0.61 0.61 0.61v0h2.133c0.337 0 0.61-0.273 0.61-0.61v0-2.133c0-0.337-0.273-0.61-0.61-0.61v0z"></path>
<path fill="#fff" style="fill: var(--color6, #fff)" d="M8.853 18.53c0 0.587 0.236 1.509 0.267 1.509h0.983c0.030 0 0.366-0.785 0.366-1.577 0-0.823-0.571-0.968-0.571-1.021v-0.328h-0.579v0.32c0 0.061-0.465 0.366-0.465 1.097zM9.958 17.707c0.282 0 0.51 0.77 0.305 0.846-0.29 0.107-0.564-0.846-0.305-0.846z"></path>
<path fill="#ebebeb" style="fill: var(--color14, #ebebeb)" d="M9.684 17.707c0.015-0.198-0.419-0.152-0.602 0.495-0.137 0.488 0.015 1.501 0.503 1.501 0.579 0 0.617-0.853 0.579-0.891-0.030-0.038-0.549-0.221-0.48-1.105z"></path>
<path fill="#455a64" style="fill: var(--color11, #455a64)" d="M9.204 17.295h0.815l-0.053-0.358h-0.709l-0.053 0.358z"></path>
<path fill="#a6a6a6" style="fill: var(--color4, #a6a6a6)" d="M8.983 20.571c0.008 0 0.015 0.008 0.015 0.015v0.023c0.046 0 0.076 0.015 0.107 0.046 0.008 0.008 0.008 0.008 0.008 0.015s-0.008 0.015-0.015 0.015c0 0-0.008 0-0.008-0.008-0.030-0.023-0.061-0.038-0.091-0.038v0.168c0.091 0.023 0.13 0.053 0.13 0.114s-0.053 0.107-0.13 0.114v0.046c0 0.008-0.008 0.015-0.015 0.015s-0.015-0.008-0.015-0.015v-0.046c-0.053-0.008-0.099-0.023-0.137-0.061-0.008 0-0.008-0.008-0.008-0.015s0.008-0.015 0.015-0.015 0.008 0 0.008 0.008c0.030 0.030 0.069 0.053 0.122 0.053v-0.175c-0.091-0.023-0.13-0.053-0.13-0.114s0.053-0.107 0.13-0.107v-0.023c0.008-0.008 0.008-0.015 0.015-0.015zM8.975 20.808v-0.168c-0.061 0-0.099 0.038-0.099 0.084 0 0.038 0.015 0.061 0.099 0.084zM8.998 20.846v0.168c0.061 0 0.099-0.038 0.099-0.084s-0.015-0.069-0.099-0.084zM9.219 20.998c-0.008-0.008-0.008-0.015 0-0.023s0.015-0.008 0.023 0c0.023 0.023 0.053 0.030 0.084 0.030s0.061-0.008 0.084-0.030c0.023-0.023 0.030-0.053 0.030-0.084s-0.008-0.061-0.030-0.084c-0.023-0.023-0.053-0.030-0.084-0.030s-0.061 0.008-0.084 0.030c-0.008 0.008-0.015 0.008-0.023 0v-0.015l0.023-0.175c0-0.008 0-0.008 0.008-0.008h0.206c0.008 0 0.015 0.008 0.015 0.015s-0.008 0.015-0.015 0.015h-0.183l-0.015 0.13c0.023-0.015 0.046-0.023 0.076-0.023 0.038 0 0.076 0.015 0.099 0.046 0.030 0.030 0.046 0.061 0.046 0.099s-0.015 0.076-0.046 0.099c-0.030 0.030-0.069 0.046-0.099 0.046-0.046 0-0.084-0.008-0.114-0.038zM9.623 20.975c0.015 0 0.030 0.015 0.030 0.030s-0.015 0.030-0.030 0.030-0.030-0.015-0.030-0.030 0.015-0.030 0.030-0.030zM9.714 20.823c0-0.061 0.015-0.107 0.038-0.152 0.023-0.038 0.061-0.061 0.107-0.061s0.084 0.023 0.107 0.061c0.023 0.038 0.038 0.091 0.038 0.152s-0.015 0.107-0.038 0.152c-0.023 0.038-0.061 0.061-0.107 0.061s-0.084-0.023-0.107-0.061c-0.023-0.038-0.038-0.091-0.038-0.152zM9.745 20.823c0 0.053 0.015 0.099 0.038 0.13s0.053 0.053 0.084 0.053c0.030 0 0.061-0.015 0.084-0.053 0.023-0.030 0.038-0.076 0.038-0.13s-0.015-0.099-0.038-0.13c-0.023-0.030-0.053-0.053-0.084-0.053s-0.061 0.015-0.084 0.053c-0.023 0.030-0.038 0.084-0.038 0.13zM10.149 20.823c0-0.061 0.015-0.107 0.038-0.152 0.023-0.038 0.061-0.061 0.107-0.061s0.084 0.023 0.107 0.061c0.023 0.038 0.038 0.091 0.038 0.152s-0.015 0.107-0.038 0.152c-0.023 0.038-0.061 0.061-0.107 0.061s-0.084-0.023-0.107-0.061c-0.030-0.038-0.038-0.091-0.038-0.152zM10.171 20.823c0 0.053 0.015 0.099 0.038 0.13s0.053 0.053 0.084 0.053c0.030 0 0.061-0.015 0.084-0.053 0.023-0.030 0.038-0.076 0.038-0.13s-0.015-0.099-0.038-0.13c-0.023-0.030-0.053-0.053-0.084-0.053s-0.061 0.015-0.084 0.053c-0.023 0.030-0.038 0.084-0.038 0.13z"></path>
<path fill="#ffd8d0" style="fill: var(--color1, #ffd8d0)" d="M14.659 16.8h-2.133c-0.337 0-0.61 0.273-0.61 0.61v0 2.133c0 0.337 0.273 0.61 0.61 0.61v0h2.133c0.337 0 0.61-0.273 0.61-0.61v0-2.133c0-0.337-0.273-0.61-0.61-0.61v0z"></path>
<path fill="#fff" style="fill: var(--color6, #fff)" d="M14.56 19.535h-1.928c-0.19 0-0.35-0.152-0.35-0.35v-1.166c0-0.19 0.152-0.35 0.35-0.35h1.928c0.19 0 0.35 0.152 0.35 0.35v1.166c0 0.19-0.16 0.35-0.35 0.35z"></path>
<path fill="#455a64" style="fill: var(--color11, #455a64)" d="M14.613 17.44h-2.027v0.236h2.027v-0.236zM14.918 18.126h-2.636v0.96h2.636v-0.96z"></path>
<path fill="#fff" style="fill: var(--color6, #fff)" d="M14.4 18.598c0 0.221-0.358 0.404-0.8 0.404s-0.8-0.183-0.8-0.404 0.358-0.404 0.8-0.404 0.8 0.183 0.8 0.404z"></path>
<path fill="#a6a6a6" style="fill: var(--color4, #a6a6a6)" d="M12.937 20.571c0.008 0 0.015 0.008 0.015 0.015v0.023c0.046 0 0.076 0.015 0.107 0.046 0.008 0.008 0.008 0.008 0.008 0.015s-0.008 0.015-0.015 0.015c0 0-0.008 0-0.008-0.008-0.030-0.023-0.061-0.038-0.091-0.038v0.168c0.091 0.023 0.13 0.053 0.13 0.114s-0.053 0.107-0.13 0.114v0.046c0 0.008-0.008 0.015-0.015 0.015s-0.015-0.008-0.015-0.015v-0.046c-0.053-0.008-0.099-0.023-0.137-0.061-0.008 0-0.008-0.008-0.008-0.015s0.008-0.015 0.015-0.015 0.008 0 0.008 0.008c0.030 0.030 0.069 0.053 0.122 0.053v-0.175c-0.091-0.023-0.13-0.053-0.13-0.114s0.053-0.107 0.13-0.107v-0.023c0-0.008 0.008-0.015 0.015-0.015zM12.922 20.808v-0.168c-0.061 0-0.099 0.038-0.099 0.084 0 0.038 0.023 0.061 0.099 0.084zM12.952 20.846v0.168c0.061 0 0.099-0.038 0.099-0.084s-0.023-0.069-0.099-0.084zM13.402 20.952h-0.236c-0.008-0.008-0.008-0.015 0-0.023l0.244-0.305c0.008-0.008 0.015-0.008 0.023 0 0 0 0 0.008 0.008 0.008v0.29h0.030c0.008 0 0.015 0.008 0.015 0.015s-0.008 0.015-0.015 0.015h-0.030v0.076c0 0.008-0.008 0.015-0.015 0.015s-0.015-0.008-0.015-0.015v-0.076h-0.008zM13.402 20.922v-0.251l-0.198 0.251h0.198zM13.608 20.975c0.015 0 0.030 0.015 0.030 0.030s-0.015 0.030-0.030 0.030-0.030-0.015-0.030-0.030 0.015-0.030 0.030-0.030zM13.714 20.998c-0.008-0.008-0.008-0.015 0-0.023s0.015-0.008 0.023 0c0.023 0.023 0.053 0.030 0.084 0.030s0.061-0.008 0.084-0.030c0.023-0.023 0.030-0.053 0.030-0.084s-0.008-0.061-0.030-0.084c-0.023-0.023-0.053-0.030-0.084-0.030s-0.061 0.008-0.084 0.030c-0.008 0.008-0.015 0.008-0.023 0v-0.015l0.023-0.175c0-0.008 0-0.008 0.008-0.008h0.206c0.008 0 0.015 0.008 0.015 0.015s-0.008 0.015-0.015 0.015h-0.183l-0.015 0.13c0.023-0.015 0.046-0.023 0.076-0.023 0.038 0 0.076 0.015 0.099 0.046 0.030 0.030 0.046 0.061 0.046 0.099s-0.015 0.076-0.046 0.099c-0.030 0.030-0.069 0.046-0.099 0.046-0.053 0-0.091-0.008-0.114-0.038zM14.080 20.823c0-0.061 0.015-0.107 0.038-0.152 0.023-0.038 0.061-0.061 0.107-0.061s0.084 0.023 0.107 0.061c0.023 0.038 0.038 0.091 0.038 0.152s-0.015 0.107-0.038 0.152c-0.023 0.038-0.061 0.061-0.107 0.061s-0.084-0.023-0.107-0.061c-0.023-0.038-0.038-0.091-0.038-0.152zM14.11 20.823c0 0.053 0.015 0.099 0.038 0.13s0.053 0.053 0.084 0.053c0.030 0 0.061-0.015 0.084-0.053 0.023-0.030 0.038-0.076 0.038-0.13s-0.015-0.099-0.038-0.13c-0.023-0.030-0.053-0.053-0.084-0.053s-0.061 0.015-0.084 0.053c-0.023 0.030-0.038 0.084-0.038 0.13z"></path>
<path fill="#ffd8d0" style="fill: var(--color1, #ffd8d0)" d="M18.613 16.8h-2.133c-0.337 0-0.61 0.273-0.61 0.61v0 2.133c0 0.337 0.273 0.61 0.61 0.61v0h2.133c0.337 0 0.61-0.273 0.61-0.61v0-2.133c0-0.337-0.273-0.61-0.61-0.61v0z"></path>
<path fill="#fff" style="fill: var(--color6, #fff)" d="M18.339 18.918v0.891h-1.592v-0.891c0-0.312 0.069-1.128 0.792-1.128 0.731 0 0.8 0.815 0.8 1.128z"></path>
<path fill="#fff" style="fill: var(--color6, #fff)" d="M18.385 19.931h-1.684c-0.046 0-0.084-0.038-0.084-0.084s0.038-0.084 0.084-0.084h1.684c0.046 0 0.084 0.038 0.084 0.084s-0.038 0.084-0.084 0.084zM17.798 17.608h-0.503v0.381h0.503v-0.381z"></path>
<path fill="#455a64" style="fill: var(--color11, #455a64)" d="M17.851 17.425h-0.617v0.251h0.617v-0.251z"></path>
<path fill="#455a64" style="fill: var(--color11, #455a64)" d="M17.661 17.181h-0.229v0.29h0.229v-0.29z"></path>
<path fill="#455a64" style="fill: var(--color11, #455a64)" d="M17.31 17.074c-0.061 0.046-0.084 0.137 0.008 0.19 0.076 0.046 0.48-0.053 0.526-0.053 0.046 0.008 0.145 0.053 0.16 0.053s0.061-0.023 0.053-0.046c0-0.023-0.137-0.122-0.244-0.145s-0.419-0.061-0.503 0z"></path>
<path fill="#a6a6a6" style="fill: var(--color4, #a6a6a6)" d="M16.891 20.571c0.008 0 0.015 0.008 0.015 0.015v0.023c0.046 0 0.076 0.015 0.107 0.046 0.008 0.008 0.008 0.008 0.008 0.015s-0.008 0.015-0.015 0.015c0 0-0.008 0-0.008-0.008-0.030-0.023-0.061-0.038-0.091-0.038v0.168c0.091 0.023 0.13 0.053 0.13 0.114s-0.053 0.107-0.13 0.114v0.046c0 0.008-0.008 0.015-0.015 0.015s-0.015-0.008-0.015-0.015v-0.046c-0.053-0.008-0.099-0.023-0.137-0.061-0.008 0-0.008-0.008-0.008-0.015s0.008-0.015 0.015-0.015 0.008 0 0.008 0.008c0.030 0.030 0.069 0.053 0.122 0.053v-0.175c-0.091-0.023-0.13-0.053-0.13-0.114s0.053-0.107 0.13-0.107v-0.023c0-0.008 0.008-0.015 0.015-0.015zM16.876 20.808v-0.168c-0.061 0-0.099 0.038-0.099 0.084 0.008 0.038 0.023 0.061 0.099 0.084zM16.907 20.846v0.168c0.061 0 0.099-0.038 0.099-0.084s-0.023-0.069-0.099-0.084zM17.371 20.64l-0.107 0.114c0.030 0.008 0.053 0.015 0.076 0.038 0.030 0.030 0.046 0.069 0.046 0.099 0 0.038-0.015 0.076-0.046 0.099-0.030 0.030-0.069 0.046-0.099 0.046-0.038 0-0.076-0.015-0.099-0.046-0.008-0.008-0.008-0.015 0-0.023s0.015-0.008 0.023 0c0.023 0.023 0.053 0.030 0.084 0.030s0.061-0.008 0.084-0.030c0.023-0.023 0.030-0.053 0.030-0.084s-0.008-0.061-0.030-0.084c-0.023-0.023-0.053-0.030-0.084-0.030-0.008 0-0.008 0-0.015-0.008s-0.008-0.015 0-0.023l0.107-0.107h-0.16c-0.008 0-0.015-0.008-0.015-0.015s0.008-0.015 0.015-0.015h0.198c0.008 0 0.015 0.008 0.015 0.015l-0.023 0.023c0.008 0 0 0 0 0zM17.531 20.975c0.015 0 0.030 0.015 0.030 0.030s-0.015 0.030-0.030 0.030-0.030-0.015-0.030-0.030 0.015-0.030 0.030-0.030zM17.638 20.998c-0.008-0.008-0.008-0.015 0-0.023s0.015-0.008 0.023 0c0.023 0.023 0.053 0.030 0.084 0.030s0.061-0.008 0.084-0.030c0.023-0.023 0.030-0.053 0.030-0.084s-0.008-0.061-0.030-0.084c-0.023-0.023-0.053-0.030-0.084-0.030s-0.061 0.008-0.084 0.030c-0.008 0.008-0.015 0.008-0.023 0v-0.015l0.023-0.175c0-0.008 0-0.008 0.008-0.008h0.206c0.008 0 0.015 0.008 0.015 0.015s-0.008 0.015-0.015 0.015h-0.183l-0.015 0.13c0.023-0.015 0.046-0.023 0.076-0.023 0.038 0 0.076 0.015 0.099 0.046 0.030 0.030 0.046 0.061 0.046 0.099s-0.015 0.076-0.046 0.099c-0.030 0.030-0.069 0.046-0.099 0.046-0.053 0-0.084-0.008-0.114-0.038zM18.004 20.823c0-0.061 0.015-0.107 0.038-0.152 0.023-0.038 0.061-0.061 0.107-0.061s0.084 0.023 0.107 0.061c0.023 0.038 0.038 0.091 0.038 0.152s-0.015 0.107-0.038 0.152c-0.023 0.038-0.061 0.061-0.107 0.061s-0.084-0.023-0.107-0.061c-0.023-0.038-0.038-0.091-0.038-0.152zM18.034 20.823c0 0.053 0.015 0.099 0.038 0.13s0.053 0.053 0.084 0.053c0.030 0 0.061-0.015 0.084-0.053 0.023-0.030 0.038-0.076 0.038-0.13s-0.015-0.099-0.038-0.13c-0.023-0.030-0.053-0.053-0.084-0.053s-0.061 0.015-0.084 0.053c-0.023 0.030-0.038 0.084-0.038 0.13z"></path>
<path fill="#263238" style="fill: var(--color9, #263238)" d="M16.495 24.069h-5.783c-0.421 0-0.762 0.341-0.762 0.762v0.45c0 0.421 0.341 0.762 0.762 0.762h5.783c0.421 0 0.762-0.341 0.762-0.762v-0.45c0-0.421-0.341-0.762-0.762-0.762z"></path>
<path fill="#fff" style="fill: var(--color6, #fff)" d="M11.078 25.189h-0.213l-0.046 0.114c-0.008 0.023-0.023 0.030-0.046 0.030h-0.015c-0.023-0.008-0.038-0.038-0.030-0.061l0.19-0.51c0.008-0.023 0.030-0.030 0.046-0.030 0.023 0 0.038 0.008 0.046 0.030l0.19 0.51c0.008 0.023 0 0.053-0.030 0.061h-0.015c-0.023 0-0.038-0.008-0.046-0.030l-0.030-0.114zM11.040 25.097l-0.069-0.183-0.069 0.183h0.137zM11.33 25.288v-0.51c0-0.030 0.023-0.046 0.046-0.046h0.099c0.168 0 0.305 0.137 0.305 0.305s-0.137 0.305-0.305 0.305h-0.099c-0.030-0.008-0.046-0.030-0.046-0.053zM11.421 25.234h0.053c0.114 0 0.206-0.091 0.206-0.206s-0.091-0.206-0.206-0.206h-0.053v0.411zM11.924 25.288v-0.51c0-0.030 0.023-0.046 0.046-0.046h0.099c0.168 0 0.305 0.137 0.305 0.305s-0.137 0.305-0.305 0.305h-0.099c-0.023-0.008-0.046-0.030-0.046-0.053zM12.023 25.234h0.053c0.114 0 0.206-0.091 0.206-0.206s-0.091-0.206-0.206-0.206h-0.053v0.411zM13.181 24.823h-0.137v0.465c0 0.030-0.023 0.046-0.046 0.046s-0.046-0.023-0.046-0.046v-0.465h-0.137c-0.030 0-0.046-0.023-0.046-0.046 0-0.030 0.023-0.046 0.046-0.046h0.373c0.023 0 0.046 0.023 0.046 0.046-0.008 0.023-0.030 0.046-0.053 0.046zM13.806 24.8c0.053 0.061 0.084 0.137 0.084 0.221s-0.030 0.16-0.084 0.221c-0.053 0.053-0.13 0.091-0.206 0.091-0.084 0-0.16-0.038-0.213-0.091s-0.084-0.137-0.084-0.221c0-0.084 0.030-0.16 0.084-0.221s0.13-0.091 0.213-0.091c0.076 0 0.152 0.038 0.206 0.091zM13.79 25.021c0-0.061-0.023-0.114-0.061-0.152s-0.084-0.061-0.137-0.061-0.107 0.023-0.137 0.061c-0.038 0.038-0.061 0.091-0.061 0.152s0.023 0.114 0.061 0.152 0.084 0.061 0.137 0.061 0.099-0.023 0.137-0.061 0.061-0.091 0.061-0.152zM14.293 25.021c0-0.175 0.145-0.312 0.32-0.312 0.076 0 0.145 0.023 0.198 0.069 0.023 0.015 0.023 0.046 0.008 0.069s-0.046 0.023-0.069 0.008c-0.038-0.030-0.084-0.046-0.137-0.046-0.061 0-0.114 0.023-0.152 0.061s-0.061 0.091-0.061 0.152 0.023 0.114 0.061 0.152 0.099 0.061 0.152 0.061 0.099-0.015 0.137-0.046c0.023-0.015 0.053-0.008 0.069 0.008 0.015 0.023 0.015 0.053-0.008 0.069-0.053 0.046-0.122 0.069-0.198 0.069-0.175 0-0.32-0.137-0.32-0.312zM15.284 25.189h-0.213l-0.046 0.114c-0.008 0.023-0.023 0.030-0.046 0.030h-0.015c-0.023-0.008-0.038-0.038-0.030-0.061l0.19-0.51c0.008-0.023 0.030-0.030 0.046-0.030 0.023 0 0.038 0.008 0.046 0.030l0.19 0.51c0.008 0.023 0 0.053-0.030 0.061h-0.015c-0.023 0-0.038-0.008-0.046-0.030l-0.030-0.114zM15.253 25.097l-0.069-0.183-0.069 0.183h0.137zM15.939 25.257c0.008 0.023-0.008 0.053-0.030 0.061h-0.023c-0.008 0-0.023 0-0.030-0.008s-0.023-0.015-0.030-0.030c-0.015-0.023-0.015-0.053-0.015-0.107 0-0.015-0.008-0.030-0.008-0.038l-0.023-0.023c-0.015-0.015-0.038-0.023-0.046-0.023h-0.114v0.19c0 0.023-0.023 0.046-0.046 0.046-0.030 0-0.046-0.023-0.046-0.046v-0.51c0-0.030 0.023-0.046 0.046-0.046h0.152c0.107 0 0.183 0.084 0.183 0.183 0 0.061-0.023 0.107-0.069 0.145l0.030 0.030c0.015 0.023 0.030 0.061 0.030 0.091v0.053c0.023 0.008 0.030 0.023 0.038 0.030zM15.817 24.914c0-0.053-0.038-0.091-0.091-0.091h-0.107v0.175h0.107c0.053 0 0.091-0.038 0.091-0.084zM16.434 24.823h-0.137v0.465c0 0.030-0.023 0.046-0.046 0.046s-0.046-0.023-0.046-0.046v-0.465h-0.137c-0.030 0-0.046-0.023-0.046-0.046 0-0.030 0.023-0.046 0.046-0.046h0.373c0.023 0 0.046 0.023 0.046 0.046-0.008 0.023-0.030 0.046-0.053 0.046z"></path>
<path fill="#f7a9a0" style="fill: var(--color15, #f7a9a0)" d="M22.019 30.72c0.168 0.053 4.891-0.008 5.067-0.122 0.069-0.046 0.099-0.731 0.114-1.57v-0.023c0-0.175 0.008-0.35 0.008-0.526v-0.076c0.008-1.204-0.015-2.453-0.015-2.453l-3.162 0.030 0.091 2.43v0.099l0.023 0.503v0.053s-1.798 0.83-1.981 0.983c-0.175 0.137-0.312 0.617-0.145 0.67z"></path>
<path fill="#ebebeb" style="fill: var(--color14, #ebebeb)" d="M22.019 30.72c0.168 0.053 4.891-0.008 5.067-0.122 0.069-0.046 0.099-0.731 0.114-1.57v-0.023c0-0.175 0.008-0.35 0.008-0.526v-0.076l-3.078 0.008v0.099l0.023 0.503v0.053s-1.798 0.83-1.981 0.983c-0.183 0.137-0.32 0.617-0.152 0.67z"></path>
<path fill="#ffc727" style="fill: var(--color5, #ffc727)" d="M22.019 30.72c0.099 0.030 1.935 0.023 3.368-0.015 0.891-0.023 1.638-0.061 1.707-0.107s0.099-0.716 0.114-1.531v-0.069l-3.048 0.008v0.053s-1.798 0.83-1.981 0.983c-0.19 0.145-0.328 0.625-0.16 0.678z"></path>
<path fill="#263238" style="fill: var(--color9, #263238)" d="M22.065 30.537c0.8-0.030 4.008-0.076 4.8-0.046 0.008 0 0.008 0.008 0 0.008-0.792 0.046-4 0.069-4.8 0.053-0.015-0.008-0.015-0.015 0-0.015zM23.81 29.021c0.312-0.061 0.693-0.023 0.937 0.198 0.008 0.008 0 0.023-0.015 0.015-0.312-0.091-0.602-0.152-0.922-0.183-0.023 0.008-0.023-0.030 0-0.030zM23.589 29.158c0.312-0.061 0.693-0.023 0.937 0.198 0.008 0.008 0 0.023-0.015 0.015-0.312-0.091-0.602-0.152-0.922-0.183-0.023 0.008-0.023-0.023 0-0.030zM23.36 29.295c0.312-0.061 0.693-0.023 0.937 0.198 0.008 0.008 0 0.023-0.015 0.015-0.312-0.091-0.602-0.152-0.922-0.183-0.015 0.008-0.023-0.023 0-0.030z"></path>
<path fill="#263238" style="fill: var(--color9, #263238)" d="M23.543 28.785c0.221 0.168 0.51 0.236 0.777 0.328 0.030 0.008 0.046-0.015 0.046-0.038 0.008 0 0.008-0.008 0.008-0.008-0.091-0.259-0.274-0.533-0.495-0.709-0.13-0.107-0.366-0.183-0.48-0.008-0.114 0.152 0.015 0.335 0.145 0.434zM23.459 28.533c-0.061-0.343 0.312-0.168 0.404-0.084 0.061 0.053 0.114 0.114 0.168 0.175 0.107 0.13 0.198 0.274 0.297 0.411-0.122-0.053-0.251-0.099-0.381-0.145-0.152-0.053-0.457-0.168-0.488-0.358z"></path>
<path fill="#263238" style="fill: var(--color9, #263238)" d="M25.41 28.571c-0.076-0.198-0.32-0.175-0.472-0.099-0.251 0.122-0.495 0.343-0.64 0.579 0 0.008 0 0.008 0.008 0.015-0.008 0.023 0.008 0.053 0.038 0.053 0.274-0.030 0.571-0.030 0.83-0.145 0.145-0.069 0.312-0.221 0.236-0.404zM24.747 28.983c-0.137 0.015-0.267 0.030-0.404 0.053 0.122-0.114 0.244-0.229 0.381-0.328 0.069-0.046 0.137-0.099 0.206-0.137 0.114-0.061 0.51-0.145 0.373 0.175-0.076 0.175-0.396 0.213-0.556 0.236zM22.461 29.905c0.19-0.008 0.373 0.076 0.48 0.19 0.099 0.107 0.19 0.259 0.183 0.427 0 0.008-0.008 0.008-0.008 0-0.053-0.312-0.335-0.579-0.655-0.602-0.008-0.008-0.008-0.015 0-0.015zM26.667 29.768c0.358-0.008 0.366 0.556 0.008 0.556-0.366 0-0.373-0.556-0.008-0.556z"></path>
<path fill="#263238" style="fill: var(--color9, #263238)" d="M25.379 30.697c0.891-0.023 1.638-0.061 1.707-0.107s0.099-0.716 0.114-1.531c-0.366 0.328-1.28 1.143-1.821 1.638z"></path>
<path fill="#455a64" style="fill: var(--color11, #455a64)" d="M28.16 12.335s-0.709 7.985-0.823 8.594c-0.030 0.137-0.046 0.891-0.053 1.867-0.023 2.118-0.008 5.935-0.008 5.935h-3.33s0.099-6.613 0.244-7.832c0.145-1.219 1.090-8.564 1.090-8.564h2.88z"></path>
<path fill="#263238" style="fill: var(--color9, #263238)" d="M24.091 28.145c0.518-0.008 0.373-0.015 0.891-0.023 0.251 0 1.928-0.015 2.164 0.023 0.008 0 0.008 0.008 0 0.008-0.236 0.038-1.912 0.023-2.164 0.023-0.518-0.008-0.373-0.008-0.891-0.023-0.008 0.008-0.008-0.008 0-0.008zM26.644 24.366c0-0.48 0.008-0.968 0.008-1.448 0-0.465 0-0.937 0.023-1.402 0.046-0.945 0.236-1.874 0.373-2.811s0.251-1.874 0.35-2.819c0.114-1.059 0.221-2.11 0.328-3.17 0-0.008 0.015-0.008 0.008 0-0.16 1.882-0.335 3.771-0.594 5.646-0.069 0.465-0.137 0.93-0.213 1.394-0.076 0.472-0.152 0.937-0.19 1.417-0.038 0.465-0.046 0.93-0.046 1.402-0.008 0.48-0.008 0.968-0.015 1.448-0.008 1.074-0.023 2.72-0.030 3.794 0 0.023-0.030 0.023-0.030 0 0.015-0.96 0.023-2.491 0.030-3.451z"></path>
<path fill="#263238" style="fill: var(--color9, #263238)" d="M28.869 12.335s-1.41 7.985-1.524 8.594c-0.030 0.137-0.046 0.891-0.053 1.867l-1.585-10.461h3.162z"></path>
<path fill="#f7a9a0" style="fill: var(--color15, #f7a9a0)" d="M25.882 31.002c0.168 0.038 4.876-0.35 5.051-0.48 0.069-0.046 0.046-0.739 0-1.57v-0.023c-0.008-0.175-0.023-0.35-0.030-0.526 0-0.023 0-0.046-0.008-0.076-0.076-1.204-0.183-2.446-0.183-2.446l-3.154 0.259 0.267 2.415 0.008 0.099 0.053 0.503 0.008 0.053s-1.737 0.96-1.905 1.12c-0.168 0.145-0.274 0.625-0.107 0.67z"></path>
<path fill="#ebebeb" style="fill: var(--color14, #ebebeb)" d="M25.882 31.002c0.168 0.038 4.876-0.35 5.051-0.48 0.069-0.046 0.046-0.739 0-1.57v-0.023c-0.008-0.175-0.023-0.35-0.030-0.526 0-0.023 0-0.046-0.008-0.076l-3.070 0.229 0.008 0.099 0.053 0.503 0.008 0.053s-1.737 0.96-1.905 1.12c-0.168 0.145-0.274 0.625-0.107 0.67z"></path>
<path fill="#ffc727" style="fill: var(--color5, #ffc727)" d="M25.882 31.002c0.168 0.038 4.876-0.35 5.051-0.48 0.069-0.046 0.046-0.739 0-1.57v-0.023l-3.040 0.221 0.008 0.053s-1.737 0.96-1.905 1.12c-0.175 0.152-0.282 0.632-0.114 0.678z"></path>
<path fill="#263238" style="fill: var(--color9, #263238)" d="M25.92 30.811c0.792-0.084 3.992-0.358 4.785-0.381 0.008 0 0.008 0.008 0 0.008-0.785 0.099-3.992 0.35-4.785 0.389-0.015 0-0.015-0.015 0-0.015zM27.558 29.181c0.305-0.084 0.693-0.069 0.952 0.137 0.008 0.008 0 0.023-0.015 0.023-0.32-0.069-0.61-0.107-0.937-0.114-0.023-0.008-0.023-0.046 0-0.046z"></path>
<path fill="#263238" style="fill: var(--color9, #263238)" d="M27.337 29.333c0.305-0.084 0.693-0.069 0.952 0.137 0.008 0.008 0 0.023-0.015 0.023-0.32-0.069-0.61-0.107-0.937-0.114-0.015-0.008-0.015-0.038 0-0.046z"></path>
<path fill="#263238" style="fill: var(--color9, #263238)" d="M27.124 29.486c0.305-0.084 0.693-0.069 0.952 0.137 0.008 0.008 0 0.023-0.015 0.023-0.32-0.069-0.61-0.107-0.937-0.114-0.015-0.008-0.023-0.038 0-0.046zM27.269 28.968c0.236 0.152 0.526 0.198 0.792 0.274 0.030 0.008 0.046-0.023 0.046-0.046 0.008 0 0.008-0.008 0.008-0.015-0.107-0.251-0.312-0.518-0.541-0.678-0.137-0.099-0.373-0.152-0.48 0.023s0.038 0.35 0.175 0.442zM27.17 28.716c-0.084-0.335 0.297-0.19 0.396-0.114 0.061 0.046 0.122 0.107 0.183 0.168 0.122 0.122 0.221 0.259 0.328 0.389-0.13-0.046-0.259-0.076-0.389-0.114-0.16-0.046-0.472-0.137-0.518-0.328z"></path>
<path fill="#263238" style="fill: var(--color9, #263238)" d="M29.12 28.617c-0.091-0.19-0.328-0.152-0.48-0.069-0.236 0.137-0.472 0.381-0.602 0.625 0 0.008 0 0.008 0.008 0.015 0 0.023 0.015 0.053 0.038 0.046 0.274-0.053 0.571-0.069 0.815-0.198 0.145-0.076 0.305-0.236 0.221-0.419zM28.48 29.074c-0.13 0.030-0.267 0.046-0.396 0.084 0.114-0.122 0.229-0.244 0.358-0.358 0.061-0.053 0.13-0.107 0.198-0.145 0.107-0.069 0.503-0.183 0.389 0.145-0.069 0.183-0.389 0.244-0.549 0.274zM26.194 30.179c0.19-0.030 0.381 0.046 0.495 0.145 0.107 0.099 0.206 0.244 0.221 0.404 0 0.008-0.008 0.008-0.008 0-0.076-0.305-0.389-0.549-0.701-0.541-0.008 0.008-0.008-0.008-0.008-0.008zM30.37 29.676c0.358-0.038 0.411 0.518 0.053 0.556s-0.411-0.518-0.053-0.556z"></path>
<path fill="#455a64" style="fill: var(--color11, #455a64)" d="M27.756 28.907l3.33-0.145s-0.907-7.299-0.922-7.749c-0.046-1.166-0.815-8.686-0.815-8.686h-4.061s0.259 1.737 0.693 2.834c0 0 0.335 0.107 0.853 0.389 0 0 0.381 4.975 0.396 5.592 0.015 1.234 0.526 7.764 0.526 7.764z"></path>
<path fill="#263238" style="fill: var(--color9, #263238)" d="M27.848 28.297c0.518-0.030 0.366-0.030 0.891-0.061 0.251-0.015 1.92-0.099 2.164-0.069 0.008 0 0.008 0.008 0 0.008-0.236 0.046-1.905 0.107-2.164 0.114-0.518 0.015-0.373 0.008-0.891 0.015-0.015 0.008-0.015-0.008 0-0.008zM29.044 12.777c0.152 1.897 0.305 3.787 0.48 5.676 0.175 1.897 0.381 3.794 0.625 5.684 0.137 1.059 0.29 2.545 0.457 3.596 0 0.008-0.008 0.008-0.008 0-0.335-1.867-0.579-4.19-0.792-6.080s-0.381-3.779-0.533-5.669c-0.084-1.067-0.168-2.141-0.244-3.215-0.008-0.008 0.015-0.008 0.015 0.008zM25.829 15.093c0.343 0.122 0.678 0.29 0.998 0.465 0.015 0.008 0.008 0.023-0.008 0.023-0.335-0.145-0.678-0.282-1.006-0.442-0.030-0.015-0.015-0.053 0.015-0.046zM25.722 12.792c0-0.015 0.023-0.015 0.023 0 0 0.396 0.023 0.747 0.053 1.12 0.015 0.175 0.152 1.128 0.457 1.059 0.053-0.015 0.076-0.061 0.084-0.137 0.008-0.091-0.023-0.206-0.038-0.29-0.030-0.198-0.061-0.404-0.076-0.602-0.030-0.373-0.030-0.754 0.015-1.128 0-0.015 0.023-0.008 0.023 0 0 0.518 0.015 1.044 0.091 1.562 0.038 0.251 0.16 0.625-0.099 0.663-0.267 0.038-0.434-0.587-0.465-0.762-0.107-0.488-0.107-1.006-0.069-1.486z"></path>
<path fill="#263238" style="fill: var(--color9, #263238)" d="M26.24 14.994c0.030 0.061 0.046 0.13 0.069 0.198 0.015 0.053 0.030 0.107 0.030 0.16 0 0.008-0.015 0.015-0.023 0.008-0.038-0.046-0.053-0.107-0.069-0.16l-0.069-0.183c-0.015-0.038 0.046-0.061 0.061-0.023z"></path>
<path fill="#c7c7c7" style="fill: var(--color10, #c7c7c7)" d="M12.77 29.090l-0.015-0.152 8.038-0.411-0.594-3.581 0.152-0.023 0.625 3.749-8.206 0.419z"></path>
<path fill="#37474f" style="fill: var(--color13, #37474f)" d="M13.736 30.101c0.365-0.285 0.429-0.812 0.144-1.176s-0.812-0.429-1.176-0.144-0.429 0.812-0.144 1.176c0.285 0.364 0.812 0.429 1.176 0.144z"></path>
<path fill="#ebebeb" style="fill: var(--color14, #ebebeb)" d="M12.838 29.44c0 0.213 0.168 0.381 0.381 0.381s0.381-0.168 0.381-0.381-0.168-0.381-0.381-0.381c-0.206-0.008-0.381 0.168-0.381 0.381z"></path>
<path fill="#37474f" style="fill: var(--color13, #37474f)" d="M19.858 30.256c0.45-0.107 0.729-0.558 0.622-1.009s-0.559-0.729-1.009-0.622-0.729 0.559-0.622 1.009c0.107 0.45 0.559 0.729 1.009 0.622z"></path>
<path fill="#ebebeb" style="fill: var(--color14, #ebebeb)" d="M19.276 29.44c0 0.213 0.168 0.381 0.381 0.381s0.381-0.168 0.381-0.381-0.168-0.381-0.381-0.381c-0.206-0.008-0.381 0.168-0.381 0.381z"></path>
<path fill="#c7c7c7" style="fill: var(--color10, #c7c7c7)" d="M14.202 30.019l-0.008-0.152 8.038-0.411-0.785-4.701 0.152-0.023 0.808 4.861-8.206 0.427z"></path>
<path fill="#37474f" style="fill: var(--color13, #37474f)" d="M15.193 31.007c0.356-0.296 0.405-0.824 0.11-1.18s-0.824-0.405-1.18-0.11c-0.356 0.296-0.405 0.824-0.11 1.18s0.824 0.405 1.18 0.11z"></path>
<path fill="#ebebeb" style="fill: var(--color14, #ebebeb)" d="M14.278 30.362c0 0.213 0.168 0.381 0.381 0.381s0.381-0.168 0.381-0.381-0.168-0.381-0.381-0.381-0.381 0.175-0.381 0.381z"></path>
<path fill="#37474f" style="fill: var(--color13, #37474f)" d="M21.87 30.689c0.178-0.427-0.023-0.918-0.45-1.096s-0.918 0.023-1.096 0.45c-0.178 0.427 0.023 0.918 0.45 1.096s0.918-0.023 1.096-0.45z"></path>
<path fill="#ebebeb" style="fill: var(--color14, #ebebeb)" d="M20.716 30.362c0 0.213 0.168 0.381 0.381 0.381s0.381-0.168 0.381-0.381-0.168-0.381-0.381-0.381c-0.206 0-0.381 0.175-0.381 0.381z"></path>
<path fill="#a6a6a6" style="fill: var(--color4, #a6a6a6)" d="M12.48 24.465l-1.173-5.349 8-1.295 0.084 5.592-0.069 0.008-6.842 1.044zM11.49 19.238l1.112 5.059 6.636-1.013-0.076-5.28-7.672 1.234z"></path>
<path fill="#a6a6a6" style="fill: var(--color4, #a6a6a6)" d="M13.348 18.862l-0.151 0.024 0.824 5.269 0.151-0.024-0.824-5.269zM15.493 18.523l-0.151 0.017 0.587 5.324 0.151-0.017-0.587-5.324zM17.584 18.217l-0.152 0.007 0.232 5.367 0.152-0.007-0.232-5.367z"></path>
<path fill="#a6a6a6" style="fill: var(--color4, #a6a6a6)" d="M19.301 19.517l-7.527 1.363 0.027 0.15 7.527-1.363-0.027-0.15zM19.3 21.542l-7.144 1.061 0.022 0.151 7.144-1.061-0.022-0.151z"></path>
<path fill="#dbdbdb" style="fill: var(--color12, #dbdbdb)" d="M22.644 24.716l-3.406-1.318v-5.585l5.204 1.509-1.798 5.394zM19.383 23.291l3.162 1.219 1.691-5.090-4.861-1.41v5.28h0.008z"></path>
<path fill="#dbdbdb" style="fill: var(--color12, #dbdbdb)" d="M19.338 19.52l-0.054 0.142 4.397 1.684 0.054-0.142-4.397-1.684zM19.335 21.548l-0.058 0.141 3.767 1.537 0.058-0.141-3.767-1.537z"></path>
<path fill="#dbdbdb" style="fill: var(--color12, #dbdbdb)" d="M20.968 18.4l-0.709 5.332 0.151 0.020 0.709-5.332-0.151-0.020zM22.654 18.887l-1.193 5.3 0.149 0.034 1.194-5.3-0.149-0.033zM20.534 13.57l-1.297 4.328 0.146 0.044 1.297-4.328-0.146-0.044zM25.678 14.598l-1.422 4.744 0.146 0.044 1.422-4.744-0.146-0.044z"></path>
<path fill="#263238" style="fill: var(--color9, #263238)" d="M20.295 13.356l-0.061 0.299 5.836 1.201 0.061-0.299-5.836-1.201z"></path>
<path fill="#ffc727" style="fill: var(--color5, #ffc727)" d="M16.899 19.68l1.44 0.663 2.37-0.472-1.417-0.404-2.392 0.213z"></path>
<path fill="#000" style="fill: var(--color16, #000)" opacity="0.1" d="M16.899 19.68l1.44 0.663 2.37-0.472-1.417-0.404-2.392 0.213z"></path>
<path fill="#e6a36e" style="fill: var(--color17, #e6a36e)" d="M19.398 19.886c0.015 0.61 0.16 3.528-0.404 3.581-0.198 0.023-0.381-0.434-0.518-1.112-0.015-0.069-0.030-0.137-0.038-0.206-0.046-0.251-0.084-0.533-0.122-0.823l-0.023-0.206c-0.030-0.267-0.053-0.549-0.069-0.83 0-0.069-0.008-0.137-0.008-0.206 0-0.061-0.008-0.114-0.008-0.175-0.008-0.19-0.008-0.381-0.008-0.564v-0.206c0.008-0.381 0.023-0.739 0.046-1.074 0.008-0.069 0.008-0.13 0.015-0.19 0.084-0.853 0.244-1.47 0.465-1.531 0.472-0.122 0.625 2.027 0.67 3.543z"></path>
<path fill="#cc8a58" style="fill: var(--color18, #cc8a58)" d="M19.025 21.996c-0.008 0.008-0.015 0.008-0.023 0.015l-0.008 0.008c-0.198 0.069-0.373 0.183-0.518 0.35-0.015-0.069-0.030-0.137-0.038-0.206 0.175-0.145 0.389-0.229 0.571-0.198h0.015c0.008 0 0.015 0.015 0 0.030zM18.956 21.12c-0.008 0-0.015 0.008-0.023 0.008l-0.008 0.008c-0.206 0.008-0.411 0.069-0.587 0.19-0.008 0.008-0.015 0.008-0.023 0.015l-0.023-0.206c0.213-0.114 0.465-0.137 0.655-0.053l0.008 0.008h0.008s0.008 0.023-0.008 0.030zM18.91 20.229h-0.038c-0.206-0.038-0.411-0.030-0.61 0.053l-0.046 0.023c0-0.069-0.008-0.137-0.008-0.206 0.236-0.076 0.51-0.046 0.693 0.084 0 0 0.008 0 0.008 0.008 0 0 0.008 0 0.008 0.008 0.008 0.008 0.015 0.030-0.008 0.030zM18.88 19.291h-0.038c-0.206-0.038-0.411-0.030-0.61 0.053-0.015 0.008-0.023 0.008-0.030 0.015v-0.206c0.229-0.069 0.495-0.038 0.67 0.091 0 0 0.008 0 0.008 0.008 0 0 0.008 0 0.008 0.008 0.008 0.008 0.008 0.030-0.008 0.030zM18.88 18.187c-0.008 0-0.015 0-0.023-0.008h-0.015c-0.19-0.084-0.396-0.122-0.594-0.099 0.008-0.069 0.008-0.13 0.015-0.19 0.229 0 0.472 0.091 0.617 0.251v0.008l0.008 0.008c0.008 0.015 0.008 0.038-0.008 0.030z"></path>
<path fill="#edaa76" style="fill: var(--color19, #edaa76)" d="M20.29 20.251c-0.084 0.602-0.434 3.482-0.998 3.406-0.198-0.023-0.305-0.51-0.328-1.204 0-0.069-0.008-0.137-0.008-0.206 0-0.259 0-0.541 0.015-0.83 0-0.069 0.008-0.137 0.015-0.206 0.015-0.267 0.046-0.549 0.076-0.823 0.008-0.069 0.015-0.137 0.023-0.198 0.008-0.053 0.015-0.114 0.023-0.168 0.023-0.183 0.053-0.373 0.084-0.556 0.015-0.069 0.023-0.137 0.038-0.198 0.069-0.366 0.145-0.716 0.229-1.036l0.046-0.183c0.221-0.815 0.488-1.379 0.716-1.387 0.495-0.030 0.282 2.103 0.069 3.589z"></path>
<path fill="#cc8a58" style="fill: var(--color18, #cc8a58)" d="M19.581 22.225c-0.008 0.008-0.015 0.008-0.023 0.008l-0.008 0.008c-0.206 0.023-0.396 0.091-0.571 0.221 0-0.069-0.008-0.137-0.008-0.206 0.198-0.099 0.419-0.13 0.602-0.061 0 0 0.008 0 0.008 0.008h0.008c0-0.008 0.008 0.015-0.008 0.023zM19.657 21.349h-0.038c-0.206-0.038-0.411-0.030-0.61 0.046-0.008 0-0.015 0.008-0.023 0.008 0-0.069 0.008-0.137 0.015-0.206 0.229-0.061 0.48-0.023 0.655 0.099l0.008 0.008s0.008 0 0.008 0.008c0 0.015 0 0.038-0.015 0.038zM19.764 20.472c-0.008 0-0.015 0-0.023-0.008h-0.015c-0.198-0.084-0.404-0.122-0.61-0.091-0.015 0-0.030 0.008-0.046 0.008 0.008-0.069 0.015-0.137 0.023-0.198 0.244-0.015 0.51 0.076 0.67 0.251v0.008l0.008 0.008c0.008 0 0.008 0.023-0.008 0.023zM19.886 19.55c-0.008 0-0.015 0-0.023-0.008h-0.015c-0.198-0.084-0.404-0.122-0.61-0.091-0.015 0-0.023 0.008-0.038 0.008 0.015-0.069 0.023-0.137 0.038-0.198 0.236-0.015 0.495 0.084 0.648 0.251v0.008l0.008 0.008c0.008 0.008 0.008 0.023-0.008 0.023zM20.069 18.476c-0.008 0-0.015-0.008-0.023-0.015-0.008 0-0.008 0-0.015-0.008-0.175-0.13-0.366-0.213-0.571-0.236l0.046-0.183c0.229 0.053 0.45 0.198 0.564 0.389v0.008s0 0.008 0.008 0.008c0.015 0.023 0.015 0.038-0.008 0.038z"></path>
<path fill="#ffc727" style="fill: var(--color5, #ffc727)" d="M16.899 19.68s0.091 2.91 0.061 3.025c-0.030 0.114-0.206 1.478-0.19 1.516s1.387 0.823 1.432 0.777c0.046-0.046 0.13-2.011 0.13-2.255s0.015-2.408 0.015-2.408l-1.448-0.655z"></path>
<path fill="#ffc727" style="fill: var(--color5, #ffc727)" d="M18.339 20.343l-0.145 4.655s2.225-0.655 2.24-0.693c0.023-0.038 0.13-1.356 0.099-1.562s0.168-2.872 0.168-2.872l-2.362 0.472z"></path>
<path fill="#000" style="fill: var(--color16, #000)" opacity="0.1" d="M18.339 20.343l-0.145 4.655s2.225-0.655 2.24-0.693c0.023-0.038 0.13-1.356 0.099-1.562s0.168-2.872 0.168-2.872l-2.362 0.472z"></path>
<path fill="#dbdbdb" style="fill: var(--color12, #dbdbdb)" d="M15.253 25.63l-2.773-1.158-0.008-0.038-1.173-5.341 3.444 1.41 0.51 5.128zM12.61 24.358l2.461 1.029-0.472-4.785-3.093-1.265 1.105 5.021z"></path>
<path fill="#dbdbdb" style="fill: var(--color12, #dbdbdb)" d="M12.457 19.576l-0.15 0.026 0.898 5.11 0.15-0.026-0.898-5.11zM13.59 20.061l-0.151 0.021 0.717 5.039 0.151-0.021-0.717-5.039z"></path>
<path fill="#dbdbdb" style="fill: var(--color12, #dbdbdb)" d="M12.259 23.036l-0.050 0.144 2.791 0.976 0.050-0.144-2.791-0.976zM11.812 20.912l-0.056 0.142 3.046 1.207 0.056-0.142-3.046-1.207z"></path>
<path fill="#ebebeb" style="fill: var(--color14, #ebebeb)" d="M15.246 25.623l-0.663-5.135 9.851-1.173-1.798 5.402-0.046 0.008-7.345 0.899zM14.758 20.617l0.625 4.838 7.147-0.876 1.691-5.082-9.463 1.12z"></path>
<path fill="#ebebeb" style="fill: var(--color14, #ebebeb)" d="M16.941 20.284l-0.152 0.013 0.433 4.964 0.152-0.013-0.433-4.964zM19.422 19.971l-0.291 5.050 0.152 0.009 0.291-5.050-0.152-0.009zM21.938 19.666l-0.97 5.136 0.15 0.028 0.97-5.136-0.15-0.028z"></path>
<path fill="#ebebeb" style="fill: var(--color14, #ebebeb)" d="M23.735 21.090l-8.911 1.003 0.017 0.151 8.911-1.003-0.017-0.151zM23.078 23.085l-8.063 0.843 0.016 0.152 8.063-0.843-0.016-0.152z"></path>
<path fill="#f7a9a0" style="fill: var(--color15, #f7a9a0)" d="M26.293 8.259c-0.411 0.64-1.92 2.971-2.865 2.971-0.571 0-2.499-0.968-2.918-1.295-0.495-0.381 0.838-1.585 1.181-1.44 0.427 0.175 1.577 0.853 1.851 0.853 0.244 0 0.937-0.777 2.248-1.63 0.67-0.45 0.861-0.015 0.503 0.541z"></path>
<path fill="#f7a9a0" style="fill: var(--color15, #f7a9a0)" d="M20.556 9.966c-0.175-0.084-0.96-0.549-1.15-0.724s-0.693-0.731-0.579-0.891c0.114-0.16 0.282-0.008 0.282-0.008s-0.175-0.267-0.038-0.419c0.137-0.152 0.381 0.091 0.381 0.091s-0.16-0.29-0.015-0.427c0.145-0.137 0.35 0.145 0.35 0.145s-0.16-0.259 0.008-0.32c0.206-0.076 0.45 0.427 0.67 0.61 0.053 0.038 1.090 0.754 1.090 0.754l-0.998 1.189z"></path>
<path fill="#263238" style="fill: var(--color9, #263238)" d="M19.771 7.718c0.183 0.373 0.32 0.503 0.67 0.716 0.008 0.008 0 0.015-0.008 0.008-0.358-0.183-0.556-0.32-0.678-0.716-0.008-0.023 0.008-0.030 0.015-0.008zM19.436 7.992c0.221 0.366 0.373 0.51 0.716 0.762 0.008 0 0 0.015-0.008 0.008-0.358-0.221-0.556-0.358-0.731-0.762 0-0.015 0.015-0.023 0.023-0.008zM19.131 8.358c0.236 0.343 0.404 0.503 0.77 0.709 0.008 0.008 0 0.015-0.008 0.015-0.396-0.168-0.594-0.373-0.77-0.716-0.015-0.023-0.008-0.030 0.008-0.008z"></path>
<path fill="#ffc727" style="fill: var(--color5, #ffc727)" d="M19.025 8.442c0.259 0.853 1.067 0.747 1.295 0.678s0.952-0.427 0.693-1.288c-0.259-0.853-1.12-0.655-1.272-0.61-0.175 0.053-0.983 0.366-0.716 1.219z"></path>
<path fill="#455a64" style="fill: var(--color11, #455a64)" d="M19.81 7.337s0.038 0.32 0.602 0.13c0 0-0.381-0.404-0.602-0.13z"></path>
<path fill="#455a64" style="fill: var(--color11, #455a64)" d="M19.863 7.474s0.267 0.015 0.19-0.465c0 0-0.381 0.244-0.19 0.465z"></path>
<path fill="#455a64" style="fill: var(--color11, #455a64)" d="M19.848 7.383s-0.091 0.251-0.503-0.015c0 0 0.381-0.244 0.503 0.015z"></path>
<path fill="#455a64" style="fill: var(--color11, #455a64)" d="M19.825 7.322s-0.244 0.206 0.229 0.571c0 0 0.122-0.541-0.229-0.571z"></path>
<path fill="#455a64" style="fill: var(--color11, #455a64)" d="M19.802 7.368s-0.358-0.099-0.312 0.51c0 0 0.549-0.19 0.312-0.51z"></path>
<path fill="#455a64" style="fill: var(--color11, #455a64)" d="M19.863 7.444s0.046-0.32-0.221-0.541c0 0-0.152 0-0.19 0.16 0 0 0.305 0.168 0.328 0.45l0.069-0.046z"></path>
<path fill="#f7a9a0" style="fill: var(--color15, #f7a9a0)" d="M21.935 8.747s-0.145-0.495-0.259-0.701c-0.114-0.206-0.808-0.808-0.945-0.663-0.183 0.183 0.152 0.61 0.343 0.8 0 0-0.419 0.427-0.244 0.785 0.168 0.366 1.105-0.221 1.105-0.221z"></path>
<path fill="#263238" style="fill: var(--color9, #263238)" d="M20.693 7.451c-0.046 0.29 0.221 0.518 0.396 0.716 0.015 0.015 0.008 0.030-0.008 0.038-0.16 0.19-0.335 0.503-0.267 0.762 0 0.008-0.008 0.008-0.008 0.008-0.107-0.267 0.038-0.587 0.229-0.785-0.183-0.206-0.442-0.45-0.343-0.739z"></path>
<path fill="#ffc727" style="fill: var(--color5, #ffc727)" d="M24.152 8.701l1.272 1.135s0.724-0.869 1.021-1.707c0.297-0.838-0.419-0.731-0.922-0.396-0.51 0.335-1.371 0.968-1.371 0.968z"></path>
<path fill="#263238" style="fill: var(--color9, #263238)" d="M25.57 9.562c-0.556-0.442-0.975-0.907-1.074-0.998-0.008-0.008 0-0.008 0.008-0.008 0.091 0.091 0.655 0.571 1.074 0.998l-0.008 0.008z"></path>
<path fill="#263238" style="fill: var(--color9, #263238)" d="M26.446 8.13c-0.297 0.83-1.021 1.707-1.021 1.707l-0.587-0.526c0.389-0.541 1.013-1.402 1.326-1.821 0.282-0.015 0.465 0.145 0.282 0.64z"></path>
<path fill="#ffc727" style="fill: var(--color5, #ffc727)" d="M24.838 13.41c0.076 0.076 4.762 0.030 4.785 0 0.061-0.084-0.655-3.109-1.196-4.251-0.693-1.47-1.059-1.592-1.272-1.676-0.282-0.107-1.006-0.061-1.128-0.008-0.137 0.061-0.48 0.747-0.64 1.295-0.32 1.097-0.617 4.571-0.549 4.64z"></path>
<path fill="#f7a9a0" style="fill: var(--color15, #f7a9a0)" d="M27.855 8.846c-0.023 1.44-0.084 3.147-0.488 3.627-0.602 0.731-2.118 1.478-2.735 1.615-0.259 0.061-0.983-1.89-0.701-1.95 0.587-0.122 1.935-0.678 2.057-0.8 0.114-0.114 0.587-1.516 0.96-2.598 0.45-1.303 0.922-0.724 0.907 0.107z"></path>
<path fill="#f7a9a0" style="fill: var(--color15, #f7a9a0)" d="M24.251 12.061s-0.777 0.198-1.28 0.35c-0.282 0.084-0.747 0.274-0.922 0.434-0.267 0.236-1.227 1.387-0.952 1.623 0.251 0.213 0.945-0.876 0.945-0.876s-0.8 1.044-0.457 1.25c0.35 0.206 0.968-1.135 0.968-1.135s-0.8 1.090-0.411 1.242c0.297 0.114 0.93-1.067 0.93-1.067s-0.678 0.945-0.381 1.074c0.328 0.145 0.983-0.907 0.983-0.907 0.815 0.213 1.295-0.023 1.608-0.229 0.084-0.053-1.029-1.76-1.029-1.76z"></path>
<path fill="#263238" style="fill: var(--color9, #263238)" d="M22.293 13.219c-0.099 0.122-0.198 0.236-0.29 0.366s-0.168 0.259-0.244 0.396c-0.183 0.328-0.251 0.564-0.244 0.556 0.13-0.335 0.434-0.792 0.526-0.922 0.091-0.137 0.168-0.267 0.251-0.396 0.008 0 0-0.008 0 0zM22.758 13.524c-0.168 0.137-0.526 0.632-0.663 0.968-0.008 0.015 0 0.015 0.008 0 0.114-0.16 0.549-0.808 0.655-0.968 0.008 0 0.008 0 0 0zM23.208 13.722c-0.198 0.19-0.358 0.457-0.488 0.762-0.008 0.015 0.008 0.015 0.015 0 0.16-0.259 0.282-0.457 0.488-0.754 0-0.008-0.008-0.015-0.015-0.008z"></path>
<path fill="#ffc727" style="fill: var(--color5, #ffc727)" d="M26.293 10.095l1.684 0.251s0.13-1.128-0.076-1.989-0.747-0.381-0.99 0.175c-0.244 0.564-0.617 1.562-0.617 1.562z"></path>
<path fill="#263238" style="fill: var(--color9, #263238)" d="M27.931 10.019c-0.709-0.046-1.318-0.198-1.448-0.213-0.008 0-0.008-0.008 0-0.008 0.13 0.023 0.861 0.099 1.448 0.213 0.008 0 0 0.008 0 0.008z"></path>
<path fill="#263238" style="fill: var(--color9, #263238)" d="M26.537 9.516c0.076-0.19 0.19-0.465 0.251-0.655 0 0 0-0.008-0.008 0-0.046 0.099-0.091 0.206-0.137 0.312 0-0.008 0-0.015 0.008-0.015 0.008-0.061 0.023-0.114 0.023-0.175-0.015 0.061-0.030 0.114-0.046 0.175l-0.023 0.114c-0.023 0.053-0.084 0.19-0.099 0.244-0.038 0.091-0.244 0.602-0.236 0.602 0.015 0 0.175 0.023 0.206 0.023 0.008 0 0.008-0.015 0-0.015-0.030 0-0.16-0.023-0.175-0.023 0.038-0.099 0.076-0.19 0.122-0.29l0.114-0.297zM28.084 9.234c-0.015 0.053-0.023 0.099-0.030 0.152 0 0.015-0.008 0.038-0.008 0.053-0.008-0.13-0.015-0.251-0.030-0.381h-0.008c0.015 0.213 0.008 0.427 0 0.632 0 0.107-0.008 0.206-0.015 0.312 0 0.053-0.008 0.107-0.008 0.16 0 0.061-0.008 0.175-0.008 0.175-0.030-0.008-0.13-0.015-0.16-0.023-0.008 0-0.008 0.008 0 0.008 0.030 0.008 0.183 0.030 0.183 0.030 0-0.053 0.015-0.122 0.023-0.175s0.008-0.099 0.015-0.152c0.008-0.107 0.015-0.221 0.015-0.328v-0.183c0.008-0.046 0.023-0.091 0.030-0.137 0.008-0.053 0.015-0.107 0.023-0.152-0.008 0-0.023 0-0.023 0.008z"></path>
<path fill="#f7a9a0" style="fill: var(--color15, #f7a9a0)" d="M26.164 8.229c0.259 0.076 0.739-0.297 0.937-0.617 0.015-0.023-0.008-0.259-0.015-0.549-0.008-0.175-0.008-0.373 0-0.556 0-0.038-1.143 0.206-1.143 0.206s0.091 0.381 0.069 0.693c0 0.023-0.008 0.053-0.015 0.076v0.015c-0.030 0.137-0.084 0.655 0.168 0.731z"></path>
<path fill="#263238" style="fill: var(--color9, #263238)" d="M27.017 6.507c-0.069 0.297-0.305 1.021-0.907 0.998-0.046 0-0.084-0.008-0.114-0.015v-0.015c0.008-0.023 0.008-0.046 0.015-0.076 0.023-0.312-0.069-0.693-0.069-0.693s0.823-0.168 1.074-0.198z"></path>
<path fill="#f7a9a0" style="fill: var(--color15, #f7a9a0)" d="M27.147 5.067c0.152 0.389 0.030 1.562-0.229 1.836-0.381 0.404-1.051 0.495-1.41 0.023-0.343-0.457-0.16-1.973 0.137-2.232 0.442-0.381 1.28-0.206 1.501 0.373z"></path>
<path fill="#263238" style="fill: var(--color9, #263238)" d="M26.103 5.859c0-0.008 0.008 0 0 0-0.008 0.084 0 0.175 0.069 0.213v0.008c-0.091-0.030-0.091-0.152-0.069-0.221z"></path>
<path fill="#263238" style="fill: var(--color9, #263238)" d="M26.179 5.783c0.13 0 0.114 0.259-0.008 0.259-0.114-0.008-0.099-0.259 0.008-0.259zM25.661 5.836c0-0.008-0.008 0 0 0-0.008 0.084-0.023 0.175-0.099 0.198v0.008c0.091-0.015 0.107-0.13 0.099-0.206z"></path>
<path fill="#263238" style="fill: var(--color9, #263238)" d="M25.592 5.745c-0.13-0.015-0.152 0.236-0.030 0.251 0.114 0.023 0.137-0.236 0.030-0.251zM26.286 5.669c-0.030-0.008-0.061-0.023-0.099-0.038s-0.069-0.023-0.091-0.061c-0.015-0.015-0.008-0.053 0.015-0.069 0.038-0.030 0.091-0.023 0.137-0.008s0.084 0.046 0.107 0.091c0.030 0.053-0.023 0.099-0.069 0.084zM25.501 5.615c0.038 0 0.069-0.015 0.107-0.023s0.069-0.008 0.099-0.038c0.015-0.015 0.015-0.046 0-0.069-0.030-0.038-0.084-0.038-0.13-0.030-0.053 0.008-0.091 0.030-0.122 0.069-0.038 0.038 0 0.091 0.046 0.091zM26.194 6.598c-0.023 0.015-0.038 0.038-0.069 0.046-0.030 0-0.061-0.015-0.084-0.023 0 0-0.008 0 0 0.008 0.015 0.030 0.061 0.053 0.099 0.046 0.030-0.008 0.046-0.038 0.053-0.076 0.008 0 0 0 0 0zM26.126 6.362c-0.046 0.069-0.114 0.099-0.183 0.107-0.030 0.008-0.069 0-0.099 0h-0.030c-0.008 0-0.015-0.008-0.015-0.015v-0.015c0-0.061 0.015-0.152 0.015-0.152-0.023 0.008-0.137 0.053-0.137 0.023 0.030-0.259 0.069-0.556 0.152-0.808 0-0.008 0.015-0.008 0.015 0-0.023 0.251-0.084 0.503-0.107 0.754 0.038-0.015 0.099-0.030 0.13-0.030 0.008 0-0.023 0.175-0.023 0.206 0.091 0.008 0.168-0.015 0.282-0.069-0.008-0.015 0-0.008 0 0z"></path>
<path fill="#263238" style="fill: var(--color9, #263238)" d="M25.874 6.438s0.053 0.076 0.122 0.107c0.023 0.008 0.053 0.015 0.084 0.008 0.061-0.015 0.069-0.069 0.061-0.122-0.008-0.038-0.023-0.076-0.023-0.076s-0.091 0.084-0.244 0.084z"></path>
<path fill="#ff6596" style="fill: var(--color20, #ff6596)" d="M25.996 6.545c0.023 0.008 0.053 0.015 0.084 0.008 0.061-0.015 0.069-0.069 0.061-0.122-0.061 0.008-0.13 0.046-0.145 0.114z"></path>
<path fill="#263238" style="fill: var(--color9, #263238)" d="M25.501 5.15c0.389 0.267 0.914-0.137 0.914-0.137 0.122 0.305 0.427 0.267 0.427 0.267s0.076 0.655 0.251 0.655c0.267 0 0.343-0.899 0.259-1.074s-0.305-0.221-0.305-0.221-0.015-0.137-0.175-0.259c-0.183-0.137-0.8 0.046-0.8 0.046s-0.046-0.114-0.16-0.213c-0.076-0.061-0.175-0.053-0.236 0.023 0.030 0.046 0.053 0.099 0.061 0.16 0.030 0.19-0.13 0.19-0.122 0.015 0-0.076 0.023-0.137 0.061-0.183-0.076-0.114-0.206-0.152-0.282-0.091-0.13 0.122-0.213 0.792 0.107 1.013z"></path>
<path fill="#f7a9a0" style="fill: var(--color15, #f7a9a0)" d="M26.979 6.027s0.236-0.389 0.411-0.305c0.175 0.084 0.008 0.632-0.183 0.724-0.198 0.084-0.274-0.091-0.274-0.091l0.046-0.328z"></path>
<path fill="#263238" style="fill: var(--color9, #263238)" d="M27.337 5.874c0.008 0 0.008 0.008 0 0-0.137 0.069-0.198 0.206-0.244 0.343 0.038-0.053 0.091-0.084 0.168-0.038v0.008c-0.061-0.008-0.099 0-0.137 0.053-0.023 0.030-0.038 0.076-0.061 0.114-0.008 0.015-0.030 0.008-0.023-0.008-0.015-0.183 0.107-0.442 0.297-0.472z"></path>
<path fill="#ffc727" style="fill: var(--color5, #ffc727)" d="M4.13 24.046c0.030-0.739 0.015-1.478-0.030-2.21-0.099-1.516-0.35-3.025-0.693-4.51-0.19-0.83-0.434-1.653-0.678-2.476-0.008-0.023-0.046-0.015-0.038 0.008 0.77 2.888 1.394 5.867 1.356 8.869-0.015 0.838-0.107 1.669-0.19 2.499 0 0.023 0.038 0.030 0.038 0.008 0.152-0.709 0.206-1.455 0.236-2.187z"></path>
<path fill="#ffc727" style="fill: var(--color5, #ffc727)" d="M2.69 14.857s-1.158 2.949-0.899 3.642c0.259 0.693 0.8 0.838 0.8 0.838s-0.709 1.013-0.213 1.966c0.495 0.952 1.6 0.907 1.676 1.989-0.015 0 0.046-4.51-1.364-8.434z"></path>
<path fill="#263238" style="fill: var(--color9, #263238)" d="M3.916 21.432v-0.015c-0.16-2.004-0.518-4-1.128-5.928 0-0.008-0.008-0.008-0.008 0 0.229 0.861 0.434 1.73 0.61 2.598-0.152-0.152-0.35-0.244-0.556-0.312-0.008 0-0.008 0.008 0 0.008 0.213 0.091 0.419 0.198 0.571 0.381 0.030 0.168 0.069 0.343 0.099 0.51-0.259-0.29-0.617-0.434-0.983-0.571-0.008 0-0.008 0.008 0 0.008 0.373 0.152 0.747 0.35 1.006 0.67 0.091 0.488 0.168 0.983 0.236 1.47-0.19-0.198-0.427-0.335-0.693-0.396-0.008 0-0.015 0.008-0.008 0.015 0.274 0.076 0.51 0.236 0.701 0.45h0.008c0.023 0.175 0.046 0.35 0.069 0.518-0.145-0.122-0.305-0.221-0.488-0.29-0.008 0-0.008 0.008 0 0.008 0.183 0.076 0.343 0.19 0.488 0.32h0.008c0.023 0.168 0.038 0.328 0.053 0.495-0.267-0.32-0.594-0.556-0.983-0.701-0.008 0-0.015 0.008-0.008 0.015 0.381 0.168 0.716 0.427 0.968 0.747 0.008 0.008 0.015 0.008 0.023 0.008 0.023 0.251 0.046 0.51 0.069 0.762 0 0 0.008 0.008 0.008 0-0.023-0.251-0.038-0.51-0.061-0.77z"></path>
<path fill="#263238" style="fill: var(--color9, #263238)" d="M2.979 17.486c-0.198-0.137-0.457-0.198-0.701-0.221-0.008 0-0.008 0.008 0 0.008 0.251 0.038 0.457 0.13 0.693 0.229 0.008 0.008 0.015-0.008 0.008-0.015zM3.124 20.61c-0.16-0.099-0.343-0.152-0.526-0.183-0.008 0-0.008 0.008 0 0.008 0.183 0.030 0.35 0.099 0.518 0.183 0.008 0.008 0.015-0.008 0.008-0.008z"></path>
<path fill="#ffc727" style="fill: var(--color5, #ffc727)" d="M7.185 18.552c-0.488 0.343-0.952 0.731-1.341 1.173-0.419 0.472-0.731 1.006-0.945 1.6-0.442 1.219-0.678 2.53-0.701 3.825-0.015 0.724 0.053 1.44 0.206 2.149 0.008 0.023 0.046 0.015 0.038-0.008-0.19-1.242-0.183-2.514 0.023-3.756 0.198-1.219 0.51-2.545 1.288-3.535 0.419-0.541 0.945-0.968 1.47-1.402 0.023-0.030-0.015-0.069-0.038-0.046z"></path>
<path fill="#ffc727" style="fill: var(--color5, #ffc727)" d="M4.366 24.274s0.396-0.67 0.983-1.25c0.579-0.579 1.074-0.99 1.143-1.379 0.076-0.381-0.579-0.67-0.579-0.67s0.808 0.145 1.021-0.19c0.221-0.335 0.328-2.293 0.328-2.293s-1.463 1.044-2.141 2.507c-0.686 1.463-0.754 3.276-0.754 3.276z"></path>
<path fill="#263238" style="fill: var(--color9, #263238)" d="M6.75 18.987c-0.617 0.602-1.234 1.25-1.6 2.042-0.122 0.274-0.229 0.556-0.32 0.846-0.015 0.061-0.038 0.114-0.053 0.175v0.008c-0.183 0.594-0.305 1.204-0.419 1.806 0 0.008 0.008 0.008 0.008 0 0.061-0.305 0.13-0.61 0.213-0.922h0.008c0.122-0.053 0.251-0.084 0.381-0.099 0.008 0 0.008-0.015 0-0.015-0.13 0.008-0.259 0.030-0.381 0.069 0.069-0.274 0.145-0.556 0.236-0.823 0.282-0.069 0.579-0.107 0.869-0.114v-0.008c-0.29-0.015-0.571 0.015-0.853 0.076l0.046-0.137c0.19-0.046 0.381-0.076 0.579-0.099v-0.008c-0.19 0.008-0.381 0.023-0.564 0.069 0.076-0.236 0.168-0.465 0.259-0.693 0.076-0.19 0.175-0.366 0.274-0.533 0.16-0.038 0.305-0.069 0.465-0.084 0.008 0 0.008-0.008 0-0.008-0.145-0.008-0.297 0-0.434 0.046 0.076-0.122 0.16-0.244 0.244-0.366 0.328-0.076 0.663-0.137 0.998-0.076 0.008 0 0.008-0.008 0-0.008-0.32-0.084-0.64-0.038-0.952 0.030 0.038-0.046 0.069-0.091 0.107-0.137 0.198-0.061 0.404-0.091 0.61-0.099 0.008 0 0.008-0.008 0-0.008-0.19-0.015-0.389 0-0.571 0.053 0.274-0.335 0.571-0.655 0.869-0.968 0.015-0.023 0-0.030-0.015-0.015z"></path>
<path fill="#263238" style="fill: var(--color9, #263238)" d="M6.735 20.32c-0.099-0.008-0.19-0.023-0.29-0.008-0.015 0-0.008 0.023 0 0.023 0.099 0 0.19-0.008 0.29 0 0.008 0 0.008-0.015 0-0.015zM5.684 22.217c-0.152 0-0.305 0.038-0.45 0.091v0.008c0.152-0.038 0.297-0.053 0.45-0.076 0.015 0 0.015-0.023 0-0.023zM5.364 21.562c-0.061 0-0.13 0.008-0.19 0.015-0.008 0-0.008 0.008 0 0.008 0.061 0 0.13 0 0.19-0.008 0.015 0 0.015-0.015 0-0.015z"></path>
<path fill="#ffc727" style="fill: var(--color5, #ffc727)" d="M0.076 20.625c0.472 0.16 0.937 0.373 1.356 0.64 0.45 0.282 0.823 0.648 1.135 1.074 0.64 0.884 1.135 1.89 1.455 2.933 0.175 0.587 0.29 1.181 0.328 1.79 0 0.023-0.030 0.023-0.030 0-0.137-1.051-0.434-2.080-0.884-3.040-0.442-0.937-1.006-1.943-1.859-2.568-0.465-0.343-0.99-0.564-1.516-0.792-0.030-0.008-0.015-0.046 0.015-0.038z"></path>
<path fill="#ffc727" style="fill: var(--color5, #ffc727)" d="M3.68 24.602s-0.48-0.45-1.082-0.785c-0.602-0.335-1.097-0.556-1.25-0.853s0.32-0.678 0.32-0.678-0.617 0.305-0.876 0.084c-0.251-0.221-0.792-1.775-0.792-1.775s1.425 0.51 2.316 1.531c0.891 1.029 1.364 2.476 1.364 2.476z"></path>
<path fill="#263238" style="fill: var(--color9, #263238)" d="M3.604 24.282c-0.716-1.341-1.661-2.552-2.964-3.345 0.343 0.221 0.663 0.472 0.952 0.747-0.267-0.008-0.533 0.038-0.77 0.16-0.008 0 0 0.008 0.008 0.008 0.259-0.091 0.51-0.145 0.785-0.13h0.008l0.137 0.137c-0.137 0.008-0.274 0.023-0.411 0.053v0.008c0.145-0.030 0.29-0.038 0.434-0.038 0.236 0.236 0.465 0.495 0.67 0.762-0.091-0.015-0.198-0.008-0.29 0.023-0.008 0-0.008 0.015 0 0.008 0.107-0.015 0.206-0.008 0.305-0.008 0.038 0.053 0.076 0.099 0.114 0.152-0.29-0.015-0.579 0.008-0.869 0.084-0.008 0 0 0.008 0 0.008 0.297-0.061 0.587-0.076 0.891-0.061 0.038 0.046 0.069 0.099 0.107 0.145-0.175-0.008-0.343 0.015-0.518 0.061-0.008 0-0.008 0.015 0 0.008 0.175-0.038 0.35-0.053 0.533-0.038 0.152 0.213 0.297 0.427 0.442 0.648-0.076-0.015-0.152-0.008-0.229 0.015-0.008 0 0 0.008 0 0.008 0.084-0.008 0.16 0 0.244 0.015 0.13 0.198 0.251 0.396 0.366 0.594 0.038 0.008 0.061-0.008 0.053-0.023z"></path>
<path fill="#263238" style="fill: var(--color9, #263238)" d="M2.499 23.17c-0.137-0.015-0.282 0.008-0.411 0.053v0.008c0.137-0.023 0.274-0.038 0.411-0.046 0.008 0 0.008-0.015 0-0.015zM1.25 21.539c-0.061-0.008-0.13 0-0.19 0.008-0.008 0-0.008 0.015 0 0.008 0.061-0.008 0.122-0.008 0.19-0.008 0.015 0.008 0.015-0.008 0-0.008z"></path>
<path fill="#455a64" style="fill: var(--color11, #455a64)" d="M5.516 29.029h-3.215l0.457-3.36 0.114-0.861h2.072l0.114 0.861 0.457 3.36z"></path>
<path fill="#263238" style="fill: var(--color9, #263238)" d="M5.059 25.669h-2.301l0.114-0.861h2.072l0.114 0.861z"></path>
<path fill="#455a64" style="fill: var(--color11, #455a64)" d="M5.242 24.503h-2.659v0.731h2.659v-0.731z"></path>
</symbol>
<symbol id="wallet" viewBox="0 0 32 32">
<path fill="#24cca7" style="fill: var(--color8, #24cca7)" d="M3.755 7.619l16.211-4.538-0.858-1.779c-0.562-1.156-1.932-1.634-3.059-1.058l-14.513 7.375h2.219zM24.814 3.048c-0.209 0-0.411 0.032-0.601 0.091l0.014-0.004-15.012 4.483h18.431l-0.693-2.778c-0.266-1.083-1.163-1.792-2.14-1.792z"></path>
<path fill="#4a56e2" style="fill: var(--color3, #4a56e2)" d="M28.36 8.573h-26.56c-0.001 0-0.002 0-0.003 0-0.822 0-1.515 0.551-1.73 1.303l-0.003 0.013c-0.039 0.14-0.063 0.3-0.064 0.466v19.863c0.005 0.985 0.804 1.782 1.79 1.782 0.002 0 0.004 0 0.007 0h26.56c0.991 0 1.796-0.798 1.796-1.782v-4.974h-10.662c-1.686 0-3.054-1.358-3.054-3.030v-3.966c0-0.82 0.33-1.565 0.866-2.11 0.551-0.565 1.321-0.916 2.172-0.916 0.005 0 0.009 0 0.014 0h10.665v-4.867c-0.001-0.985-0.8-1.782-1.785-1.782-0.003 0-0.006 0-0.008 0h0z"></path>
<path fill="#4a56e2" style="fill: var(--color3, #4a56e2)" d="M31.414 16.926c-0.318-0.29-0.743-0.467-1.209-0.467-0.001 0-0.002 0-0.002 0h-10.712c-0.992 0-1.797 0.798-1.797 1.782v3.969c0.005 0.985 0.804 1.782 1.79 1.782 0.002 0 0.005 0 0.007 0h10.712c0.205 0 0.399-0.036 0.582-0.096 0.237-0.079 0.449-0.208 0.629-0.371 0.36-0.325 0.586-0.795 0.586-1.316v-3.968c0-0.52-0.226-0.991-0.586-1.315zM23.242 20.581c-0.003 0.493-0.403 0.891-0.896 0.891-0.001 0-0.002 0-0.003 0h-0.596c-0.496 0-0.898-0.4-0.898-0.891v-0.592c0-0.286 0.133-0.538 0.345-0.698 0.151-0.119 0.344-0.191 0.553-0.193h0.596c0.496 0 0.898 0.399 0.898 0.891v0.592z"></path>
</symbol>
</defs>
</svg>
